<?xml version="1.0" encoding="UTF-8"?>
<!DOCTYPE svg PUBLIC "-//W3C//DTD SVG 1.1//EN" "http://www.w3.org/Graphics/SVG/1.1/DTD/svg11.dtd">
<svg xmlns="http://www.w3.org/2000/svg" version="1.1" width="227px" height="227px" style="shape-rendering:geometricPrecision; text-rendering:geometricPrecision; image-rendering:optimizeQuality; fill-rule:evenodd; clip-rule:evenodd" xmlns:xlink="http://www.w3.org/1999/xlink">
<g><path style="opacity:0.01" fill="#000000" d="M 92.5,-0.5 C 98.1667,-0.5 103.833,-0.5 109.5,-0.5C 61.8399,3.31667 28.0066,26.9833 8,70.5C 3.41887,82.9217 0.585532,95.5884 -0.5,108.5C -0.5,101.833 -0.5,95.1667 -0.5,88.5C 12.5901,40.1211 43.5901,10.4544 92.5,-0.5 Z"/></g>
<g><path style="opacity:0.006" fill="#000000" d="M 117.5,-0.5 C 122.5,-0.5 127.5,-0.5 132.5,-0.5C 146.827,2.55877 160.494,7.72544 173.5,15C 178.311,17.9849 182.644,21.4849 186.5,25.5C 166.128,9.81229 143.128,1.14562 117.5,-0.5 Z"/></g>
<g><path style="opacity:0.004" fill="#000000" d="M 187.5,26.5 C 192.833,29.8333 197.167,34.1667 200.5,39.5C 195.833,35.5 191.5,31.1667 187.5,26.5 Z"/></g>
<g><path style="opacity:0.005" fill="#000000" d="M 201.5,40.5 C 204.471,42.4426 206.471,45.1092 207.5,48.5C 205.016,46.1997 203.016,43.5331 201.5,40.5 Z"/></g>
<g><path style="opacity:0.004" fill="#000000" d="M 207.5,48.5 C 208.906,48.9731 209.573,49.9731 209.5,51.5C 208.094,51.0269 207.427,50.0269 207.5,48.5 Z"/></g>
<g><path style="opacity:0.827" fill="#dadad9" d="M 109.5,-0.5 C 112.167,-0.5 114.833,-0.5 117.5,-0.5C 143.128,1.14562 166.128,9.81229 186.5,25.5C 187.167,25.5 187.5,25.8333 187.5,26.5C 191.5,31.1667 195.833,35.5 200.5,39.5C 201.167,39.5 201.5,39.8333 201.5,40.5C 203.016,43.5331 205.016,46.1997 207.5,48.5C 207.427,50.0269 208.094,51.0269 209.5,51.5C 209.75,53.674 210.75,55.3406 212.5,56.5C 214.93,62.3565 217.597,68.0232 220.5,73.5C 221.404,74.209 221.737,75.209 221.5,76.5C 223.187,83.9499 224.853,91.2832 226.5,98.5C 226.5,108.5 226.5,118.5 226.5,128.5C 224.852,135.723 223.186,143.057 221.5,150.5C 219.733,152.792 218.733,155.458 218.5,158.5C 215.761,166.323 211.761,173.323 206.5,179.5C 205.094,179.973 204.427,180.973 204.5,182.5C 203.219,185.447 201.219,187.781 198.5,189.5C 195.5,191.833 192.833,194.5 190.5,197.5C 189.833,198.833 188.833,199.833 187.5,200.5C 185.251,201.08 183.585,202.413 182.5,204.5C 180.973,204.427 179.973,205.094 179.5,206.5C 179.5,207.167 179.167,207.5 178.5,207.5C 176.973,207.427 175.973,208.094 175.5,209.5C 172.992,211.924 169.992,213.59 166.5,214.5C 163.515,215.326 160.849,216.659 158.5,218.5C 156.447,218.402 154.78,219.069 153.5,220.5C 145.094,222.686 136.76,224.686 128.5,226.5C 118.5,226.5 108.5,226.5 98.5,226.5C 49.2203,217.395 17.3869,188.728 3,140.5C 1.50113,133.07 0.334461,125.737 -0.5,118.5C -0.5,115.167 -0.5,111.833 -0.5,108.5C 0.585532,95.5884 3.41887,82.9217 8,70.5C 28.0066,26.9833 61.8399,3.31667 109.5,-0.5 Z"/></g>
<g><path style="opacity:1" fill="#fcef11" d="M 19.5,168.5 C 4.0598,138.928 1.39313,108.261 11.5,76.5C 27.3763,37.462 56.0429,13.962 97.5,6C 150.732,1.68781 189.232,23.1878 213,70.5C 228.241,110.844 222.907,148.178 197,182.5C 163.524,218.984 123.024,229.817 75.5,215C 51.7718,205.425 33.1052,189.925 19.5,168.5 Z"/></g>
<g><path style="opacity:1" fill="#4d5a98" d="M 172.5,35.5 C 176.041,36.0381 178.375,38.0381 179.5,41.5C 179.019,44.3143 177.352,45.6476 174.5,45.5C 174.327,48.1795 173.327,50.5128 171.5,52.5C 171.476,49.6906 171.143,46.8573 170.5,44C 168.78,44.71 167.113,45.8767 165.5,47.5C 165.167,47.1667 164.833,46.8333 164.5,46.5C 167.191,42.8151 169.858,39.1484 172.5,35.5 Z"/></g>
<g><path style="opacity:1" fill="#4f5a97" d="M 59.5,29.5 C 67.472,29.6364 70.972,33.6364 70,41.5C 64.9186,46.9865 60.2519,46.6531 56,40.5C 54.6624,35.9597 55.8291,32.293 59.5,29.5 Z"/></g>
<g><path style="opacity:1" fill="#f4e729" d="M 173.5,37.5 C 176.966,38.109 177.966,39.9423 176.5,43C 174.888,43.7203 173.388,43.5536 172,42.5C 172.134,40.8107 172.634,39.144 173.5,37.5 Z"/></g>
<g><path style="opacity:1" fill="#4d5a98" d="M 146.5,21.5 C 153.655,21.1527 156.821,24.486 156,31.5C 152.076,38.6013 147.409,39.2679 142,33.5C 140.478,28.2412 141.978,24.2412 146.5,21.5 Z"/></g>
<g><path style="opacity:1" fill="#4d5a98" d="M 161.5,27.5 C 165.075,28.0768 167.409,30.0768 168.5,33.5C 166.68,35.8391 165.513,38.5058 165,41.5C 161.042,45.3028 157.542,44.8028 154.5,40C 156.712,35.7412 159.045,31.5746 161.5,27.5 Z"/></g>
<g><path style="opacity:1" fill="#f0e232" d="M 159.5,35.5 C 162.543,36.424 163.543,38.2573 162.5,41C 160.272,41.8201 158.272,41.4868 156.5,40C 157.883,38.7292 158.883,37.2292 159.5,35.5 Z"/></g>
<g><path style="opacity:1" fill="#f9eb1d" d="M 59.5,31.5 C 64.6861,31.6852 67.6861,34.3518 68.5,39.5C 63.378,45.3023 59.7113,44.3023 57.5,36.5C 57.9024,34.6998 58.5691,33.0332 59.5,31.5 Z"/></g>
<g><path style="opacity:1" fill="#f2e42e" d="M 162.5,30.5 C 166.161,30.3501 167.161,31.8501 165.5,35C 161.707,35.4866 160.707,33.9866 162.5,30.5 Z"/></g>
<g><path style="opacity:1" fill="#555e96" d="M 91.5,16.5 C 92.9778,16.238 94.3112,16.5713 95.5,17.5C 87.8689,18.6168 85.7022,22.6168 89,29.5C 91.3806,30.435 93.8806,30.7683 96.5,30.5C 96.5,28.8333 96.5,27.1667 96.5,25.5C 95.448,25.6495 94.448,25.4828 93.5,25C 94.9047,23.7308 96.5714,23.2308 98.5,23.5C 100.395,32.0765 97.0613,34.9098 88.5,32C 85.7352,29.0052 84.9019,25.5052 86,21.5C 87.3516,19.251 89.1849,17.5844 91.5,16.5 Z"/></g>
<g><path style="opacity:1" fill="#faed19" d="M 147.5,23.5 C 151.338,23.0072 153.338,24.6738 153.5,28.5C 152.948,35.0968 149.948,36.7635 144.5,33.5C 143.978,32.3926 143.645,31.2259 143.5,30C 144.205,27.4582 145.539,25.2916 147.5,23.5 Z"/></g>
<g><path style="opacity:1" fill="#4f5b97" d="M 74.5,21.5 C 82.6417,21.4807 85.8084,25.4807 84,33.5C 81.8216,35.9238 79.155,37.5905 76,38.5C 72.9315,34.865 70.7648,30.6984 69.5,26C 70.4299,23.5646 72.0966,22.0646 74.5,21.5 Z"/></g>
<g><path style="opacity:1" fill="#f7ea22" d="M 73.5,23.5 C 79.9445,23.1108 82.7779,26.1108 82,32.5C 80.6218,34.2134 78.9552,35.5467 77,36.5C 73.9766,32.5144 72.81,28.1811 73.5,23.5 Z"/></g>
<g><path style="opacity:1" fill="#5e6294" d="M 133.5,16.5 C 134.497,16.4701 135.164,16.9701 135.5,18C 134.853,23.0865 133.52,27.9199 131.5,32.5C 130.856,27.0527 131.523,21.7194 133.5,16.5 Z"/></g>
<g><path style="opacity:1" fill="#555e96" d="M 104.5,14.5 C 112.605,13.7715 116.105,17.4382 115,25.5C 112.774,29.8608 109.274,31.3608 104.5,30C 99.2215,24.8361 99.2215,19.6694 104.5,14.5 Z"/></g>
<g><path style="opacity:1" fill="#fbed16" d="M 105.5,16.5 C 111.997,16.1799 114.164,19.1799 112,25.5C 110.695,28.3064 108.528,29.1397 105.5,28C 102.864,24.0998 102.864,20.2665 105.5,16.5 Z"/></g>
<g><path style="opacity:1" fill="#646692" d="M 121.5,15.5 C 122.794,17.0478 123.461,19.0478 123.5,21.5C 123.941,25.1801 122.941,28.3468 120.5,31C 118.359,31.8837 116.693,31.3837 115.5,29.5C 117.045,28.5481 118.712,28.2148 120.5,28.5C 120.467,24.1311 120.8,19.7978 121.5,15.5 Z"/></g>
<g><path style="opacity:1" fill="#4e5a97" d="M 185.5,47.5 C 186.995,47.4148 187.995,48.0815 188.5,49.5C 186.262,54.5615 183.429,59.2282 180,63.5C 179.464,61.4328 179.964,59.5994 181.5,58C 180.299,57.0975 179.465,55.9308 179,54.5C 176.896,54.7078 174.73,54.7078 172.5,54.5C 176.701,51.8998 181.034,49.5665 185.5,47.5 Z"/></g>
<g><path style="opacity:1" fill="#e4d643" d="M 184.5,50.5 C 185.043,50.56 185.376,50.8933 185.5,51.5C 184.135,55.7822 182.135,56.2822 179.5,53C 181.315,52.2432 182.981,51.4098 184.5,50.5 Z"/></g>
<g><path style="opacity:0.004" fill="#000000" d="M 209.5,51.5 C 211.25,52.6594 212.25,54.326 212.5,56.5C 210.75,55.3406 209.75,53.674 209.5,51.5 Z"/></g>
<g><path style="opacity:1" fill="#505b97" d="M 40.5,45.5 C 46.3828,46.2735 51.7162,48.4401 56.5,52C 54.9775,53.3282 53.3108,53.1616 51.5,51.5C 47.2309,53.3502 46.5643,56.0168 49.5,59.5C 49.1667,59.8333 48.8333,60.1667 48.5,60.5C 44.5318,56.2323 41.8652,51.2323 40.5,45.5 Z"/></g>
<g><path style="opacity:1" fill="#eee035" d="M 43.5,49.5 C 45.1252,48.6749 46.7918,49.0082 48.5,50.5C 47.8551,51.646 47.0217,52.646 46,53.5C 45.3918,51.9336 44.5585,50.6002 43.5,49.5 Z"/></g>
<g><path style="opacity:0.004" fill="#000000" d="M 212.5,56.5 C 216.485,61.4731 219.152,67.1397 220.5,73.5C 217.597,68.0232 214.93,62.3565 212.5,56.5 Z"/></g>
<g><path style="opacity:1" fill="#535c97" d="M 193.5,56.5 C 196.728,59.069 198.728,62.4023 199.5,66.5C 194.449,65.9041 189.449,65.9041 184.5,66.5C 185.833,68.5 187.167,70.5 188.5,72.5C 188.167,72.8333 187.833,73.1667 187.5,73.5C 184.468,70.7655 182.468,67.4322 181.5,63.5C 186.511,63.6659 191.511,63.4993 196.5,63C 194.781,61.1295 193.781,58.9628 193.5,56.5 Z"/></g>
<g><path style="opacity:1" fill="#4a5898" d="M 33.5,53.5 C 34.4959,53.4142 35.3292,53.7476 36,54.5C 37.9442,58.7225 39.6108,63.0558 41,67.5C 42.6667,65.1667 44.3333,62.8333 46,60.5C 46.5,61 47,61.5 47.5,62C 45.3256,65.0036 42.9923,67.8369 40.5,70.5C 38.4247,65.7661 36.258,61.0995 34,56.5C 32.8333,58.3333 31.6667,60.1667 30.5,62C 29.6683,62.6877 29.0016,62.521 28.5,61.5C 30.1933,58.8159 31.86,56.1492 33.5,53.5 Z"/></g>
<g><path style="opacity:1" fill="#515c97" d="M 193.5,70.5 C 203.525,69.7314 206.525,73.8981 202.5,83C 193.818,87.5811 189.318,85.0811 189,75.5C 190.193,73.5029 191.693,71.8362 193.5,70.5 Z"/></g>
<g><path style="opacity:1" fill="#faed18" d="M 195.5,72.5 C 202.494,72.4149 204.161,75.2482 200.5,81C 197.97,82.4217 195.303,82.755 192.5,82C 191.196,81.196 190.529,80.0293 190.5,78.5C 191.465,75.8724 193.132,73.8724 195.5,72.5 Z"/></g>
<g><path style="opacity:0.006" fill="#000000" d="M 221.5,76.5 C 223.566,81.0306 225.232,85.6973 226.5,90.5C 226.5,93.1667 226.5,95.8333 226.5,98.5C 224.853,91.2832 223.187,83.9499 221.5,76.5 Z"/></g>
<g><path style="opacity:1" fill="#4d5a98" d="M 23.5,71.5 C 28.2217,73.4249 33.2217,74.9249 38.5,76C 35.7748,77.1074 32.9415,77.9408 30,78.5C 29.3333,79.1667 29.3333,79.8333 30,80.5C 31.586,81.376 33.086,82.376 34.5,83.5C 29.9923,83.4475 25.6589,82.1142 21.5,79.5C 20.3465,76.4469 21.0132,73.7803 23.5,71.5 Z"/></g>
<g><path style="opacity:1" fill="#f5e729" d="M 24.5,73.5 C 28.9195,74.0898 29.5862,76.0898 26.5,79.5C 22.2894,78.4441 21.6227,76.4441 24.5,73.5 Z"/></g>
<g><path style="opacity:1" fill="#545d96" d="M 21.5,86.5 C 25.5546,86.1758 29.5546,86.5091 33.5,87.5C 28.428,87.3976 26.5946,89.7309 28,94.5C 29.4866,95.1552 30.6533,96.1552 31.5,97.5C 30.635,98.5827 29.635,98.7494 28.5,98C 24.3612,95.3609 20.3612,92.5276 16.5,89.5C 17.9469,88.0652 19.6136,87.0652 21.5,86.5 Z"/></g>
<g><path style="opacity:1" fill="#f9ec1a" d="M 20.5,90.5 C 21.9187,89.5489 23.5853,89.2155 25.5,89.5C 25.719,90.675 25.3857,91.675 24.5,92.5C 23.3777,91.3698 22.0443,90.7031 20.5,90.5 Z"/></g>
<g><path style="opacity:1" fill="#565f96" d="M 205.5,84.5 C 206.675,84.281 207.675,84.6143 208.5,85.5C 204.668,88.2503 200.668,90.7503 196.5,93C 200.833,93.3333 205.167,93.6667 209.5,94C 209.957,94.414 210.291,94.914 210.5,95.5C 204.924,96.449 199.424,96.1157 194,94.5C 193.493,93.0039 193.993,91.8373 195.5,91C 199.069,89.0583 202.402,86.8916 205.5,84.5 Z"/></g>
<g><path style="opacity:1" fill="#565f95" d="M 15.5,95.5 C 17.256,96.5521 17.9227,98.2188 17.5,100.5C 21.9173,100.607 26.2506,101.274 30.5,102.5C 25.8442,103.569 21.1776,103.569 16.5,102.5C 16.762,103.978 16.4287,105.311 15.5,106.5C 14.2418,102.79 14.2418,99.123 15.5,95.5 Z"/></g>
<g><path style="opacity:1" fill="#515c97" d="M 195.5,99.5 C 215.533,100.729 216.366,104.729 198,111.5C 197.5,111.167 197,110.833 196.5,110.5C 200.066,108.804 201.066,106.137 199.5,102.5C 197.517,102.185 196.184,101.185 195.5,99.5 Z"/></g>
<g><path style="opacity:1" fill="#f0e231" d="M 202.5,103.5 C 208.391,103.605 208.725,104.605 203.5,106.5C 202.614,105.675 202.281,104.675 202.5,103.5 Z"/></g>
<g><path style="opacity:1" fill="#b6b7b0" d="M 11.5,76.5 C 1.39313,108.261 4.0598,138.928 19.5,168.5C 5.67098,148.099 0.504316,125.432 4,100.5C 4.93581,94.4462 6.10248,88.4462 7.5,82.5C 7.97467,79.787 9.30801,77.787 11.5,76.5 Z"/></g>
<g><path style="opacity:1" fill="#a9a075" d="M 21.5,110.5 C 23.9479,109.527 26.6146,109.194 29.5,109.5C 29.7373,110.791 29.404,111.791 28.5,112.5C 26.7211,110.656 24.3878,109.99 21.5,110.5 Z"/></g>
<g><path style="opacity:1" fill="#515b97" d="M 21.5,110.5 C 24.3878,109.99 26.7211,110.656 28.5,112.5C 25.5672,114.645 22.5672,116.812 19.5,119C 23.3113,118.917 26.6446,119.75 29.5,121.5C 24.0557,122.108 19.0557,121.442 14.5,119.5C 17.6809,117.163 21.0142,114.996 24.5,113C 20.789,112.825 17.1224,112.325 13.5,111.5C 16.0865,110.52 18.7531,110.187 21.5,110.5 Z"/></g>
<g><path style="opacity:0.009" fill="#000000" d="M -0.5,118.5 C 0.334461,125.737 1.50113,133.07 3,140.5C 17.3869,188.728 49.2203,217.395 98.5,226.5C 95.1667,226.5 91.8333,226.5 88.5,226.5C 42.2744,213.941 12.6078,184.608 -0.5,138.5C -0.5,131.833 -0.5,125.167 -0.5,118.5 Z"/></g>
<g><path style="opacity:1" fill="#8b8883" d="M 14.5,119.5 C 19.0557,121.442 24.0557,122.108 29.5,121.5C 24.3595,122.488 19.0262,122.821 13.5,122.5C 13.2627,121.209 13.596,120.209 14.5,119.5 Z"/></g>
<g><path style="opacity:1" fill="#4c5998" d="M 196.5,113.5 C 201.5,113.5 206.5,113.5 211.5,113.5C 211.762,114.978 211.429,116.311 210.5,117.5C 206.833,119.333 203.167,121.167 199.5,123C 203.541,123.173 207.541,123.673 211.5,124.5C 206.208,125.495 200.875,125.828 195.5,125.5C 195.33,124.178 195.663,123.011 196.5,122C 200.5,120 204.5,118 208.5,116C 204.044,116.102 200.044,115.268 196.5,113.5 Z"/></g>
<g><path style="opacity:1" fill="#575f95" d="M 29.5,123.5 C 30.6491,123.791 31.3158,124.624 31.5,126C 32.0767,128.137 32.41,130.304 32.5,132.5C 27.126,132.887 21.7926,133.554 16.5,134.5C 15.5508,131.792 15.5508,129.126 16.5,126.5C 17.0573,129.983 19.0573,131.65 22.5,131.5C 22.2011,129.396 22.5344,127.396 23.5,125.5C 24.4519,127.045 24.7852,128.712 24.5,130.5C 26.1667,130.5 27.8333,130.5 29.5,130.5C 29.5,128.167 29.5,125.833 29.5,123.5 Z"/></g>
<g><path style="opacity:0.005" fill="#000000" d="M 226.5,128.5 C 226.5,131.167 226.5,133.833 226.5,136.5C 225.141,141.266 223.474,145.933 221.5,150.5C 223.186,143.057 224.852,135.723 226.5,128.5 Z"/></g>
<g><path style="opacity:1" fill="#4f5b97" d="M 195.5,126.5 C 196.163,128.042 196.83,129.709 197.5,131.5C 201.746,132.225 205.746,133.558 209.5,135.5C 204.677,136.171 200.01,135.338 195.5,133C 194.232,130.837 194.232,128.67 195.5,126.5 Z"/></g>
<g><path style="opacity:1" fill="#4c5a98" d="M 192.5,136.5 C 197.5,137.833 202.5,139.167 207.5,140.5C 207.287,143.475 206.287,146.142 204.5,148.5C 203.949,146.587 203.782,144.587 204,142.5C 202.817,141.269 201.651,141.269 200.5,142.5C 200.023,143.931 199.357,145.264 198.5,146.5C 198.266,144.339 197.933,142.172 197.5,140C 196.056,139.219 194.723,139.386 193.5,140.5C 193.023,141.931 192.357,143.264 191.5,144.5C 191.167,144 190.833,143.5 190.5,143C 191.274,140.846 191.941,138.679 192.5,136.5 Z"/></g>
<g><path style="opacity:1" fill="#485799" d="M 31.5,133.5 C 34.3033,136.204 35.1366,139.537 34,143.5C 28.9244,148.756 23.9244,148.756 19,143.5C 18.2025,141.741 18.3691,140.074 19.5,138.5C 20.8764,145.059 24.5431,146.893 30.5,144C 33.1667,141 33.1667,138 30.5,135C 31.056,134.617 31.3893,134.117 31.5,133.5 Z"/></g>
<g><path style="opacity:0.004" fill="#000000" d="M 221.5,150.5 C 221.267,153.542 220.267,156.208 218.5,158.5C 218.733,155.458 219.733,152.792 221.5,150.5 Z"/></g>
<g><path style="opacity:0.004" fill="#000000" d="M 206.5,179.5 C 206.573,181.027 205.906,182.027 204.5,182.5C 204.427,180.973 205.094,179.973 206.5,179.5 Z"/></g>
<g><path style="opacity:1" fill="#cecfcc" d="M 100.5,37.5 C 137.914,33.9527 165.414,48.6194 183,81.5C 197.087,119.185 188.587,150.685 157.5,176C 129.526,193.149 101.193,193.816 72.5,178C 39.2022,152.993 29.7022,120.826 44,81.5C 55.9395,57.8019 74.7728,43.1353 100.5,37.5 Z"/></g>
<g><path style="opacity:1" fill="#f9f8f7" d="M 108.5,40.5 C 116.196,40.515 123.862,41.015 131.5,42C 138.198,45.9029 145.198,49.2362 152.5,52C 156.428,55.9689 160.761,59.4689 165.5,62.5C 169.685,66.8526 172.852,71.8526 175,77.5C 178.239,79.6355 180.239,82.6355 181,86.5C 185.745,101.644 186.578,116.977 183.5,132.5C 180.723,138.387 178.223,144.387 176,150.5C 172.695,153.095 170.361,156.429 169,160.5C 165.445,163.302 162.112,166.302 159,169.5C 158.517,170.448 158.351,171.448 158.5,172.5C 148.458,176.348 138.458,180.515 128.5,185C 111.072,188.646 94.7387,185.979 79.5,177C 74.6152,176.568 70.2819,174.902 66.5,172C 61.8012,166.546 57.3012,161.046 53,155.5C 49.3302,148.826 45.6635,142.16 42,135.5C 39.7384,124.935 39.0717,114.268 40,103.5C 42.1984,94.3756 44.865,85.3756 48,76.5C 54.8152,69.3459 61.3152,61.8459 67.5,54C 75.7059,50.0642 84.0392,46.3975 92.5,43C 97.988,42.2259 103.321,41.3925 108.5,40.5 Z"/></g>
<g><path style="opacity:1" fill="#e9dc44" d="M 119.5,164.5 C 119.5,165.167 119.167,165.5 118.5,165.5C 115.845,164.533 115.178,162.867 116.5,160.5C 115.833,159.5 115.167,158.5 114.5,157.5C 114.833,157.167 115.167,156.833 115.5,156.5C 116.719,157.646 118.052,158.646 119.5,159.5C 118.265,161.316 118.265,162.983 119.5,164.5 Z"/></g>
<g><path style="opacity:1" fill="#2b2722" d="M 135.5,160.5 C 135.856,162.19 136.856,163.19 138.5,163.5C 140.605,167.977 139.272,169.81 134.5,169C 133.929,167.795 133.262,166.628 132.5,165.5C 130.149,167.229 127.482,167.896 124.5,167.5C 124.348,171.487 122.348,172.987 118.5,172C 117.944,171.617 117.611,171.117 117.5,170.5C 117.5,169.167 117.5,167.833 117.5,166.5C 118.167,166.5 118.5,166.167 118.5,165.5C 119.167,165.5 119.5,165.167 119.5,164.5C 119.5,164.167 119.5,163.833 119.5,163.5C 120.9,162.9 121.9,161.9 122.5,160.5C 126.848,159.246 131.182,159.246 135.5,160.5 Z"/></g>
<g><path style="opacity:1" fill="#f3f2ed" d="M 107.5,158.5 C 109.305,159.237 110.971,160.237 112.5,161.5C 111.476,162.852 110.476,164.185 109.5,165.5C 107.656,163.721 106.99,161.388 107.5,158.5 Z"/></g>
<g><path style="opacity:1" fill="#cec7a3" d="M 119.5,163.5 C 119.5,163.833 119.5,164.167 119.5,164.5C 118.265,162.983 118.265,161.316 119.5,159.5C 118.052,158.646 116.719,157.646 115.5,156.5C 115.167,156.833 114.833,157.167 114.5,157.5C 115.167,158.5 115.833,159.5 116.5,160.5C 115.178,162.867 115.845,164.533 118.5,165.5C 118.5,166.167 118.167,166.5 117.5,166.5C 115.347,167.573 113.347,167.573 111.5,166.5C 115.636,162.227 114.969,158.727 109.5,156C 112.833,155.333 116.167,155.333 119.5,156C 120.779,158.498 120.779,160.998 119.5,163.5 Z"/></g>
<g><path style="opacity:1" fill="#448051" d="M 146.5,154.5 C 147.833,154.5 149.167,154.5 150.5,154.5C 151.912,156.23 151.578,157.73 149.5,159C 145.848,159.499 142.182,159.665 138.5,159.5C 138.157,157.517 138.824,156.183 140.5,155.5C 141.15,155.804 141.817,156.137 142.5,156.5C 143.622,155.37 144.956,154.703 146.5,154.5 Z"/></g>
<g><path style="opacity:1" fill="#f0e232" d="M 114.5,152.5 C 116.114,154.075 118.114,154.741 120.5,154.5C 122.308,155.918 122.975,157.918 122.5,160.5C 121.9,161.9 120.9,162.9 119.5,163.5C 120.779,160.998 120.779,158.498 119.5,156C 116.167,155.333 112.833,155.333 109.5,156C 114.969,158.727 115.636,162.227 111.5,166.5C 110.508,166.672 109.842,166.338 109.5,165.5C 110.476,164.185 111.476,162.852 112.5,161.5C 110.971,160.237 109.305,159.237 107.5,158.5C 106.962,156.883 106.629,155.216 106.5,153.5C 108.92,153.292 111.253,153.626 113.5,154.5C 114.298,154.043 114.631,153.376 114.5,152.5 Z"/></g>
<g><path style="opacity:1" fill="#72c8ea" d="M 69.5,154.5 C 71.8056,154.993 74.139,155.326 76.5,155.5C 76.7733,157.451 76.1066,158.951 74.5,160C 71.5184,160.498 68.5184,160.665 65.5,160.5C 65.6574,157.682 66.9908,155.682 69.5,154.5 Z"/></g>
<g><path style="opacity:1" fill="#828485" d="M 96.5,142.5 C 96.8333,142.5 97.1667,142.5 97.5,142.5C 102.797,143.275 108.13,143.608 113.5,143.5C 114.299,146.43 114.632,149.43 114.5,152.5C 114.631,153.376 114.298,154.043 113.5,154.5C 111.253,153.626 108.92,153.292 106.5,153.5C 106.629,155.216 106.962,156.883 107.5,158.5C 106.99,161.388 107.656,163.721 109.5,165.5C 109.842,166.338 110.508,166.672 111.5,166.5C 113.347,167.573 115.347,167.573 117.5,166.5C 117.5,167.833 117.5,169.167 117.5,170.5C 112.959,171.231 108.959,170.231 105.5,167.5C 93.4217,175.803 85.4217,172.803 81.5,158.5C 82.3745,154.213 82.7079,149.879 82.5,145.5C 85.1667,145.5 87.8333,145.5 90.5,145.5C 88.3926,146.468 86.0593,146.802 83.5,146.5C 83.3359,149.187 83.5026,151.854 84,154.5C 86.3533,149.737 90.1866,147.071 95.5,146.5C 96.4287,145.311 96.762,143.978 96.5,142.5 Z"/></g>
<g><path style="opacity:1" fill="#f1f0ea" d="M 97.5,167.5 C 95.8333,168.833 94.1667,168.833 92.5,167.5C 94.1667,162.167 95.8333,162.167 97.5,167.5 Z"/></g>
<g><path style="opacity:1" fill="#f4f3ed" d="M 102.5,160.5 C 102.741,162.898 102.074,164.898 100.5,166.5C 99.2599,165.027 98.2599,163.36 97.5,161.5C 99.0453,160.548 100.712,160.215 102.5,160.5 Z"/></g>
<g><path style="opacity:1" fill="#9bcee3" d="M 87.5,156.5 C 92.831,158.485 93.831,161.819 90.5,166.5C 87.0834,163.915 86.0834,160.582 87.5,156.5 Z"/></g>
<g><path style="opacity:1" fill="#d3c66a" d="M 94.5,151.5 C 95.5,151.5 96.5,151.5 97.5,151.5C 97.5,153.833 97.5,156.167 97.5,158.5C 99.6208,158.675 101.621,158.341 103.5,157.5C 103.443,158.609 103.11,159.609 102.5,160.5C 100.712,160.215 99.0453,160.548 97.5,161.5C 98.2599,163.36 99.2599,165.027 100.5,166.5C 99.791,167.404 98.791,167.737 97.5,167.5C 95.8333,162.167 94.1667,162.167 92.5,167.5C 91.5084,167.672 90.8417,167.338 90.5,166.5C 93.831,161.819 92.831,158.485 87.5,156.5C 87.8333,155.5 88.5,154.833 89.5,154.5C 90.6697,156.279 92.3364,157.279 94.5,157.5C 94.5,155.5 94.5,153.5 94.5,151.5 Z"/></g>
<g><path style="opacity:1" fill="#f3f2ec" d="M 97.5,151.5 C 100.5,152.5 102.5,154.5 103.5,157.5C 101.621,158.341 99.6208,158.675 97.5,158.5C 97.5,156.167 97.5,153.833 97.5,151.5 Z"/></g>
<g><path style="opacity:1" fill="#f3f2ed" d="M 94.5,151.5 C 94.5,153.5 94.5,155.5 94.5,157.5C 92.3364,157.279 90.6697,156.279 89.5,154.5C 90.2998,152.259 91.9664,151.259 94.5,151.5 Z"/></g>
<g><path style="opacity:1" fill="#f0f0ef" d="M 146.5,154.5 C 144.956,154.703 143.622,155.37 142.5,156.5C 141.817,156.137 141.15,155.804 140.5,155.5C 139.597,152.609 139.264,149.609 139.5,146.5C 141.833,146.5 144.167,146.5 146.5,146.5C 146.5,149.167 146.5,151.833 146.5,154.5 Z"/></g>
<g><path style="opacity:1" fill="#d3cf8f" d="M 132.5,134.5 C 133.833,134.5 135.167,134.5 136.5,134.5C 135.913,138.071 135.913,141.737 136.5,145.5C 141.167,145.5 145.833,145.5 150.5,145.5C 150.5,148.5 150.5,151.5 150.5,154.5C 149.167,154.5 147.833,154.5 146.5,154.5C 146.5,151.833 146.5,149.167 146.5,146.5C 144.167,146.5 141.833,146.5 139.5,146.5C 139.264,149.609 139.597,152.609 140.5,155.5C 138.824,156.183 138.157,157.517 138.5,159.5C 138.5,160.833 138.5,162.167 138.5,163.5C 136.856,163.19 135.856,162.19 135.5,160.5C 135.5,156.167 135.5,151.833 135.5,147.5C 134.985,143.547 132.652,141.381 128.5,141C 130.577,140.808 132.577,140.308 134.5,139.5C 133.23,138.712 132.23,137.712 131.5,136.5C 131.833,135.833 132.167,135.167 132.5,134.5 Z"/></g>
<g><path style="opacity:1" fill="#b9ac6b" d="M 115.5,141.5 C 116.404,142.209 116.737,143.209 116.5,144.5C 116.337,146.857 116.503,149.19 117,151.5C 118.518,152.163 119.685,153.163 120.5,154.5C 118.114,154.741 116.114,154.075 114.5,152.5C 114.632,149.43 114.299,146.43 113.5,143.5C 114.167,142.833 114.833,142.167 115.5,141.5 Z"/></g>
<g><path style="opacity:1" fill="#e42625" d="M 120.5,143.5 C 125.939,143.442 130.939,144.775 135.5,147.5C 135.5,151.833 135.5,156.167 135.5,160.5C 131.182,159.246 126.848,159.246 122.5,160.5C 122.975,157.918 122.308,155.918 120.5,154.5C 119.685,153.163 118.518,152.163 117,151.5C 116.503,149.19 116.337,146.857 116.5,144.5C 117.833,144.167 119.167,143.833 120.5,143.5 Z"/></g>
<g><path style="opacity:1" fill="#6f6d66" d="M 131.5,136.5 C 132.23,137.712 133.23,138.712 134.5,139.5C 132.577,140.308 130.577,140.808 128.5,141C 132.652,141.381 134.985,143.547 135.5,147.5C 130.939,144.775 125.939,143.442 120.5,143.5C 120.461,142.417 120.127,141.417 119.5,140.5C 123.812,139.986 127.812,138.652 131.5,136.5 Z"/></g>
<g><path style="opacity:1" fill="#bbb794" d="M 115.5,141.5 C 114.833,142.167 114.167,142.833 113.5,143.5C 112.167,142.833 110.833,142.167 109.5,141.5C 110.836,139.99 112.003,138.323 113,136.5C 114.883,137.653 115.716,139.319 115.5,141.5 Z"/></g>
<g><path style="opacity:1" fill="#363632" d="M 99.5,132.5 C 98.3511,135.041 98.3511,137.541 99.5,140C 102.688,141.316 106.022,141.816 109.5,141.5C 110.833,142.167 112.167,142.833 113.5,143.5C 108.13,143.608 102.797,143.275 97.5,142.5C 97.5,140.5 97.5,138.5 97.5,136.5C 97.3433,135.127 97.51,133.793 98,132.5C 98.69,131.262 99.19,131.262 99.5,132.5 Z"/></g>
<g><path style="opacity:1" fill="#e7e6d7" d="M 93.5,129.5 C 95.1349,133.573 96.1349,137.906 96.5,142.5C 96.762,143.978 96.4287,145.311 95.5,146.5C 90.1866,147.071 86.3533,149.737 84,154.5C 83.5026,151.854 83.3359,149.187 83.5,146.5C 86.0593,146.802 88.3926,146.468 90.5,145.5C 90.4343,140.8 90.6009,135.8 91,130.5C 91.6708,129.748 92.5041,129.414 93.5,129.5 Z"/></g>
<g><path style="opacity:1" fill="#f6e91f" d="M 93.5,127.5 C 94.5,127.5 95.5,127.5 96.5,127.5C 96.19,130.713 96.5233,133.713 97.5,136.5C 97.5,138.5 97.5,140.5 97.5,142.5C 97.1667,142.5 96.8333,142.5 96.5,142.5C 96.1349,137.906 95.1349,133.573 93.5,129.5C 93.5,128.833 93.5,128.167 93.5,127.5 Z"/></g>
<g><path style="opacity:1" fill="#22615b" d="M 72.5,127.5 C 77.8387,130.165 83.172,130.165 88.5,127.5C 90.1667,127.5 91.8333,127.5 93.5,127.5C 93.5,128.167 93.5,128.833 93.5,129.5C 92.5041,129.414 91.6708,129.748 91,130.5C 90.6009,135.8 90.4343,140.8 90.5,145.5C 87.8333,145.5 85.1667,145.5 82.5,145.5C 80.8031,143.695 79.9698,141.361 80,138.5C 80.1631,141.87 78.6631,143.87 75.5,144.5C 73.027,144.299 70.6936,143.632 68.5,142.5C 70.2556,137.574 71.5889,132.574 72.5,127.5 Z"/></g>
<g><path style="opacity:1" fill="#8dc344" d="M 143.5,126.5 C 143.641,129.48 145.141,131.48 148,132.5C 149.731,131.259 151.564,130.259 153.5,129.5C 155.075,134.269 156.075,139.269 156.5,144.5C 154.5,144.833 152.5,145.167 150.5,145.5C 145.833,145.5 141.167,145.5 136.5,145.5C 135.913,141.737 135.913,138.071 136.5,134.5C 135.167,134.5 133.833,134.5 132.5,134.5C 129.72,133.922 127.053,133.255 124.5,132.5C 126.5,132.5 128.5,132.5 130.5,132.5C 130.433,131.041 130.766,129.708 131.5,128.5C 135.014,131.243 138.348,131.076 141.5,128C 140.944,127.617 140.611,127.117 140.5,126.5C 141.472,123.902 142.472,123.902 143.5,126.5 Z"/></g>
<g><path style="opacity:1" fill="#f9ec17" d="M 106.5,123.5 C 108.436,124.259 110.269,125.259 112,126.5C 113.507,125.445 115.007,124.445 116.5,123.5C 118.932,126.688 121.599,129.688 124.5,132.5C 127.053,133.255 129.72,133.922 132.5,134.5C 132.167,135.167 131.833,135.833 131.5,136.5C 127.812,138.652 123.812,139.986 119.5,140.5C 120.127,141.417 120.461,142.417 120.5,143.5C 119.167,143.833 117.833,144.167 116.5,144.5C 116.737,143.209 116.404,142.209 115.5,141.5C 115.716,139.319 114.883,137.653 113,136.5C 112.003,138.323 110.836,139.99 109.5,141.5C 106.022,141.816 102.688,141.316 99.5,140C 98.3511,137.541 98.3511,135.041 99.5,132.5C 101.482,129.19 103.815,126.19 106.5,123.5 Z"/></g>
<g><path style="opacity:1" fill="#e4e1cc" d="M 91.5,119.5 C 95.85,122.839 100.85,124.173 106.5,123.5C 103.815,126.19 101.482,129.19 99.5,132.5C 99.19,131.262 98.69,131.262 98,132.5C 97.51,133.793 97.3433,135.127 97.5,136.5C 96.5233,133.713 96.19,130.713 96.5,127.5C 95.5,127.5 94.5,127.5 93.5,127.5C 91.8333,127.5 90.1667,127.5 88.5,127.5C 90.1025,125.113 91.1025,122.446 91.5,119.5 Z"/></g>
<g><path style="opacity:1" fill="#c0c996" d="M 145.5,122.5 C 145.771,124.38 145.104,125.713 143.5,126.5C 142.472,123.902 141.472,123.902 140.5,126.5C 138.787,125.365 138.12,123.698 138.5,121.5C 140.961,120.695 143.294,121.028 145.5,122.5 Z"/></g>
<g><path style="opacity:1" fill="#8cc341" d="M 146.5,117.5 C 146.784,119.415 146.451,121.081 145.5,122.5C 143.294,121.028 140.961,120.695 138.5,121.5C 137.147,119.872 137.481,118.538 139.5,117.5C 141.785,116.454 144.118,116.454 146.5,117.5 Z"/></g>
<g><path style="opacity:1" fill="#367e49" d="M 153.5,129.5 C 151.564,130.259 149.731,131.259 148,132.5C 145.141,131.48 143.641,129.48 143.5,126.5C 145.104,125.713 145.771,124.38 145.5,122.5C 146.451,121.081 146.784,119.415 146.5,117.5C 147.427,115.524 148.76,115.191 150.5,116.5C 153.038,120.462 154.038,124.796 153.5,129.5 Z"/></g>
<g><path style="opacity:1" fill="#397f4a" d="M 139.5,117.5 C 137.481,118.538 137.147,119.872 138.5,121.5C 138.12,123.698 138.787,125.365 140.5,126.5C 140.611,127.117 140.944,127.617 141.5,128C 138.348,131.076 135.014,131.243 131.5,128.5C 131.095,122.98 133.095,118.647 137.5,115.5C 138.522,115.855 139.189,116.522 139.5,117.5 Z"/></g>
<g><path style="opacity:1" fill="#6a5e54" d="M 108.5,107.5 C 108.548,109.833 108.215,112.166 107.5,114.5C 106.833,114.5 106.167,114.5 105.5,114.5C 103.97,113.789 102.637,112.789 101.5,111.5C 103.036,108.215 105.369,106.881 108.5,107.5 Z"/></g>
<g><path style="opacity:1" fill="#78bbd3" d="M 78.5,104.5 C 78.8656,105.695 79.699,106.361 81,106.5C 82.3957,105.606 83.8957,104.939 85.5,104.5C 86.4164,104.543 87.0831,104.876 87.5,105.5C 84.9437,106.378 82.6104,107.711 80.5,109.5C 79.1861,108.687 78.0195,107.687 77,106.5C 75.0329,112.115 73.5329,117.782 72.5,123.5C 72.6283,120.487 71.6283,117.987 69.5,116C 71.211,111.038 74.211,107.205 78.5,104.5 Z"/></g>
<g><path style="opacity:1" fill="#ddd2ab" d="M 122.5,107.5 C 123.218,109.137 123.384,110.803 123,112.5C 120.81,116.222 118.644,119.889 116.5,123.5C 115.007,124.445 113.507,125.445 112,126.5C 110.269,125.259 108.436,124.259 106.5,123.5C 102.547,121.053 98.7134,118.387 95,115.5C 94.5065,113.866 94.3398,112.199 94.5,110.5C 96.1238,110.36 97.2904,111.027 98,112.5C 99.0113,111.663 100.178,111.33 101.5,111.5C 102.637,112.789 103.97,113.789 105.5,114.5C 102.974,116.202 103.141,117.868 106,119.5C 108.611,118.5 109.111,116.833 107.5,114.5C 108.215,112.166 108.548,109.833 108.5,107.5C 111.559,105.603 113.726,102.936 115,99.5C 115.333,100.167 115.667,100.833 116,101.5C 116.29,99.9559 116.956,98.6226 118,97.5C 120.528,100 121.361,102.834 120.5,106C 121.044,106.717 121.711,107.217 122.5,107.5 Z"/></g>
<g><path style="opacity:1" fill="#f3756e" d="M 105.5,114.5 C 106.167,114.5 106.833,114.5 107.5,114.5C 109.111,116.833 108.611,118.5 106,119.5C 103.141,117.868 102.974,116.202 105.5,114.5 Z"/></g>
<g><path style="opacity:1" fill="#0e0d0b" d="M 118.5,106.5 C 119.788,108.035 119.788,109.701 118.5,111.5C 117.334,109.833 117.334,108.166 118.5,106.5 Z"/></g>
<g><path style="opacity:1" fill="#c14a34" d="M 92.5,102.5 C 93.0479,105.544 93.7146,108.211 94.5,110.5C 94.3398,112.199 94.5065,113.866 95,115.5C 98.7134,118.387 102.547,121.053 106.5,123.5C 100.85,124.173 95.85,122.839 91.5,119.5C 90.6864,114.881 90.3531,110.214 90.5,105.5C 91.1667,104.5 91.8333,103.5 92.5,102.5 Z"/></g>
<g><path style="opacity:1" fill="#29b2ad" d="M 87.5,105.5 C 88.5,105.5 89.5,105.5 90.5,105.5C 90.3531,110.214 90.6864,114.881 91.5,119.5C 91.1025,122.446 90.1025,125.113 88.5,127.5C 83.172,130.165 77.8387,130.165 72.5,127.5C 72.5,126.167 72.5,124.833 72.5,123.5C 73.5329,117.782 75.0329,112.115 77,106.5C 78.0195,107.687 79.1861,108.687 80.5,109.5C 82.6104,107.711 84.9437,106.378 87.5,105.5 Z"/></g>
<g><path style="opacity:1" fill="#c4c47a" d="M 168.5,90.5 C 168.657,91.8734 168.49,93.2068 168,94.5C 163.578,96.1979 161.911,99.1979 163,103.5C 162.241,105.063 161.074,106.063 159.5,106.5C 161.233,102.518 161.567,98.5181 160.5,94.5C 161.15,94.8039 161.817,95.1373 162.5,95.5C 165.141,94.4904 167.141,92.8237 168.5,90.5 Z"/></g>
<g><path style="opacity:1" fill="#e02d28" d="M 115.5,90.5 C 118.447,91.7805 120.781,93.7805 122.5,96.5C 123.833,100.167 123.833,103.833 122.5,107.5C 121.711,107.217 121.044,106.717 120.5,106C 121.361,102.834 120.528,100 118,97.5C 116.956,98.6226 116.29,99.9559 116,101.5C 115.667,100.833 115.333,100.167 115,99.5C 113.726,102.936 111.559,105.603 108.5,107.5C 105.369,106.881 103.036,108.215 101.5,111.5C 100.178,111.33 99.0113,111.663 98,112.5C 97.2904,111.027 96.1238,110.36 94.5,110.5C 93.7146,108.211 93.0479,105.544 92.5,102.5C 94.8749,97.9754 98.2083,94.3087 102.5,91.5C 106.824,91.0728 111.158,90.7395 115.5,90.5 Z"/></g>
<g><path style="opacity:1" fill="#ebe8b7" d="M 157.5,109.5 C 153.586,113.366 148.753,115.033 143,114.5C 139.43,114.456 135.93,113.956 132.5,113C 130.574,112.578 129.574,111.411 129.5,109.5C 127.913,105.977 127.413,102.31 128,98.5C 132.716,95.4513 136.382,91.4513 139,86.5C 141.575,89.7262 143.075,93.3929 143.5,97.5C 148.066,98.1842 152.733,98.3509 157.5,98C 158.432,102.078 158.432,105.911 157.5,109.5 Z"/></g>
<g><path style="opacity:1" fill="#8ebf47" d="M 158.5,77.5 C 158.038,82.8039 160.372,85.1372 165.5,84.5C 167.801,85.0604 170.134,85.5604 172.5,86C 170.959,87.3712 169.625,88.8712 168.5,90.5C 167.141,92.8237 165.141,94.4904 162.5,95.5C 161.817,95.1373 161.15,94.8039 160.5,94.5C 159.639,92.6137 158.639,90.7804 157.5,89C 153.809,86.7763 150.142,84.943 146.5,83.5C 150.046,80.2393 153.879,77.2393 158,74.5C 158.483,75.448 158.649,76.448 158.5,77.5 Z"/></g>
<g><path style="opacity:1" fill="#fcef0d" d="M 146.5,83.5 C 150.142,84.943 153.809,86.7763 157.5,89C 158.639,90.7804 159.639,92.6137 160.5,94.5C 161.567,98.5181 161.233,102.518 159.5,106.5C 158.833,107.5 158.167,108.5 157.5,109.5C 158.432,105.911 158.432,102.078 157.5,98C 152.733,98.3509 148.066,98.1842 143.5,97.5C 143.075,93.3929 141.575,89.7262 139,86.5C 136.382,91.4513 132.716,95.4513 128,98.5C 127.413,102.31 127.913,105.977 129.5,109.5C 127.864,108.251 126.697,106.584 126,104.5C 125.667,101.167 125.333,97.8333 125,94.5C 124.583,95.756 123.75,96.4226 122.5,96.5C 120.781,93.7805 118.447,91.7805 115.5,90.5C 115.389,89.8826 115.056,89.3826 114.5,89C 115.249,87.2663 115.749,85.433 116,83.5C 118.547,82.5266 120.047,80.6933 120.5,78C 122.01,77.1502 123.51,76.3169 125,75.5C 126.766,76.2335 128.599,76.5668 130.5,76.5C 130.167,79.5 131.5,80.8333 134.5,80.5C 134.5,81.8333 134.5,83.1667 134.5,84.5C 138.466,83.8379 142.466,83.5045 146.5,83.5 Z"/></g>
<g><path style="opacity:1" fill="#1c1c1a" d="M 149.5,103.5 C 151.857,103.337 154.19,103.503 156.5,104C 155.953,104.925 155.287,105.758 154.5,106.5C 152.556,105.811 150.556,105.311 148.5,105C 149.056,104.617 149.389,104.117 149.5,103.5 Z"/></g>
<g><path style="opacity:1" fill="#282724" d="M 130.5,104.5 C 134.014,102.978 137.347,103.478 140.5,106C 137.142,105.925 133.808,105.425 130.5,104.5 Z"/></g>
<g><path style="opacity:1" fill="#b49770" d="M 81.5,82.5 C 80.3991,83.5983 79.0657,83.765 77.5,83C 78.6956,82.3457 78.6956,81.8457 77.5,81.5C 73.825,82.7446 70.4917,84.4112 67.5,86.5C 67.5,86.1667 67.5,85.8333 67.5,85.5C 68.3138,83.369 68.8138,81.0356 69,78.5C 70.6477,80.0284 72.6477,80.6951 75,80.5C 77.3523,80.6951 79.3523,80.0284 81,78.5C 80.6692,80.0187 80.8359,81.352 81.5,82.5 Z"/></g>
<g><path style="opacity:1" fill="#fdef0c" d="M 158.5,77.5 C 160.315,78.6298 162.315,79.2964 164.5,79.5C 164.366,81.2915 164.699,82.9582 165.5,84.5C 160.372,85.1372 158.038,82.8039 158.5,77.5 Z"/></g>
<g><path style="opacity:1" fill="#e6e2bc" d="M 101.5,85.5 C 101.205,87.7354 101.539,89.7354 102.5,91.5C 98.2083,94.3087 94.8749,97.9754 92.5,102.5C 91.8333,103.5 91.1667,104.5 90.5,105.5C 89.5,105.5 88.5,105.5 87.5,105.5C 87.0831,104.876 86.4164,104.543 85.5,104.5C 83.8957,104.939 82.3957,105.606 81,106.5C 79.699,106.361 78.8656,105.695 78.5,104.5C 78.5,103.5 78.5,102.5 78.5,101.5C 70.3499,99.4014 66.6833,94.4014 67.5,86.5C 70.4917,84.4112 73.825,82.7446 77.5,81.5C 78.6956,81.8457 78.6956,82.3457 77.5,83C 79.0657,83.765 80.3991,83.5983 81.5,82.5C 83.1868,80.8338 85.1868,79.5005 87.5,78.5C 88.5836,77.3349 89.4169,76.0016 90,74.5C 90.0827,79.0557 92.2494,81.7224 96.5,82.5C 96.3379,84.5273 96.5045,86.5273 97,88.5C 98.2708,87.1175 99.7708,86.1175 101.5,85.5 Z"/></g>
<g><path style="opacity:1" fill="#1d1e1d" d="M 73.5,85.5 C 77.35,85.7007 78.35,87.5341 76.5,91C 75.552,91.4828 74.552,91.6495 73.5,91.5C 73.5,89.5 73.5,87.5 73.5,85.5 Z"/></g>
<g><path style="opacity:1" fill="#c47b34" d="M 101.5,85.5 C 99.7708,86.1175 98.2708,87.1175 97,88.5C 96.5045,86.5273 96.3379,84.5273 96.5,82.5C 92.2494,81.7224 90.0827,79.0557 90,74.5C 89.4169,76.0016 88.5836,77.3349 87.5,78.5C 85.1868,79.5005 83.1868,80.8338 81.5,82.5C 80.8359,81.352 80.6692,80.0187 81,78.5C 79.3523,80.0284 77.3523,80.6951 75,80.5C 72.6477,80.6951 70.6477,80.0284 69,78.5C 68.8138,81.0356 68.3138,83.369 67.5,85.5C 66.4111,82.2849 64.9111,79.2849 63,76.5C 62.3333,75.5 62.3333,74.5 63,73.5C 63.3333,73.8333 63.6667,74.1667 64,74.5C 65.6667,72.8333 67.3333,71.1667 69,69.5C 68.8047,67.8739 68.8047,66.2072 69,64.5C 71.7902,66.8311 74.6235,66.6645 77.5,64C 76.3044,63.3457 76.3044,62.8457 77.5,62.5C 81.7644,62.7692 86.0977,62.9359 90.5,63C 92.4429,66.3324 93.6095,66.1658 94,62.5C 95.0437,63.6226 95.7104,64.9559 96,66.5C 96.3333,65.8333 96.6667,65.1667 97,64.5C 97.6838,65.7839 97.5171,66.9505 96.5,68C 99,69.1667 100.833,71 102,73.5C 102.694,77.554 102.527,81.554 101.5,85.5 Z"/></g>
<g><path style="opacity:1" fill="#5b6394" d="M 165.5,186.5 C 166.397,187.598 167.23,187.598 168,186.5C 168.374,187.416 168.874,188.25 169.5,189C 168.874,189.75 168.374,190.584 168,191.5C 166.992,191.018 165.825,190.852 164.5,191C 164.214,189.612 164.548,188.112 165.5,186.5 Z"/></g>
<g><path style="opacity:1" fill="#566294" d="M 59.5,187.5 C 60.397,188.598 61.2303,188.598 62,187.5C 62.3742,188.416 62.8742,189.25 63.5,190C 62.8742,190.75 62.3742,191.584 62,192.5C 61.3333,191.167 60.6667,191.167 60,192.5C 59.6258,191.584 59.1258,190.75 58.5,190C 59.2524,189.329 59.5858,188.496 59.5,187.5 Z"/></g>
<g><path style="opacity:0.004" fill="#000000" d="M 198.5,189.5 C 196.833,193.167 194.167,195.833 190.5,197.5C 192.833,194.5 195.5,191.833 198.5,189.5 Z"/></g>
<g><path style="opacity:1" fill="#596095" d="M 72.5,187.5 C 78.8639,188.68 82.0305,192.347 82,198.5C 79.5647,203.224 75.7314,204.724 70.5,203C 69.5838,202.626 68.7504,202.126 68,201.5C 69.1589,196.818 70.6589,192.152 72.5,187.5 Z"/></g>
<g><path style="opacity:1" fill="#f9ec1d" d="M 73.5,190.5 C 79.0226,190.562 80.856,193.229 79,198.5C 78.6258,199.416 78.1258,200.25 77.5,201C 74.6213,201.874 71.9546,201.54 69.5,200C 71.5177,197.111 72.8511,193.945 73.5,190.5 Z"/></g>
<g><path style="opacity:1" fill="#596095" d="M 100.5,195.5 C 104.639,194.903 107.639,196.403 109.5,200C 109.05,201.285 108.383,202.452 107.5,203.5C 109.364,210.305 106.697,212.971 99.5,211.5C 99.3243,206.12 99.6576,200.787 100.5,195.5 Z"/></g>
<g><path style="opacity:1" fill="#596095" d="M 112.5,196.5 C 115.187,196.336 117.854,196.503 120.5,197C 123.319,199.72 122.986,202.053 119.5,204C 122.132,206.066 122.799,208.566 121.5,211.5C 120.194,210.088 119.36,208.421 119,206.5C 117.989,205.663 116.822,205.33 115.5,205.5C 115.5,207.5 115.5,209.5 115.5,211.5C 114.5,211.5 113.5,211.5 112.5,211.5C 112.5,206.5 112.5,201.5 112.5,196.5 Z"/></g>
<g><path style="opacity:1" fill="#4f5b97" d="M 86.5,192.5 C 87.4972,192.47 88.1639,192.97 88.5,194C 86.9554,198 86.6221,202 87.5,206C 89.1124,206.72 90.6124,206.554 92,205.5C 93.308,202.27 94.308,198.936 95,195.5C 95.8928,194.289 96.7261,194.289 97.5,195.5C 96.3546,198.748 95.5213,202.081 95,205.5C 91.952,209.01 88.6187,209.343 85,206.5C 84.3491,201.707 84.8491,197.041 86.5,192.5 Z"/></g>
<g><path style="opacity:1" fill="#4c5b98" d="M 150.5,187.5 C 155.085,190.414 159.085,194.08 162.5,198.5C 162.167,198.833 161.833,199.167 161.5,199.5C 156.51,195.485 153.51,196.819 152.5,203.5C 150.597,198.196 149.93,192.863 150.5,187.5 Z"/></g>
<g><path style="opacity:1" fill="#efe132" d="M 152.5,191.5 C 156.483,193.268 156.816,194.935 153.5,196.5C 152.548,194.955 152.215,193.288 152.5,191.5 Z"/></g>
<g><path style="opacity:1" fill="#f9eb1b" d="M 102.5,197.5 C 105.764,197.726 106.764,199.226 105.5,202C 104.552,202.483 103.552,202.649 102.5,202.5C 102.5,200.833 102.5,199.167 102.5,197.5 Z"/></g>
<g><path style="opacity:1" fill="#f0e232" d="M 114.5,198.5 C 116.167,198.5 117.833,198.5 119.5,198.5C 120.167,202.5 118.5,204.167 114.5,203.5C 114.5,201.833 114.5,200.167 114.5,198.5 Z"/></g>
<g><path style="opacity:1" fill="#565e96" d="M 127.5,195.5 C 129.39,195.297 130.89,195.963 132,197.5C 133.787,201.577 135.954,205.41 138.5,209C 138,209.167 137.5,209.333 137,209.5C 135.667,208.167 134.333,206.833 133,205.5C 131.56,206.148 130.06,206.481 128.5,206.5C 127.856,213.109 127.189,213.109 126.5,206.5C 126.944,202.837 127.278,199.171 127.5,195.5 Z"/></g>
<g><path style="opacity:1" fill="#f9ec1c" d="M 129.5,198.5 C 130.601,199.848 131.601,201.348 132.5,203C 131.552,203.483 130.552,203.649 129.5,203.5C 129.5,201.833 129.5,200.167 129.5,198.5 Z"/></g>
<g><path style="opacity:0.004" fill="#000000" d="M 187.5,200.5 C 186.415,202.587 184.749,203.92 182.5,204.5C 183.585,202.413 185.251,201.08 187.5,200.5 Z"/></g>
<g><path style="opacity:1" fill="#445699" d="M 144.5,190.5 C 146.446,195.396 147.113,200.729 146.5,206.5C 145.448,206.649 144.448,206.483 143.5,206C 140.642,202.642 137.975,199.142 135.5,195.5C 136.002,194.479 136.668,194.312 137.5,195C 139.788,197.743 141.955,200.577 144,203.5C 144.499,199.179 144.666,194.846 144.5,190.5 Z"/></g>
<g><path style="opacity:1" fill="#fbed15" d="M 101.5,204.5 C 105.676,203.831 107.009,205.331 105.5,209C 104.207,209.49 102.873,209.657 101.5,209.5C 101.5,207.833 101.5,206.167 101.5,204.5 Z"/></g>
<g><path style="opacity:0.004" fill="#000000" d="M 182.5,204.5 C 182.027,205.906 181.027,206.573 179.5,206.5C 179.973,205.094 180.973,204.427 182.5,204.5 Z"/></g>
<g><path style="opacity:0.004" fill="#000000" d="M 178.5,207.5 C 178.027,208.906 177.027,209.573 175.5,209.5C 175.973,208.094 176.973,207.427 178.5,207.5 Z"/></g>
<g><path style="opacity:0.004" fill="#000000" d="M 166.5,214.5 C 164.421,216.873 161.754,218.206 158.5,218.5C 160.849,216.659 163.515,215.326 166.5,214.5 Z"/></g>
<g><path style="opacity:0.004" fill="#000000" d="M 158.5,218.5 C 157.22,219.931 155.553,220.598 153.5,220.5C 154.78,219.069 156.447,218.402 158.5,218.5 Z"/></g>
<g><path style="opacity:0.005" fill="#000000" d="M 153.5,220.5 C 147.988,222.961 142.322,224.961 136.5,226.5C 133.833,226.5 131.167,226.5 128.5,226.5C 136.76,224.686 145.094,222.686 153.5,220.5 Z"/></g>
</svg>
