<?xml version="1.0" encoding="UTF-8"?>
<!DOCTYPE svg PUBLIC "-//W3C//DTD SVG 1.1//EN" "http://www.w3.org/Graphics/SVG/1.1/DTD/svg11.dtd">
<svg xmlns="http://www.w3.org/2000/svg" version="1.1" width="300px" height="291px" style="shape-rendering:geometricPrecision; text-rendering:geometricPrecision; image-rendering:optimizeQuality; fill-rule:evenodd; clip-rule:evenodd" xmlns:xlink="http://www.w3.org/1999/xlink">
<g><path style="opacity:1" fill="#fdfff9" d="M 174.5,39.5 C 176.359,39.4609 177.692,40.2942 178.5,42C 177.207,42.49 175.873,42.6567 174.5,42.5C 174.5,41.5 174.5,40.5 174.5,39.5 Z"/></g>
<g><path style="opacity:1" fill="#fcfffc" d="M 182.5,39.5 C 183.833,40.1667 183.833,40.1667 182.5,39.5 Z"/></g>
<g><path style="opacity:1" fill="#fcfffc" d="M 185.5,40.5 C 187.966,39.3659 190.633,39.1993 193.5,40C 190.99,41.7445 188.324,41.9112 185.5,40.5 Z"/></g>
<g><path style="opacity:1" fill="#fffcff" d="M 199.5,39.5 C 201.833,39.5 204.167,39.5 206.5,39.5C 206.649,40.552 206.483,41.552 206,42.5C 203.37,42.1408 201.203,41.1408 199.5,39.5 Z"/></g>
<g><path style="opacity:1" fill="#f8fbfb" d="M 171.5,43.5 C 172.833,44.1667 172.833,44.1667 171.5,43.5 Z"/></g>
<g><path style="opacity:1" fill="#c6c6e8" d="M 189.5,43.5 C 191.5,44.1667 193.5,44.8333 195.5,45.5C 191.151,45.415 186.818,45.0816 182.5,44.5C 179.837,44.3187 177.503,44.9854 175.5,46.5C 175.5,46.1667 175.5,45.8333 175.5,45.5C 176.347,44.0337 177.68,43.2004 179.5,43C 182.888,42.3412 186.221,42.5078 189.5,43.5 Z"/></g>
<g><path style="opacity:1" fill="#f3f8fd" d="M 189.5,43.5 C 193.329,42.931 196.663,43.5977 199.5,45.5C 198.167,45.5 196.833,45.5 195.5,45.5C 193.5,44.8333 191.5,44.1667 189.5,43.5 Z"/></g>
<g><path style="opacity:1" fill="#f5f9f7" d="M 203.5,43.5 C 204.833,44.1667 204.833,44.1667 203.5,43.5 Z"/></g>
<g><path style="opacity:1" fill="#fbfbfb" d="M 206.5,43.5 C 207.525,43.8966 207.692,44.5632 207,45.5C 206.536,44.9056 206.369,44.2389 206.5,43.5 Z"/></g>
<g><path style="opacity:1" fill="#fcfffc" d="M 169.5,44.5 C 170.833,45.1667 170.833,45.1667 169.5,44.5 Z"/></g>
<g><path style="opacity:1" fill="#cfd3ea" d="M 203.5,44.5 C 204.833,45.5 206.167,46.5 207.5,47.5C 203.267,47.4613 199.267,46.7947 195.5,45.5C 196.833,45.5 198.167,45.5 199.5,45.5C 200.833,45.1667 202.167,44.8333 203.5,44.5 Z"/></g>
<g><path style="opacity:1" fill="#fefefb" d="M 169.5,46.5 C 172.595,47.1187 172.929,48.1187 170.5,49.5C 169.614,48.675 169.281,47.675 169.5,46.5 Z"/></g>
<g><path style="opacity:1" fill="#323b88" d="M 195.5,45.5 C 199.267,46.7947 203.267,47.4613 207.5,47.5C 208.635,49.2132 210.302,49.8799 212.5,49.5C 214.072,50.6873 215.739,51.6873 217.5,52.5C 214.38,52.8441 211.547,52.1775 209,50.5C 205.603,50.1603 202.269,50.827 199,52.5C 197.933,51.8095 196.766,51.3095 195.5,51C 196.833,49.1598 196.666,48.6598 195,49.5C 193.357,48.488 192.19,47.488 191.5,46.5C 186.863,47.2199 182.197,47.7199 177.5,48C 177.043,48.414 176.709,48.914 176.5,49.5C 178.635,50.6454 180.801,50.6454 183,49.5C 186.33,50.9772 189.83,51.8105 193.5,52C 195.066,52.6082 196.4,53.4415 197.5,54.5C 190.87,53.5047 184.203,52.838 177.5,52.5C 174.651,51.0804 173.984,49.0804 175.5,46.5C 177.503,44.9854 179.837,44.3187 182.5,44.5C 186.818,45.0816 191.151,45.415 195.5,45.5 Z"/></g>
<g><path style="opacity:1" fill="#f3f6f9" d="M 275.5,103.5 C 275.849,100.955 275.016,98.9552 273,97.5C 272.517,98.448 272.351,99.448 272.5,100.5C 270.408,97.319 268.075,94.319 265.5,91.5C 265.107,89.7162 264.441,88.0495 263.5,86.5C 261.413,85.4154 260.08,83.7488 259.5,81.5C 257.413,80.4154 256.08,78.7488 255.5,76.5C 252.888,75.2213 250.555,73.5547 248.5,71.5C 244.742,67.4078 240.409,64.0745 235.5,61.5C 230.466,57.9828 225.133,54.9828 219.5,52.5C 217.824,50.1663 215.491,49.1663 212.5,49.5C 212.5,49.1667 212.5,48.8333 212.5,48.5C 216.104,47.9907 219.938,47.9907 224,48.5C 226.619,46.2313 229.119,46.2313 231.5,48.5C 230.092,49.2432 228.759,50.0766 227.5,51C 229.645,53.218 232.312,54.5514 235.5,55C 236.833,56 236.833,57 235.5,58C 240.722,61.3464 245.555,65.1797 250,69.5C 251.533,69.0563 253.033,68.723 254.5,68.5C 255.988,70.2706 257.821,71.6039 260,72.5C 261.183,71.269 262.349,71.269 263.5,72.5C 262.675,73.3857 261.675,73.719 260.5,73.5C 260.472,75.5824 261.139,77.4157 262.5,79C 261.742,80.3639 262.242,81.5305 264,82.5C 264.333,82.1667 264.667,81.8333 265,81.5C 265.54,84.3613 266.54,87.028 268,89.5C 269.385,85.5815 270.552,85.5815 271.5,89.5C 271.182,90.6473 270.516,91.4806 269.5,92C 271.367,94.5872 273.867,96.0872 277,96.5C 277.269,99.3516 278.103,102.018 279.5,104.5C 279.167,104.833 278.833,105.167 278.5,105.5C 277.482,104.807 276.482,104.141 275.5,103.5 Z M 252.5,71.5 C 253.683,72.5045 255.016,73.3378 256.5,74C 254.055,74.9098 252.722,74.0764 252.5,71.5 Z M 255.5,76.5 C 256.601,75.4017 257.934,75.235 259.5,76C 258.944,76.3826 258.611,76.8826 258.5,77.5C 257.609,76.8902 256.609,76.5569 255.5,76.5 Z"/></g>
<g><path style="opacity:1" fill="#c1c3e2" d="M 212.5,48.5 C 212.5,48.8333 212.5,49.1667 212.5,49.5C 210.302,49.8799 208.635,49.2132 207.5,47.5C 208.117,47.3893 208.617,47.056 209,46.5C 209.816,47.8228 210.983,48.4894 212.5,48.5 Z"/></g>
<g><path style="opacity:1" fill="#b6bcdf" d="M 212.5,49.5 C 215.491,49.1663 217.824,50.1663 219.5,52.5C 219.167,52.5 218.833,52.5 218.5,52.5C 218.167,52.5 217.833,52.5 217.5,52.5C 215.739,51.6873 214.072,50.6873 212.5,49.5 Z"/></g>
<g><path style="opacity:1" fill="#f1f1fc" d="M 175.5,45.5 C 175.5,45.8333 175.5,46.1667 175.5,46.5C 173.984,49.0804 174.651,51.0804 177.5,52.5C 177.5,52.8333 177.5,53.1667 177.5,53.5C 176.153,52.8288 174.986,52.8288 174,53.5C 173.5,53 173,52.5 172.5,52C 172.513,49.5575 173.513,47.3908 175.5,45.5 Z"/></g>
<g><path style="opacity:1" fill="#2c388e" d="M 217.5,52.5 C 217.833,52.5 218.167,52.5 218.5,52.5C 218.577,53.7498 219.244,54.5831 220.5,55C 218.054,56.4828 218.388,57.6495 221.5,58.5C 223.249,55.8729 224.916,55.8729 226.5,58.5C 225,59.5 223.5,60.5 222,61.5C 220.234,60.7665 218.401,60.4332 216.5,60.5C 214.299,59.4336 211.965,58.767 209.5,58.5C 205.676,56.5588 201.676,55.2254 197.5,54.5C 196.4,53.4415 195.066,52.6082 193.5,52C 189.83,51.8105 186.33,50.9772 183,49.5C 180.801,50.6454 178.635,50.6454 176.5,49.5C 176.709,48.914 177.043,48.414 177.5,48C 182.197,47.7199 186.863,47.2199 191.5,46.5C 192.19,47.488 193.357,48.488 195,49.5C 196.666,48.6598 196.833,49.1598 195.5,51C 196.766,51.3095 197.933,51.8095 199,52.5C 202.269,50.827 205.603,50.1603 209,50.5C 211.547,52.1775 214.38,52.8441 217.5,52.5 Z"/></g>
<g><path style="opacity:1" fill="#fcfffc" d="M 169.5,51.5 C 172.001,51.5109 172.168,52.1776 170,53.5C 169.536,52.9056 169.369,52.2389 169.5,51.5 Z"/></g>
<g><path style="opacity:1" fill="#d6d8ef" d="M 177.5,53.5 C 177.5,53.1667 177.5,52.8333 177.5,52.5C 184.203,52.838 190.87,53.5047 197.5,54.5C 201.676,55.2254 205.676,56.5588 209.5,58.5C 209.167,58.5 208.833,58.5 208.5,58.5C 208.167,58.5 207.833,58.5 207.5,58.5C 207.167,58.5 206.833,58.5 206.5,58.5C 205.833,58.5 205.167,58.5 204.5,58.5C 204.167,57.1667 203.833,57.1667 203.5,58.5C 200.203,59.8547 199.87,59.3547 202.5,57C 198.279,56.4225 194.112,55.5892 190,54.5C 185.55,54.4483 181.05,54.615 176.5,55C 177.167,54.6667 177.833,54.3333 178.5,54C 178.272,53.6012 177.938,53.4346 177.5,53.5 Z"/></g>
<g><path style="opacity:1" fill="#fbfffd" d="M 203.5,58.5 C 203.833,58.5 204.167,58.5 204.5,58.5C 204.315,59.1701 203.981,59.1701 203.5,58.5 Z"/></g>
<g><path style="opacity:1" fill="#3d438e" d="M 218.5,52.5 C 218.833,52.5 219.167,52.5 219.5,52.5C 225.133,54.9828 230.466,57.9828 235.5,61.5C 234.033,61.1062 232.533,60.7728 231,60.5C 229.674,60.7549 228.674,61.4216 228,62.5C 226.817,61.269 225.651,61.269 224.5,62.5C 226.769,63.0046 228.103,64.3379 228.5,66.5C 224.461,64.4806 220.461,62.4806 216.5,60.5C 218.401,60.4332 220.234,60.7665 222,61.5C 223.5,60.5 225,59.5 226.5,58.5C 224.916,55.8729 223.249,55.8729 221.5,58.5C 218.388,57.6495 218.054,56.4828 220.5,55C 219.244,54.5831 218.577,53.7498 218.5,52.5 Z"/></g>
<g><path style="opacity:1" fill="#fffefa" d="M 198.5,61.5 C 200.604,61.2011 202.604,61.5344 204.5,62.5C 203.5,62.8333 202.5,63.1667 201.5,63.5C 199.97,63.3601 198.97,62.6935 198.5,61.5 Z"/></g>
<g><path style="opacity:1" fill="#f2f6fb" d="M 206.5,58.5 C 206.833,58.5 207.167,58.5 207.5,58.5C 207.833,59.8333 208.167,59.8333 208.5,58.5C 208.833,58.5 209.167,58.5 209.5,58.5C 211.965,58.767 214.299,59.4336 216.5,60.5C 220.461,62.4806 224.461,64.4806 228.5,66.5C 231.796,68.8208 235.129,71.1542 238.5,73.5C 240.806,75.1394 242.806,77.1394 244.5,79.5C 241.206,80.0534 239.54,79.0534 239.5,76.5C 237.483,77.1743 235.817,78.3409 234.5,80C 232.393,80.8542 231.059,80.1875 230.5,78C 233.725,74.3112 233.058,71.8112 228.5,70.5C 226.856,69.6836 225.69,68.3502 225,66.5C 224,66.8333 223,67.1667 222,67.5C 221.517,66.552 221.351,65.552 221.5,64.5C 216.445,64.2716 211.445,63.6049 206.5,62.5C 207.603,62.0024 208.603,61.6691 209.5,61.5C 208.007,60.8589 207.007,59.8589 206.5,58.5 Z"/></g>
<g><path style="opacity:1" fill="#fefffa" d="M 223.5,69.5 C 224.289,69.7828 224.956,70.2828 225.5,71C 224.184,71.5281 223.517,71.0281 223.5,69.5 Z"/></g>
<g><path style="opacity:1" fill="#f3f8fa" d="M 228.5,70.5 C 227.833,71.1667 227.833,71.1667 228.5,70.5 Z"/></g>
<g><path style="opacity:1" fill="#2f398d" d="M 235.5,61.5 C 240.409,64.0745 244.742,67.4078 248.5,71.5C 248.431,74.0842 247.265,76.0842 245,77.5C 243.883,76.0506 243.216,74.3839 243,72.5C 241.644,73.3802 240.144,73.7135 238.5,73.5C 235.129,71.1542 231.796,68.8208 228.5,66.5C 228.103,64.3379 226.769,63.0046 224.5,62.5C 225.651,61.269 226.817,61.269 228,62.5C 228.674,61.4216 229.674,60.7549 231,60.5C 232.533,60.7728 234.033,61.1062 235.5,61.5 Z"/></g>
<g><path style="opacity:1" fill="#323b8a" d="M 248.5,71.5 C 250.555,73.5547 252.888,75.2213 255.5,76.5C 256.08,78.7488 257.413,80.4154 259.5,81.5C 260.08,83.7488 261.413,85.4154 263.5,86.5C 264.441,88.0495 265.107,89.7162 265.5,91.5C 263.35,92.0756 261.35,91.4089 259.5,89.5C 258.769,91.4012 258.769,93.4012 259.5,95.5C 260.978,95.238 262.311,95.5713 263.5,96.5C 262.754,97.7362 262.421,99.0695 262.5,100.5C 259.833,97.1667 257.167,93.8333 254.5,90.5C 254.167,89.5 253.5,88.8333 252.5,88.5C 251.581,85.9108 249.914,83.9108 247.5,82.5C 246.833,81.1667 245.833,80.1667 244.5,79.5C 242.806,77.1394 240.806,75.1394 238.5,73.5C 240.144,73.7135 241.644,73.3802 243,72.5C 243.216,74.3839 243.883,76.0506 245,77.5C 247.265,76.0842 248.431,74.0842 248.5,71.5 Z"/></g>
<g><path style="opacity:1" fill="#f8f9fa" d="M 244.5,79.5 C 245.833,80.1667 246.833,81.1667 247.5,82.5C 249.914,83.9108 251.581,85.9108 252.5,88.5C 251.761,88.369 251.094,88.5357 250.5,89C 251.384,90.7198 252.717,91.8865 254.5,92.5C 254.672,93.4916 254.338,94.1583 253.5,94.5C 253.167,93.1667 252.833,93.1667 252.5,94.5C 250.202,97.1479 247.868,97.1479 245.5,94.5C 249.859,90.6037 249.193,87.9371 243.5,86.5C 242.833,85.1667 242.167,83.8333 241.5,82.5C 242.716,81.9041 244.049,81.7374 245.5,82C 244.748,81.3292 244.414,80.4959 244.5,79.5 Z M 247.5,82.5 C 248.028,83.8474 248.195,85.1807 248,86.5C 246.37,85.1821 246.203,83.8488 247.5,82.5 Z"/></g>
<g><path style="opacity:1" fill="#e7e8fc" d="M 252.5,88.5 C 253.5,88.8333 254.167,89.5 254.5,90.5C 253.167,90.5 252.5,89.8333 252.5,88.5 Z"/></g>
<g><path style="opacity:1" fill="#fbfbfb" d="M 30.5,92.5 C 30.8966,91.475 31.5632,91.3083 32.5,92C 31.9056,92.4643 31.2389,92.631 30.5,92.5 Z"/></g>
<g><path style="opacity:1" fill="#f6f7f6" d="M 71.5,91.5 C 72.8333,92.1667 72.8333,92.1667 71.5,91.5 Z"/></g>
<g><path style="opacity:1" fill="#fbfbfb" d="M 74.5,91.5 C 75.8333,92.1667 75.8333,92.1667 74.5,91.5 Z"/></g>
<g><path style="opacity:1" fill="#fafafa" d="M 91.5,93.5 C 91.5173,91.9719 92.184,91.4719 93.5,92C 92.9558,92.7172 92.2891,93.2172 91.5,93.5 Z"/></g>
<g><path style="opacity:1" fill="#fbfbfb" d="M 126.5,92.5 C 126.897,91.475 127.563,91.3083 128.5,92C 127.906,92.4643 127.239,92.631 126.5,92.5 Z"/></g>
<g><path style="opacity:1" fill="#fbfbfb" d="M 94.5,92.5 C 95.8333,93.1667 95.8333,93.1667 94.5,92.5 Z"/></g>
<g><path style="opacity:1" fill="#e4e4e4" d="M 43.5,94.5 C 40.1667,94.5 36.8333,94.5 33.5,94.5C 33.1667,94.5 32.8333,94.5 32.5,94.5C 34.8422,93.9918 37.0088,92.9918 39,91.5C 39.3879,92.428 40.0546,93.0946 41,93.5C 43.5584,91.8534 44.3917,92.1867 43.5,94.5 Z"/></g>
<g><path style="opacity:1" fill="#dddddd" d="M 143.5,95.5 C 130.054,92.5136 119.387,96.5136 111.5,107.5C 112.363,106.06 112.363,104.726 111.5,103.5C 112.167,102.5 112.833,101.5 113.5,100.5C 116.318,99.979 118.985,98.479 121.5,96C 126.246,94.8665 130.746,93.3665 135,91.5C 136.312,93.6576 137.978,93.9909 140,92.5C 141.518,93.1634 142.685,94.1634 143.5,95.5 Z"/></g>
<g><path style="opacity:1" fill="#e9e9e9" d="M 204.5,95.5 C 198.153,94.2124 191.82,94.2124 185.5,95.5C 186.145,94.1882 187.145,93.1882 188.5,92.5C 191.903,93.195 195.403,93.195 199,92.5C 201.209,92.9892 203.042,93.9892 204.5,95.5 Z"/></g>
<g><path style="opacity:1" fill="#e7edf7" d="M 254.5,90.5 C 257.167,93.8333 259.833,97.1667 262.5,100.5C 264.777,105.387 266.777,110.387 268.5,115.5C 268.5,116.833 268.5,118.167 268.5,119.5C 266.883,118.411 266.05,116.744 266,114.5C 263.965,113.334 263.465,111.668 264.5,109.5C 262.437,106.612 260.603,103.612 259,100.5C 257.815,102.559 256.648,102.726 255.5,101C 255.156,98.0378 254.823,95.2044 254.5,92.5C 254.5,91.8333 254.5,91.1667 254.5,90.5 Z"/></g>
<g><path style="opacity:1" fill="#c8c8c8" d="M 94.5,93.5 C 96.297,94.393 97.6304,95.7263 98.5,97.5C 96.9505,96.5592 95.2838,95.8925 93.5,95.5C 93.5,95.1667 93.5,94.8333 93.5,94.5C 93.5,93.8333 93.8333,93.5 94.5,93.5 Z"/></g>
<g><path style="opacity:1" fill="#fefdfe" d="M 252.5,94.5 C 252.833,94.5 253.167,94.5 253.5,94.5C 253.315,95.1701 252.981,95.1701 252.5,94.5 Z"/></g>
<g><path style="opacity:1" fill="#f7f8f7" d="M 22.5,95.5 C 23.8333,96.1667 23.8333,96.1667 22.5,95.5 Z"/></g>
<g><path style="opacity:1" fill="#f7f8f7" d="M 118.5,95.5 C 119.833,96.1667 119.833,96.1667 118.5,95.5 Z"/></g>
<g><path style="opacity:1" fill="#e3e3e3" d="M 143.5,95.5 C 145.415,95.2155 147.081,95.5489 148.5,96.5C 147.833,96.5 147.5,96.8333 147.5,97.5C 145.847,97.3404 144.514,96.6737 143.5,95.5 Z"/></g>
<g><path style="opacity:1" fill="#fbfbfb" d="M 210.5,95.5 C 211.833,96.1667 211.833,96.1667 210.5,95.5 Z"/></g>
<g><path style="opacity:1" fill="#343c8d" d="M 265.5,91.5 C 268.075,94.319 270.408,97.319 272.5,100.5C 272.328,101.492 272.662,102.158 273.5,102.5C 276.364,110.042 278.697,117.709 280.5,125.5C 280.5,126.167 280.5,126.833 280.5,127.5C 276.243,124.051 274.577,119.718 275.5,114.5C 275.489,112.146 274.656,110.146 273,108.5C 270.997,111.5 270.164,114.833 270.5,118.5C 269.833,117.5 269.167,116.5 268.5,115.5C 266.777,110.387 264.777,105.387 262.5,100.5C 262.421,99.0695 262.754,97.7362 263.5,96.5C 262.311,95.5713 260.978,95.238 259.5,95.5C 258.769,93.4012 258.769,91.4012 259.5,89.5C 261.35,91.4089 263.35,92.0756 265.5,91.5 Z"/></g>
<g><path style="opacity:1" fill="#d8d8d8" d="M 148.5,96.5 C 151.949,98.9408 154.616,101.941 156.5,105.5C 153.5,102.833 150.5,100.167 147.5,97.5C 148.167,97.5 148.5,97.1667 148.5,96.5 Z"/></g>
<g><path style="opacity:1" fill="#cfcfcf" d="M 204.5,95.5 C 207.089,95.461 209.089,96.461 210.5,98.5C 208.033,98.2451 206.033,97.2451 204.5,95.5 Z"/></g>
<g><path style="opacity:1" fill="#f7f8f7" d="M 20.5,99.5 C 19.8333,98.1667 19.8333,98.1667 20.5,99.5 Z"/></g>
<g><path style="opacity:1" fill="#a9a9a9" d="M 91.5,93.5 C 91.8417,94.3382 92.5084,94.6716 93.5,94.5C 93.5,94.8333 93.5,95.1667 93.5,95.5C 86.8333,95.5 80.1667,95.5 73.5,95.5C 73.5,96.5 73.5,97.5 73.5,98.5C 80.3543,98.176 87.021,98.5093 93.5,99.5C 86.5,99.5 79.5,99.5 72.5,99.5C 72.5,97.8333 72.5,96.1667 72.5,94.5C 78.7436,93.5422 85.077,93.2088 91.5,93.5 Z"/></g>
<g><path style="opacity:1" fill="#c1c1c1" d="M 183.5,96.5 C 183.5,96.8333 183.5,97.1667 183.5,97.5C 182.395,98.6005 181.062,99.2671 179.5,99.5C 180.476,98.1851 181.476,96.8518 182.5,95.5C 183.107,95.6236 183.44,95.9569 183.5,96.5 Z"/></g>
<g><path style="opacity:1" fill="#e2e2e2" d="M 210.5,98.5 C 211.833,98.5 212.5,99.1667 212.5,100.5C 211.5,100.167 210.833,99.5 210.5,98.5 Z"/></g>
<g><path style="opacity:1" fill="#f4f5f4" d="M 15.5,99.5 C 16.8333,100.167 16.8333,100.167 15.5,99.5 Z"/></g>
<g><path style="opacity:1" fill="#5c5c5c" d="M 33.5,94.5 C 36.8333,94.5 40.1667,94.5 43.5,94.5C 45.4147,94.2155 47.0813,94.5489 48.5,95.5C 52.7672,98.4268 56.7672,101.76 60.5,105.5C 60.7031,107.044 61.3698,108.378 62.5,109.5C 61.6667,109.833 60.8333,110.167 60,110.5C 58.1074,109.992 56.6074,108.992 55.5,107.5C 55.1667,106.5 54.5,105.833 53.5,105.5C 53.1667,104.5 52.5,103.833 51.5,103.5C 49.4208,101.127 46.7541,99.7936 43.5,99.5C 40.1667,99.5 36.8333,99.5 33.5,99.5C 29.9812,99.2593 27.3145,100.593 25.5,103.5C 21.4862,105.195 19.1529,108.195 18.5,112.5C 17.8333,113.167 17.1667,113.833 16.5,114.5C 15.5204,110.674 14.6871,110.674 14,114.5C 13.3369,119.537 13.5036,124.537 14.5,129.5C 13.7784,129.082 13.2784,128.416 13,127.5C 12.3127,121.796 12.4793,116.13 13.5,110.5C 14.9063,110.027 15.573,109.027 15.5,107.5C 15.3284,106.508 15.6618,105.842 16.5,105.5C 18.9635,103.539 21.2968,101.372 23.5,99C 27.0421,97.7245 30.3755,96.2245 33.5,94.5 Z"/></g>
<g><path style="opacity:1" fill="#d4d4d4" d="M 48.5,95.5 C 54.3217,96.6556 58.3217,99.9889 60.5,105.5C 56.7672,101.76 52.7672,98.4268 48.5,95.5 Z"/></g>
<g><path style="opacity:1" fill="#f8f9f8" d="M 58.5,99.5 C 59.8333,100.167 59.8333,100.167 58.5,99.5 Z"/></g>
<g><path style="opacity:1" fill="#f9faf9" d="M 102.5,99.5 C 103.833,100.167 103.833,100.167 102.5,99.5 Z"/></g>
<g><path style="opacity:1" fill="#dfdfdf" d="M 178.5,99.5 C 177.974,101.23 176.974,102.564 175.5,103.5C 176.171,102.153 176.171,100.986 175.5,100C 176.448,99.5172 177.448,99.3505 178.5,99.5 Z"/></g>
<g><path style="opacity:1" fill="#e0e0e0" d="M 199.5,99.5 C 201.898,99.2594 203.898,99.9261 205.5,101.5C 203.214,101.405 201.214,100.738 199.5,99.5 Z"/></g>
<g><path style="opacity:1" fill="#f7f4fd" d="M 273.5,102.5 C 272.662,102.158 272.328,101.492 272.5,100.5C 274.677,99.4958 275.011,100.162 273.5,102.5 Z"/></g>
<g><path style="opacity:1" fill="#c9c9c9" d="M 32.5,94.5 C 32.8333,94.5 33.1667,94.5 33.5,94.5C 30.3755,96.2245 27.0421,97.7245 23.5,99C 21.2968,101.372 18.9635,103.539 16.5,105.5C 16.3893,104.883 16.056,104.383 15.5,104C 16.4158,103.722 17.0825,103.222 17.5,102.5C 18.8333,101.833 19.8333,100.833 20.5,99.5C 24.0169,96.7435 28.0169,95.0768 32.5,94.5 Z"/></g>
<g><path style="opacity:1" fill="#e9e9e9" d="M 33.5,99.5 C 32.3129,100.534 31.4796,101.867 31,103.5C 29.3745,103.146 27.5412,103.146 25.5,103.5C 27.3145,100.593 29.9812,99.2593 33.5,99.5 Z"/></g>
<g><path style="opacity:1" fill="#e5e5e5" d="M 198.5,98.5 C 199.167,98.5 199.5,98.8333 199.5,99.5C 196.518,99.1044 193.851,99.7711 191.5,101.5C 190.264,100.754 188.93,100.421 187.5,100.5C 187.918,99.7784 188.584,99.2784 189.5,99C 192.482,98.502 195.482,98.3354 198.5,98.5 Z"/></g>
<g><path style="opacity:1" fill="#d6d6d6" d="M 212.5,100.5 C 214.5,100.5 215.5,101.5 215.5,103.5C 214.167,102.833 213.167,101.833 212.5,100.5 Z"/></g>
<g><path style="opacity:1" fill="#f6f7f6" d="M 17.5,102.5 C 16.8333,101.167 16.8333,101.167 17.5,102.5 Z"/></g>
<g><path style="opacity:1" fill="#f8f9f8" d="M 43.5,101.5 C 44.8333,102.167 44.8333,102.167 43.5,101.5 Z"/></g>
<g><path style="opacity:1" fill="#eaeaea" d="M 43.5,99.5 C 46.7541,99.7936 49.4208,101.127 51.5,103.5C 49.4727,103.662 47.4727,103.495 45.5,103C 45.8333,102.667 46.1667,102.333 46.5,102C 45.4293,101.148 44.4293,100.315 43.5,99.5 Z"/></g>
<g><path style="opacity:1" fill="#f9faf9" d="M 91.5,101.5 C 92.8333,102.167 92.8333,102.167 91.5,101.5 Z"/></g>
<g><path style="opacity:1" fill="#e0e0e0" d="M 72.5,94.5 C 72.5,96.1667 72.5,97.8333 72.5,99.5C 79.5,99.5 86.5,99.5 93.5,99.5C 95.4411,101.011 95.9411,103.011 95,105.5C 92.932,107.396 91.0987,109.396 89.5,111.5C 89.9807,108.545 91.4807,106.211 94,104.5C 94.6838,103.216 94.5171,102.049 93.5,101C 86.1742,100.5 78.8409,100.334 71.5,100.5C 71.2053,98.2646 71.5386,96.2646 72.5,94.5 Z"/></g>
<g><path style="opacity:1" fill="#d5d5d5" d="M 99.5,99.5 C 101.048,99.8212 101.715,100.821 101.5,102.5C 100.833,103.833 100.167,105.167 99.5,106.5C 99.5,104.167 99.5,101.833 99.5,99.5 Z"/></g>
<g><path style="opacity:1" fill="#d7d7d7" d="M 205.5,101.5 C 207.027,101.427 208.027,102.094 208.5,103.5C 206.973,103.573 205.973,102.906 205.5,101.5 Z"/></g>
<g><path style="opacity:1" fill="#fafafa" d="M 101.5,102.5 C 103.337,102.639 103.67,103.306 102.5,104.5C 101.702,104.043 101.369,103.376 101.5,102.5 Z"/></g>
<g><path style="opacity:1" fill="#595959" d="M 143.5,95.5 C 144.514,96.6737 145.847,97.3404 147.5,97.5C 150.5,100.167 153.5,102.833 156.5,105.5C 156.427,107.027 157.094,108.027 158.5,108.5C 160.604,115.75 160.937,123.084 159.5,130.5C 156.573,134.767 153.24,138.767 149.5,142.5C 149.158,143.338 148.492,143.672 147.5,143.5C 140.077,146.609 132.411,147.275 124.5,145.5C 123.101,144.11 121.434,143.11 119.5,142.5C 117.833,140.167 115.833,138.167 113.5,136.5C 108.823,128.766 107.49,120.433 109.5,111.5C 110.345,110.329 111.011,108.995 111.5,107.5C 119.387,96.5136 130.054,92.5136 143.5,95.5 Z M 144.5,101.5 C 144.973,102.906 145.973,103.573 147.5,103.5C 148.11,104.391 148.443,105.391 148.5,106.5C 150.062,106.733 151.395,107.4 152.5,108.5C 152.328,109.492 152.662,110.158 153.5,110.5C 155.113,115.007 155.779,119.673 155.5,124.5C 154.566,125.568 154.232,126.901 154.5,128.5C 154.167,128.5 153.833,128.5 153.5,128.5C 153.426,130.411 152.426,131.578 150.5,132C 151.056,132.383 151.389,132.883 151.5,133.5C 150.069,134.082 148.736,134.915 147.5,136C 146.748,136.671 146.414,137.504 146.5,138.5C 145.833,138.5 145.167,138.5 144.5,138.5C 144.5,138.833 144.5,139.167 144.5,139.5C 141.278,139.85 138.112,140.517 135,141.5C 133.635,141.156 132.468,140.489 131.5,139.5C 129.929,140.309 128.262,140.643 126.5,140.5C 125.035,139.263 123.368,138.263 121.5,137.5C 119.833,135.167 117.833,133.167 115.5,131.5C 115.946,128.99 115.28,126.99 113.5,125.5C 113.5,125.167 113.5,124.833 113.5,124.5C 114.478,124.189 115.145,123.522 115.5,122.5C 115.154,121.304 114.654,121.304 114,122.5C 113.506,120.866 113.34,119.199 113.5,117.5C 114.641,114.746 115.975,112.079 117.5,109.5C 117.5,108.833 117.5,108.167 117.5,107.5C 118.167,107.5 118.5,107.167 118.5,106.5C 118.833,106.5 119.167,106.5 119.5,106.5C 120.167,105.5 120.833,104.5 121.5,103.5C 123.123,104.491 124.123,103.824 124.5,101.5C 125.167,101.833 125.833,102.167 126.5,102.5C 126.5,101.833 126.5,101.167 126.5,100.5C 132.615,98.9786 138.615,99.3119 144.5,101.5 Z"/></g>
<g><path style="opacity:1" fill="#dedede" d="M 144.5,101.5 C 146.027,101.427 147.027,102.094 147.5,103.5C 145.973,103.573 144.973,102.906 144.5,101.5 Z"/></g>
<g><path style="opacity:1" fill="#eaeaea" d="M 124.5,101.5 C 124.123,103.824 123.123,104.491 121.5,103.5C 121.973,102.094 122.973,101.427 124.5,101.5 Z"/></g>
<g><path style="opacity:1" fill="#e9e9e9" d="M 124.5,101.5 C 124.842,100.662 125.508,100.328 126.5,100.5C 126.5,101.167 126.5,101.833 126.5,102.5C 125.833,102.167 125.167,101.833 124.5,101.5 Z"/></g>
<g><path style="opacity:1" fill="#d1d1d1" d="M 121.5,103.5 C 120.833,104.5 120.167,105.5 119.5,106.5C 119.167,106.5 118.833,106.5 118.5,106.5C 118.5,104.5 119.5,103.5 121.5,103.5 Z"/></g>
<g><path style="opacity:1" fill="#d4d4d4" d="M 147.5,103.5 C 150.167,104.167 151.833,105.833 152.5,108.5C 151.395,107.4 150.062,106.733 148.5,106.5C 148.443,105.391 148.11,104.391 147.5,103.5 Z"/></g>
<g><path style="opacity:1" fill="#eeedee" d="M 173.5,105.5 C 173.068,106.71 172.401,107.71 171.5,108.5C 171.343,107.127 171.51,105.793 172,104.5C 172.383,105.056 172.883,105.389 173.5,105.5 Z"/></g>
<g><path style="opacity:1" fill="#cfcfcf" d="M 175.5,103.5 C 175.167,104.5 174.5,105.167 173.5,105.5C 173.5,104.167 174.167,103.5 175.5,103.5 Z"/></g>
<g><path style="opacity:1" fill="#d3d3d3" d="M 25.5,103.5 C 22.9337,106.289 20.6004,109.289 18.5,112.5C 19.1529,108.195 21.4862,105.195 25.5,103.5 Z"/></g>
<g><path style="opacity:1" fill="#f9f9f9" d="M 158.5,106.5 C 158.369,105.761 158.536,105.094 159,104.5C 159.692,105.437 159.525,106.103 158.5,106.5 Z"/></g>
<g><path style="opacity:1" fill="#e1e1e1" d="M 208.5,103.5 C 210.144,103.81 211.144,104.81 211.5,106.5C 209.856,106.19 208.856,105.19 208.5,103.5 Z"/></g>
<g><path style="opacity:1" fill="#f7f6f7" d="M 51.5,103.5 C 52.5,103.833 53.1667,104.5 53.5,105.5C 54.5,105.833 55.1667,106.5 55.5,107.5C 54.1667,107.5 52.8333,107.5 51.5,107.5C 51.5,106.167 51.5,104.833 51.5,103.5 Z"/></g>
<g><path style="opacity:1" fill="#525252" d="M 93.5,95.5 C 95.2838,95.8925 96.9505,96.5592 98.5,97.5C 99.3382,97.8417 99.6716,98.5084 99.5,99.5C 99.5,101.833 99.5,104.167 99.5,106.5C 96.1021,109.627 93.4354,113.293 91.5,117.5C 89.7376,118.262 88.7376,119.596 88.5,121.5C 88.5,121.833 88.5,122.167 88.5,122.5C 87.8333,123.167 87.1667,123.833 86.5,124.5C 84.4131,125.585 83.0798,127.251 82.5,129.5C 78.5843,132.217 76.751,135.884 77,140.5C 77.3826,141.056 77.8826,141.389 78.5,141.5C 84.979,142.491 91.6457,142.824 98.5,142.5C 98.5,143.5 98.5,144.5 98.5,145.5C 91.5,145.5 84.5,145.5 77.5,145.5C 73.4222,143.007 71.7555,139.34 72.5,134.5C 75.3276,133.004 76.9943,130.671 77.5,127.5C 81.2379,124.09 84.2379,120.09 86.5,115.5C 87.9744,114.564 88.9744,113.23 89.5,111.5C 91.0987,109.396 92.932,107.396 95,105.5C 95.9411,103.011 95.4411,101.011 93.5,99.5C 87.021,98.5093 80.3543,98.176 73.5,98.5C 73.5,97.5 73.5,96.5 73.5,95.5C 80.1667,95.5 86.8333,95.5 93.5,95.5 Z"/></g>
<g><path style="opacity:1" fill="#ececec" d="M 183.5,102.5 C 183.063,104.074 182.063,105.241 180.5,106C 181.167,106.333 181.833,106.667 182.5,107C 180.846,107.608 179.179,108.108 177.5,108.5C 178.5,105.5 180.5,103.5 183.5,102.5 Z"/></g>
<g><path style="opacity:1" fill="#e2e2e2" d="M 216.5,104.5 C 219.59,105.665 220.924,107.998 220.5,111.5C 218.929,109.365 217.596,107.032 216.5,104.5 Z"/></g>
<g><path style="opacity:1" fill="#f9faf9" d="M 11.5,107.5 C 12.8333,108.167 12.8333,108.167 11.5,107.5 Z"/></g>
<g><path style="opacity:1" fill="#e8e7e8" d="M 111.5,107.5 C 111.011,108.995 110.345,110.329 109.5,111.5C 109.157,109.517 109.824,108.183 111.5,107.5 Z"/></g>
<g><path style="opacity:1" fill="#cfcfcf" d="M 156.5,105.5 C 157.167,105.833 157.833,106.167 158.5,106.5C 158.5,107.167 158.5,107.833 158.5,108.5C 157.094,108.027 156.427,107.027 156.5,105.5 Z"/></g>
<g><path style="opacity:1" fill="#f7f8f7" d="M 170.5,108.5 C 169.833,107.167 169.833,107.167 170.5,108.5 Z"/></g>
<g><path style="opacity:1" fill="#f9faf9" d="M 107.5,108.5 C 108.833,109.167 108.833,109.167 107.5,108.5 Z"/></g>
<g><path style="opacity:1" fill="#ebeef8" d="M 273.5,102.5 C 274.167,102.833 274.833,103.167 275.5,103.5C 275.491,105.308 275.991,106.975 277,108.5C 277.535,106.729 278.369,106.396 279.5,107.5C 278.744,109.451 278.411,111.284 278.5,113C 279.914,116.055 281.081,119.222 282,122.5C 282.556,120.405 283.056,120.238 283.5,122C 282.713,124.099 282.38,126.266 282.5,128.5C 281.833,127.5 281.167,126.5 280.5,125.5C 278.697,117.709 276.364,110.042 273.5,102.5 Z"/></g>
<g><path style="opacity:1" fill="#d3d3d3" d="M 15.5,107.5 C 15.573,109.027 14.9063,110.027 13.5,110.5C 13.427,108.973 14.0937,107.973 15.5,107.5 Z"/></g>
<g><path style="opacity:1" fill="#fbfbfb" d="M 22.5,109.5 C 23.8333,110.167 23.8333,110.167 22.5,109.5 Z"/></g>
<g><path style="opacity:1" fill="#f9faf9" d="M 22.5,110.5 C 21.8333,111.167 21.8333,111.167 22.5,110.5 Z"/></g>
<g><path style="opacity:1" fill="#e0e0e0" d="M 60.5,105.5 C 62.9754,106.687 63.9754,108.687 63.5,111.5C 61.076,111.808 58.7427,111.474 56.5,110.5C 55.8728,109.583 55.5394,108.583 55.5,107.5C 56.6074,108.992 58.1074,109.992 60,110.5C 60.8333,110.167 61.6667,109.833 62.5,109.5C 61.3698,108.378 60.7031,107.044 60.5,105.5 Z"/></g>
<g><path style="opacity:1" fill="#e4e4e4" d="M 117.5,107.5 C 117.5,108.167 117.5,108.833 117.5,109.5C 115.975,112.079 114.641,114.746 113.5,117.5C 112.75,113.225 114.083,109.891 117.5,107.5 Z"/></g>
<g><path style="opacity:1" fill="#dadada" d="M 99.5,106.5 C 98.0991,109.634 96.4325,112.634 94.5,115.5C 93.5,116.167 92.5,116.833 91.5,117.5C 93.4354,113.293 96.1021,109.627 99.5,106.5 Z"/></g>
<g><path style="opacity:1" fill="#b9b9b9" d="M 170.5,108.5 C 170.833,108.5 171.167,108.5 171.5,108.5C 171.635,110.554 170.968,112.221 169.5,113.5C 168.957,113.44 168.624,113.107 168.5,112.5C 169.63,111.378 170.297,110.044 170.5,108.5 Z"/></g>
<g><path style="opacity:1" fill="#565656" d="M 198.5,98.5 C 195.482,98.3354 192.482,98.502 189.5,99C 188.584,99.2784 187.918,99.7784 187.5,100.5C 186.486,101.674 185.153,102.34 183.5,102.5C 180.5,103.5 178.5,105.5 177.5,108.5C 175.864,109.749 174.697,111.416 174,113.5C 173.19,117.358 173.357,121.024 174.5,124.5C 175.434,125.568 175.768,126.901 175.5,128.5C 175.229,130.38 175.896,131.713 177.5,132.5C 177.427,134.027 178.094,135.027 179.5,135.5C 180.802,137.822 182.802,139.155 185.5,139.5C 192.15,143.429 198.817,143.429 205.5,139.5C 209.388,138.275 212.388,135.941 214.5,132.5C 215.833,132.167 217.167,131.833 218.5,131.5C 216.971,135.368 214.637,138.701 211.5,141.5C 211.5,141.833 211.5,142.167 211.5,142.5C 211.167,142.5 210.833,142.5 210.5,142.5C 202.573,146.523 194.24,147.523 185.5,145.5C 185.158,144.662 184.492,144.328 183.5,144.5C 178.075,140.411 173.742,135.411 170.5,129.5C 169.746,124.537 169.413,119.537 169.5,114.5C 169.5,114.167 169.5,113.833 169.5,113.5C 170.968,112.221 171.635,110.554 171.5,108.5C 172.401,107.71 173.068,106.71 173.5,105.5C 174.5,105.167 175.167,104.5 175.5,103.5C 176.974,102.564 177.974,101.23 178.5,99.5C 178.833,99.5 179.167,99.5 179.5,99.5C 181.062,99.2671 182.395,98.6005 183.5,97.5C 189.049,95.4546 194.716,95.1213 200.5,96.5C 199.757,97.1818 199.091,97.8485 198.5,98.5 Z"/></g>
<g><path style="opacity:1" fill="#cecece" d="M 153.5,110.5 C 154.966,111.347 155.8,112.68 156,114.5C 156.808,118.027 156.641,121.36 155.5,124.5C 155.779,119.673 155.113,115.007 153.5,110.5 Z"/></g>
<g><path style="opacity:1" fill="#c8c8c8" d="M 211.5,106.5 C 217.088,110.819 218.921,116.486 217,123.5C 216.801,126.722 215.968,129.722 214.5,132.5C 212.388,135.941 209.388,138.275 205.5,139.5C 209.942,136.553 213.108,132.553 215,127.5C 215.296,124.294 215.796,121.128 216.5,118C 214.777,113.757 213.111,109.924 211.5,106.5 Z"/></g>
<g><path style="opacity:1" fill="#f6f7f6" d="M 222.5,112.5 C 223.833,113.167 223.833,113.167 222.5,112.5 Z"/></g>
<g><path style="opacity:1" fill="#fbfbfb" d="M 162.5,113.5 C 163.525,113.897 163.692,114.563 163,115.5C 162.536,114.906 162.369,114.239 162.5,113.5 Z"/></g>
<g><path style="opacity:1" fill="#dcdcdc" d="M 89.5,111.5 C 88.9744,113.23 87.9744,114.564 86.5,115.5C 86.5544,113.368 87.5544,112.035 89.5,111.5 Z"/></g>
<g><path style="opacity:1" fill="#fefffa" d="M 263.5,114.5 C 264.833,115.167 264.833,115.167 263.5,114.5 Z"/></g>
<g><path style="opacity:1" fill="#fbfbfb" d="M 94.5,115.5 C 95.8333,116.167 95.8333,116.833 94.5,117.5C 94.5,116.833 94.5,116.167 94.5,115.5 Z"/></g>
<g><path style="opacity:1" fill="#d7d7d7" d="M 18.5,112.5 C 18.3639,115.35 18.0305,118.183 17.5,121C 18.6951,125.22 20.0284,129.387 21.5,133.5C 17.0427,128.056 15.376,121.723 16.5,114.5C 17.1667,113.833 17.8333,113.167 18.5,112.5 Z"/></g>
<g><path style="opacity:1" fill="#f7f8f7" d="M 94.5,117.5 C 94.5,117.833 94.5,118.167 94.5,118.5C 93.8299,118.019 93.8299,117.685 94.5,117.5 Z"/></g>
<g><path style="opacity:1" fill="#dedede" d="M 220.5,111.5 C 221.186,112.848 222.186,114.015 223.5,115C 223.023,119.093 222.356,123.426 221.5,128C 221.735,128.873 222.069,129.707 222.5,130.5C 222.154,131.696 221.654,131.696 221,130.5C 219.377,135.615 216.211,139.281 211.5,141.5C 214.637,138.701 216.971,135.368 218.5,131.5C 221.662,125.213 222.329,118.546 220.5,111.5 Z"/></g>
<g><path style="opacity:1" fill="#dddddd" d="M 91.5,117.5 C 91.2624,119.404 90.2624,120.738 88.5,121.5C 88.7376,119.596 89.7376,118.262 91.5,117.5 Z"/></g>
<g><path style="opacity:1" fill="#fbfbfb" d="M 93.5,118.5 C 92.8333,119.167 92.8333,119.167 93.5,118.5 Z"/></g>
<g><path style="opacity:1" fill="#f8f9f8" d="M 94.5,118.5 C 95.8333,119.167 95.8333,119.167 94.5,118.5 Z"/></g>
<g><path style="opacity:1" fill="#d3d3d3" d="M 109.5,111.5 C 107.49,120.433 108.823,128.766 113.5,136.5C 109.865,134.236 108.032,130.902 108,126.5C 107.333,122.5 107.333,118.5 108,114.5C 108.232,113.263 108.732,112.263 109.5,111.5 Z"/></g>
<g><path style="opacity:1" fill="#cfcfcf" d="M 158.5,108.5 C 161.536,113.651 162.87,119.317 162.5,125.5C 161.687,127.261 160.687,128.928 159.5,130.5C 160.937,123.084 160.604,115.75 158.5,108.5 Z"/></g>
<g><path style="opacity:1" fill="#fefdfe" d="M 263.5,119.5 C 263.897,118.475 264.563,118.308 265.5,119C 264.906,119.464 264.239,119.631 263.5,119.5 Z"/></g>
<g><path style="opacity:1" fill="#c3c7e8" d="M 268.5,115.5 C 269.167,116.5 269.833,117.5 270.5,118.5C 270.5,118.833 270.5,119.167 270.5,119.5C 274.159,131.43 275.159,143.43 273.5,155.5C 273.5,154.833 273.5,154.167 273.5,153.5C 273.5,152.833 273.5,152.167 273.5,151.5C 273.818,146.968 273.485,142.634 272.5,138.5C 272.099,135.252 271.432,132.085 270.5,129C 271.634,127.984 271.301,127.317 269.5,127C 270.287,125.687 269.954,124.52 268.5,123.5C 269.833,122.167 269.833,120.833 268.5,119.5C 268.5,118.167 268.5,116.833 268.5,115.5 Z"/></g>
<g><path style="opacity:1" fill="#dbdbdb" d="M 86.5,115.5 C 84.2379,120.09 81.2379,124.09 77.5,127.5C 79.2002,123.616 81.5335,120.116 84.5,117C 84.1667,116.667 83.8333,116.333 83.5,116C 84.448,115.517 85.448,115.351 86.5,115.5 Z"/></g>
<g><path style="opacity:1" fill="#dbdbdb" d="M 177.5,108.5 C 176.781,111.073 175.781,113.573 174.5,116C 174.605,118.825 174.605,121.658 174.5,124.5C 173.357,121.024 173.19,117.358 174,113.5C 174.697,111.416 175.864,109.749 177.5,108.5 Z"/></g>
<g><path style="opacity:1" fill="#f2fcfc" d="M 248.5,136.5 C 246.531,130.988 244.698,125.322 243,119.5C 241.971,116.125 239.804,114.958 236.5,116C 235.282,118.445 235.782,120.612 238,122.5C 238.681,126.221 239.514,129.887 240.5,133.5C 240.5,136.5 240.5,139.5 240.5,142.5C 239.49,137.065 238.156,131.731 236.5,126.5C 236.167,125.167 235.833,125.167 235.5,126.5C 233.32,128.009 231.653,127.509 230.5,125C 230.827,120.786 231.827,116.952 233.5,113.5C 233.082,112.778 232.416,112.278 231.5,112C 235.421,111.797 239.255,111.297 243,110.5C 243.167,110.833 243.333,111.167 243.5,111.5C 241.922,112.298 240.256,112.798 238.5,113C 240.01,113.85 241.51,114.683 243,115.5C 244.44,114.852 245.94,114.519 247.5,114.5C 247.784,117.777 247.451,120.943 246.5,124C 247,124.5 247.5,125 248,125.5C 248.218,128.426 248.718,131.26 249.5,134C 248.748,134.671 248.414,135.504 248.5,136.5 Z M 232.5,117.5 C 233.703,118.943 234.203,120.609 234,122.5C 232.731,121.095 232.231,119.429 232.5,117.5 Z M 233.5,113.5 C 238.021,113.326 238.355,113.993 234.5,115.5C 233.702,115.043 233.369,114.376 233.5,113.5 Z"/></g>
<g><path style="opacity:1" fill="#f9faf9" d="M 88.5,122.5 C 89.8333,123.167 89.8333,123.167 88.5,122.5 Z"/></g>
<g><path style="opacity:1" fill="#eaeaea" d="M 113.5,117.5 C 113.34,119.199 113.506,120.866 114,122.5C 114.654,121.304 115.154,121.304 115.5,122.5C 115.145,123.522 114.478,124.189 113.5,124.5C 112.244,122.059 112.244,119.726 113.5,117.5 Z"/></g>
<g><path style="opacity:1" fill="#565656" d="M 204.5,95.5 C 206.033,97.2451 208.033,98.2451 210.5,98.5C 210.833,99.5 211.5,100.167 212.5,100.5C 213.167,101.833 214.167,102.833 215.5,103.5C 216.167,103.5 216.5,103.833 216.5,104.5C 217.596,107.032 218.929,109.365 220.5,111.5C 222.329,118.546 221.662,125.213 218.5,131.5C 217.167,131.833 215.833,132.167 214.5,132.5C 215.968,129.722 216.801,126.722 217,123.5C 218.921,116.486 217.088,110.819 211.5,106.5C 211.144,104.81 210.144,103.81 208.5,103.5C 208.027,102.094 207.027,101.427 205.5,101.5C 203.898,99.9261 201.898,99.2594 199.5,99.5C 199.5,98.8333 199.167,98.5 198.5,98.5C 199.091,97.8485 199.757,97.1818 200.5,96.5C 194.716,95.1213 189.049,95.4546 183.5,97.5C 183.5,97.1667 183.5,96.8333 183.5,96.5C 184.167,96.1667 184.833,95.8333 185.5,95.5C 191.82,94.2124 198.153,94.2124 204.5,95.5 Z"/></g>
<g><path style="opacity:1" fill="#fcfcf9" d="M 268.5,123.5 C 268.649,124.552 268.483,125.552 268,126.5C 267.26,125.251 267.427,124.251 268.5,123.5 Z"/></g>
<g><path style="opacity:1" fill="#29378e" d="M 280.5,127.5 C 280.5,128.167 280.5,128.833 280.5,129.5C 280.833,136.262 280.5,142.262 279.5,147.5C 278.24,143.08 276.74,138.747 275,134.5C 273.95,129.552 273.45,124.552 273.5,119.5C 272.5,119.5 271.5,119.5 270.5,119.5C 270.5,119.167 270.5,118.833 270.5,118.5C 270.164,114.833 270.997,111.5 273,108.5C 274.656,110.146 275.489,112.146 275.5,114.5C 274.577,119.718 276.243,124.051 280.5,127.5 Z"/></g>
<g><path style="opacity:1" fill="#f9faf9" d="M 162.5,125.5 C 163.833,126.167 163.833,126.167 162.5,125.5 Z"/></g>
<g><path style="opacity:1" fill="#fdfefb" d="M 235.5,126.5 C 235.833,126.5 236.167,126.5 236.5,126.5C 236.315,127.17 235.981,127.17 235.5,126.5 Z"/></g>
<g><path style="opacity:1" fill="#69b8d9" d="M 248.5,136.5 C 248.666,143.508 248.5,150.508 248,157.5C 247.79,159.058 247.29,160.391 246.5,161.5C 246.893,135.036 245.726,135.036 243,161.5C 242.722,162.416 242.222,163.082 241.5,163.5C 243.146,153.289 242.813,143.289 240.5,133.5C 239.514,129.887 238.681,126.221 238,122.5C 235.782,120.612 235.282,118.445 236.5,116C 239.804,114.958 241.971,116.125 243,119.5C 244.698,125.322 246.531,130.988 248.5,136.5 Z"/></g>
<g><path style="opacity:1" fill="#fefef9" d="M 285.5,118.5 C 286.809,120.571 287.475,123.071 287.5,126C 287.95,135.642 286.616,135.808 283.5,126.5C 285.223,124.132 285.89,121.466 285.5,118.5 Z"/></g>
<g><path style="opacity:1" fill="#fbfbfb" d="M 62.5,127.5 C 63.8333,128.167 63.8333,128.167 62.5,127.5 Z"/></g>
<g><path style="opacity:1" fill="#dadada" d="M 86.5,124.5 C 85.9202,126.749 84.5869,128.415 82.5,129.5C 83.0798,127.251 84.4131,125.585 86.5,124.5 Z"/></g>
<g><path style="opacity:1" fill="#d8d8d8" d="M 113.5,125.5 C 115.28,126.99 115.946,128.99 115.5,131.5C 114.262,129.786 113.595,127.786 113.5,125.5 Z"/></g>
<g><path style="opacity:1" fill="#fbfbfb" d="M 222.5,127.5 C 223.833,128.167 223.833,128.167 222.5,127.5 Z"/></g>
<g><path style="opacity:1" fill="#cecece" d="M 169.5,114.5 C 169.413,119.537 169.746,124.537 170.5,129.5C 168.451,129.294 168.117,128.461 169.5,127C 168.643,126.311 167.977,125.478 167.5,124.5C 168.097,121.029 168.764,117.695 169.5,114.5 Z"/></g>
<g><path style="opacity:1" fill="#d3d3d3" d="M 175.5,128.5 C 176.674,129.514 177.34,130.847 177.5,132.5C 175.896,131.713 175.229,130.38 175.5,128.5 Z"/></g>
<g><path style="opacity:1" fill="#fbfbfb" d="M 82.5,131.5 C 83.8333,132.167 83.8333,132.167 82.5,131.5 Z"/></g>
<g><path style="opacity:1" fill="#d6d6d6" d="M 153.5,128.5 C 153.833,128.5 154.167,128.5 154.5,128.5C 154.727,130.933 153.727,132.599 151.5,133.5C 151.389,132.883 151.056,132.383 150.5,132C 152.426,131.578 153.426,130.411 153.5,128.5 Z"/></g>
<g><path style="opacity:1" fill="#9496c4" d="M 280.5,125.5 C 281.167,126.5 281.833,127.5 282.5,128.5C 282.5,129.833 282.5,131.167 282.5,132.5C 282.5,134.167 282.5,135.833 282.5,137.5C 281.833,134.833 281.167,132.167 280.5,129.5C 280.5,128.833 280.5,128.167 280.5,127.5C 280.5,126.833 280.5,126.167 280.5,125.5 Z"/></g>
<g><path style="opacity:1" fill="#cbcbcb" d="M 77.5,127.5 C 76.9943,130.671 75.3276,133.004 72.5,134.5C 74.3004,132.172 75.467,129.505 76,126.5C 76.3826,127.056 76.8826,127.389 77.5,127.5 Z"/></g>
<g><path style="opacity:1" fill="#f9faf9" d="M 11.5,133.5 C 12.8333,134.167 12.8333,134.167 11.5,133.5 Z"/></g>
<g><path style="opacity:1" fill="#bbbbbb" d="M 177.5,132.5 C 178.906,132.973 179.573,133.973 179.5,135.5C 178.094,135.027 177.427,134.027 177.5,132.5 Z"/></g>
<g><path style="opacity:1" fill="#f5f6f5" d="M 14.5,134.5 C 13.8333,135.167 13.8333,135.167 14.5,134.5 Z"/></g>
<g><path style="opacity:1" fill="#525252" d="M 16.5,114.5 C 15.376,121.723 17.0427,128.056 21.5,133.5C 21.8333,135.833 23.1667,137.167 25.5,137.5C 26.4006,139.727 28.0672,140.727 30.5,140.5C 35.9463,142.974 41.613,143.141 47.5,141C 48.056,140.617 48.3893,140.117 48.5,139.5C 52.0674,138.932 54.4007,136.932 55.5,133.5C 56.9063,133.027 57.573,132.027 57.5,130.5C 59.1992,130.34 60.8659,130.506 62.5,131C 60.0485,135.282 57.0485,139.116 53.5,142.5C 53.1583,143.338 52.4916,143.672 51.5,143.5C 44.0965,146.688 36.4298,147.355 28.5,145.5C 27.1007,144.11 25.4341,143.11 23.5,142.5C 21.5389,140.037 19.3722,137.703 17,135.5C 15.878,133.593 15.0447,131.593 14.5,129.5C 13.5036,124.537 13.3369,119.537 14,114.5C 14.6871,110.674 15.5204,110.674 16.5,114.5 Z"/></g>
<g><path style="opacity:1" fill="#dadada" d="M 57.5,130.5 C 57.573,132.027 56.9063,133.027 55.5,133.5C 55.427,131.973 56.0937,130.973 57.5,130.5 Z"/></g>
<g><path style="opacity:1" fill="#fbfbfb" d="M 52.5,135.5 C 51.4265,134.749 51.2599,133.749 52,132.5C 52.4828,133.448 52.6495,134.448 52.5,135.5 Z"/></g>
<g><path style="opacity:1" fill="#c6c6c6" d="M 21.5,133.5 C 23.1667,134.5 24.5,135.833 25.5,137.5C 23.1667,137.167 21.8333,135.833 21.5,133.5 Z"/></g>
<g><path style="opacity:1" fill="#d9d9d9" d="M 62.5,128.5 C 63.8333,130.5 63.8333,132.5 62.5,134.5C 61.197,136.142 59.8637,137.809 58.5,139.5C 57.1667,140.167 56.1667,141.167 55.5,142.5C 54.8333,142.5 54.1667,142.5 53.5,142.5C 57.0485,139.116 60.0485,135.282 62.5,131C 60.8659,130.506 59.1992,130.34 57.5,130.5C 58.7804,129.069 60.4471,128.402 62.5,128.5 Z"/></g>
<g><path style="opacity:1" fill="#f9faf9" d="M 62.5,134.5 C 63.8333,135.167 63.8333,135.167 62.5,134.5 Z"/></g>
<g><path style="opacity:1" fill="#bababa" d="M 115.5,131.5 C 117.833,133.167 119.833,135.167 121.5,137.5C 118.5,136.5 116.5,134.5 115.5,131.5 Z"/></g>
<g><path style="opacity:1" fill="#e2e2e2" d="M 151.5,133.5 C 150.856,136.144 149.189,137.811 146.5,138.5C 146.414,137.504 146.748,136.671 147.5,136C 148.736,134.915 150.069,134.082 151.5,133.5 Z"/></g>
<g><path style="opacity:1" fill="#fbfffe" d="M 253.5,134.5 C 254.649,134.791 255.316,135.624 255.5,137C 255.333,137.833 255.167,138.667 255,139.5C 253.731,138.095 253.231,136.429 253.5,134.5 Z"/></g>
<g><path style="opacity:1" fill="#dadada" d="M 13.5,110.5 C 12.4793,116.13 12.3127,121.796 13,127.5C 13.2784,128.416 13.7784,129.082 14.5,129.5C 15.0447,131.593 15.878,133.593 17,135.5C 19.3722,137.703 21.5389,140.037 23.5,142.5C 22.391,142.443 21.391,142.11 20.5,141.5C 18.4707,139.142 16.4707,136.808 14.5,134.5C 11.5444,127.549 10.7111,120.216 12,112.5C 12.2784,111.584 12.7784,110.918 13.5,110.5 Z"/></g>
<g><path style="opacity:1" fill="#d6d6d6" d="M 179.5,135.5 C 181.853,136.34 183.853,137.674 185.5,139.5C 182.802,139.155 180.802,137.822 179.5,135.5 Z"/></g>
<g><path style="opacity:1" fill="#cbcbcb" d="M 55.5,133.5 C 54.4007,136.932 52.0674,138.932 48.5,139.5C 49.8333,138.167 51.1667,136.833 52.5,135.5C 53.29,134.391 53.79,133.058 54,131.5C 54.2784,132.416 54.7784,133.082 55.5,133.5 Z"/></g>
<g><path style="opacity:1" fill="#d8d8d8" d="M 159.5,130.5 C 159.509,132.308 159.009,133.975 158,135.5C 155.294,137.871 152.961,140.537 151,143.5C 150.617,142.944 150.117,142.611 149.5,142.5C 153.24,138.767 156.573,134.767 159.5,130.5 Z"/></g>
<g><path style="opacity:1" fill="#d4d4d4" d="M 113.5,136.5 C 115.833,138.167 117.833,140.167 119.5,142.5C 117.246,141.585 115.246,140.252 113.5,138.5C 113.5,137.833 113.5,137.167 113.5,136.5 Z"/></g>
<g><path style="opacity:1" fill="#f8f9f8" d="M 157.5,137.5 C 158.833,138.167 158.833,138.167 157.5,137.5 Z"/></g>
<g><path style="opacity:1" fill="#d0d0d0" d="M 170.5,129.5 C 173.742,135.411 178.075,140.411 183.5,144.5C 177.43,141.599 172.763,137.099 169.5,131C 170.056,130.617 170.389,130.117 170.5,129.5 Z"/></g>
<g><path style="opacity:1" fill="#d7d7d7" d="M 25.5,137.5 C 27.4341,138.11 29.1007,139.11 30.5,140.5C 28.0672,140.727 26.4006,139.727 25.5,137.5 Z"/></g>
<g><path style="opacity:1" fill="#f8f9f8" d="M 113.5,138.5 C 112.833,139.167 112.833,139.167 113.5,138.5 Z"/></g>
<g><path style="opacity:1" fill="#b4b4b4" d="M 121.5,137.5 C 123.368,138.263 125.035,139.263 126.5,140.5C 123.966,140.741 122.3,139.741 121.5,137.5 Z"/></g>
<g><path style="opacity:1" fill="#f9faf9" d="M 172.5,138.5 C 173.833,139.167 173.833,139.167 172.5,138.5 Z"/></g>
<g><path style="opacity:1" fill="#fbfbfb" d="M 217.5,138.5 C 218.833,139.167 218.833,139.167 217.5,138.5 Z"/></g>
<g><path style="opacity:1" fill="#f7f8f7" d="M 58.5,139.5 C 59.8333,140.167 59.8333,140.167 58.5,139.5 Z"/></g>
<g><path style="opacity:1" fill="#f9faf9" d="M 98.5,139.5 C 99.8333,140.167 99.8333,140.167 98.5,139.5 Z"/></g>
<g><path style="opacity:1" fill="#ececec" d="M 82.5,129.5 C 82.5,130.167 82.5,130.833 82.5,131.5C 81.017,133.094 79.517,134.76 78,136.5C 77.3162,137.784 77.4829,138.951 78.5,140C 85.1583,140.5 91.825,140.666 98.5,140.5C 98.5,140.833 98.5,141.167 98.5,141.5C 91.8333,141.5 85.1667,141.5 78.5,141.5C 77.8826,141.389 77.3826,141.056 77,140.5C 76.751,135.884 78.5843,132.217 82.5,129.5 Z"/></g>
<g><path style="opacity:1" fill="#fbf9ff" d="M 272.5,138.5 C 273.485,142.634 273.818,146.968 273.5,151.5C 271.396,147.399 271.063,143.065 272.5,138.5 Z"/></g>
<g><path style="opacity:1" fill="#b9bee1" d="M 282.5,132.5 C 284.672,135.903 285.005,139.57 283.5,143.5C 283.5,147.833 283.5,152.167 283.5,156.5C 283.5,158.833 283.5,161.167 283.5,163.5C 282.833,163.5 282.5,163.833 282.5,164.5C 282.167,164.5 281.833,164.5 281.5,164.5C 282.347,155.528 282.68,146.528 282.5,137.5C 282.5,135.833 282.5,134.167 282.5,132.5 Z"/></g>
<g><path style="opacity:1" fill="#fbfbfb" d="M 20.5,141.5 C 19.8333,142.167 19.8333,142.167 20.5,141.5 Z"/></g>
<g><path style="opacity:1" fill="#d2d2d2" d="M 48.5,139.5 C 48.3893,140.117 48.056,140.617 47.5,141C 41.613,143.141 35.9463,142.974 30.5,140.5C 32.4672,140.739 34.3005,140.406 36,139.5C 36.3879,140.428 37.0546,141.095 38,141.5C 41.5062,140.786 45.0062,140.119 48.5,139.5 Z"/></g>
<g><path style="opacity:1" fill="#fbfbfb" d="M 57.5,141.5 C 58.8333,142.167 58.8333,142.167 57.5,141.5 Z"/></g>
<g><path style="opacity:1" fill="#c5c5c5" d="M 72.5,134.5 C 71.7555,139.34 73.4222,143.007 77.5,145.5C 77.5,145.833 77.5,146.167 77.5,146.5C 76.8333,146.5 76.1667,146.5 75.5,146.5C 74.8333,145.167 73.8333,144.167 72.5,143.5C 71.3187,140.362 71.3187,137.362 72.5,134.5 Z"/></g>
<g><path style="opacity:1" fill="#d8d8d8" d="M 144.5,139.5 C 141.464,141.748 137.964,142.748 134,142.5C 131.134,142.7 128.634,142.033 126.5,140.5C 128.262,140.643 129.929,140.309 131.5,139.5C 132.468,140.489 133.635,141.156 135,141.5C 138.112,140.517 141.278,139.85 144.5,139.5 Z"/></g>
<g><path style="opacity:1" fill="#dadada" d="M 185.5,139.5 C 188.999,140.1 192.499,140.766 196,141.5C 199.163,140.75 202.33,140.084 205.5,139.5C 198.817,143.429 192.15,143.429 185.5,139.5 Z"/></g>
<g><path style="opacity:1" fill="#f9faf9" d="M 214.5,141.5 C 215.833,142.167 215.833,142.167 214.5,141.5 Z"/></g>
<g><path style="opacity:1" fill="#f7f8f7" d="M 55.5,142.5 C 56.8333,143.167 56.8333,143.167 55.5,142.5 Z"/></g>
<g><path style="opacity:1" fill="#fbfbfb" d="M 211.5,142.5 C 212.833,143.167 212.833,143.167 211.5,142.5 Z"/></g>
<g><path style="opacity:1" fill="#dcdcdc" d="M 23.5,142.5 C 25.4341,143.11 27.1007,144.11 28.5,145.5C 26.0672,145.727 24.4006,144.727 23.5,142.5 Z"/></g>
<g><path style="opacity:1" fill="#f9faf9" d="M 72.5,143.5 C 71.8333,144.167 71.8333,144.167 72.5,143.5 Z"/></g>
<g><path style="opacity:1" fill="#e0e0e0" d="M 119.5,142.5 C 121.434,143.11 123.101,144.11 124.5,145.5C 122.067,145.727 120.401,144.727 119.5,142.5 Z"/></g>
<g><path style="opacity:1" fill="#fbfbfb" d="M 73.5,146.5 C 72.8333,145.167 72.8333,145.167 73.5,146.5 Z"/></g>
<g><path style="opacity:1" fill="#a9a9a9" d="M 78.5,141.5 C 85.1667,141.5 91.8333,141.5 98.5,141.5C 100.676,142.713 101.009,144.38 99.5,146.5C 92.1095,147.796 84.7762,147.796 77.5,146.5C 77.5,146.167 77.5,145.833 77.5,145.5C 84.5,145.5 91.5,145.5 98.5,145.5C 98.5,144.5 98.5,143.5 98.5,142.5C 91.6457,142.824 84.979,142.491 78.5,141.5 Z"/></g>
<g><path style="opacity:1" fill="#efefef" d="M 183.5,144.5 C 184.492,144.328 185.158,144.662 185.5,145.5C 184.075,147.031 183.409,146.698 183.5,144.5 Z"/></g>
<g><path style="opacity:1" fill="#fbfafb" d="M 210.5,144.5 C 211.773,145.077 211.773,145.743 210.5,146.5C 209.537,146.03 209.537,145.363 210.5,144.5 Z"/></g>
<g><path style="opacity:1" fill="#e6e6e6" d="M 51.5,143.5 C 51.2882,145.384 50.2882,146.717 48.5,147.5C 43.279,147.492 37.9457,147.325 32.5,147C 30.9419,146.79 29.6085,146.29 28.5,145.5C 36.4298,147.355 44.0965,146.688 51.5,143.5 Z"/></g>
<g><path style="opacity:1" fill="#f9f9f9" d="M 73.5,146.5 C 74.1667,146.5 74.8333,146.5 75.5,146.5C 74.8333,147.833 74.1667,147.833 73.5,146.5 Z"/></g>
<g><path style="opacity:1" fill="#f9faf9" d="M 124.5,146.5 C 123.833,147.167 123.833,147.167 124.5,146.5 Z"/></g>
<g><path style="opacity:1" fill="#dcdcdc" d="M 147.5,143.5 C 147.068,144.71 146.401,145.71 145.5,146.5C 145.167,145.167 144.833,145.167 144.5,146.5C 137.833,147.833 131.167,147.833 124.5,146.5C 124.5,146.167 124.5,145.833 124.5,145.5C 132.411,147.275 140.077,146.609 147.5,143.5 Z"/></g>
<g><path style="opacity:1" fill="#f8f9f8" d="M 144.5,146.5 C 144.833,146.5 145.167,146.5 145.5,146.5C 145.315,147.17 144.981,147.17 144.5,146.5 Z"/></g>
<g><path style="opacity:1" fill="#dfdfdf" d="M 210.5,142.5 C 208.836,143.743 207.669,145.41 207,147.5C 206.309,145.109 205.309,145.109 204,147.5C 198.333,147.5 192.667,147.5 187,147.5C 186.283,146.956 185.783,146.289 185.5,145.5C 194.24,147.523 202.573,146.523 210.5,142.5 Z"/></g>
<g><path style="opacity:1" fill="#313c8a" d="M 270.5,119.5 C 271.5,119.5 272.5,119.5 273.5,119.5C 273.45,124.552 273.95,129.552 275,134.5C 276.74,138.747 278.24,143.08 279.5,147.5C 277.948,152.872 276.614,158.539 275.5,164.5C 276.456,166.075 277.123,167.742 277.5,169.5C 276.081,170.451 274.415,170.784 272.5,170.5C 271.54,175.41 270.207,180.243 268.5,185C 268.63,186.059 269.13,186.892 270,187.5C 271.919,186.926 273.753,186.593 275.5,186.5C 273.842,190.466 272.175,194.466 270.5,198.5C 268.213,202.122 265.547,205.455 262.5,208.5C 262.762,207.022 262.429,205.689 261.5,204.5C 259.199,205.325 256.865,205.992 254.5,206.5C 256.385,204.947 257.385,202.947 257.5,200.5C 258.906,200.027 259.573,199.027 259.5,197.5C 261.588,195.664 262.921,193.331 263.5,190.5C 264.167,190.5 264.5,190.167 264.5,189.5C 266.975,188.313 267.975,186.313 267.5,183.5C 268.929,180.692 269.595,177.692 269.5,174.5C 271.163,172.562 271.829,170.228 271.5,167.5C 273.136,163.79 273.802,159.79 273.5,155.5C 275.159,143.43 274.159,131.43 270.5,119.5 Z"/></g>
<g><path style="opacity:1" fill="#fefcfc" d="M 286.5,152.5 C 286.34,150.801 286.506,149.134 287,147.5C 287.78,149.387 287.613,151.054 286.5,152.5 Z"/></g>
<g><path style="opacity:1" fill="#f8fafe" d="M 283.5,143.5 C 284.306,144.997 284.972,146.664 285.5,148.5C 284.515,150.098 284.349,151.765 285,153.5C 285.383,152.944 285.883,152.611 286.5,152.5C 286.108,154.179 285.608,155.846 285,157.5C 284.617,156.944 284.117,156.611 283.5,156.5C 283.5,152.167 283.5,147.833 283.5,143.5 Z"/></g>
<g><path style="opacity:1" fill="#2e388a" d="M 280.5,129.5 C 281.167,132.167 281.833,134.833 282.5,137.5C 282.68,146.528 282.347,155.528 281.5,164.5C 281.784,166.415 281.451,168.081 280.5,169.5C 279.5,169.5 278.5,169.5 277.5,169.5C 277.123,167.742 276.456,166.075 275.5,164.5C 276.614,158.539 277.948,152.872 279.5,147.5C 280.5,142.262 280.833,136.262 280.5,129.5 Z"/></g>
<g><path style="opacity:1" fill="#5fb6d9" d="M 246.5,161.5 C 245.224,170.267 242.558,178.6 238.5,186.5C 237.167,188.167 235.833,189.833 234.5,191.5C 234.108,189.821 233.608,188.154 233,186.5C 232.241,188.063 231.074,189.063 229.5,189.5C 229.66,187.847 230.326,186.514 231.5,185.5C 235.381,178.405 238.715,171.071 241.5,163.5C 242.222,163.082 242.722,162.416 243,161.5C 245.726,135.036 246.893,135.036 246.5,161.5 Z"/></g>
<g><path style="opacity:1" fill="#d7daf2" d="M 273.5,153.5 C 273.5,154.167 273.5,154.833 273.5,155.5C 273.802,159.79 273.136,163.79 271.5,167.5C 271.704,164.455 271.704,161.621 271.5,159C 272.109,157.052 272.776,155.218 273.5,153.5 Z"/></g>
<g><path style="opacity:1" fill="#fcfffc" d="M 251.5,161.5 C 252.525,161.897 252.692,162.563 252,163.5C 251.536,162.906 251.369,162.239 251.5,161.5 Z"/></g>
<g><path style="opacity:1" fill="#fffcff" d="M 286.5,167.5 C 287.782,168.708 287.782,170.042 286.5,171.5C 285.374,170.192 285.374,168.858 286.5,167.5 Z"/></g>
<g><path style="opacity:1" fill="#fbfdfe" d="M 268.5,171.5 C 267.475,171.103 267.308,170.437 268,169.5C 268.464,170.094 268.631,170.761 268.5,171.5 Z"/></g>
<g><path style="opacity:1" fill="#2f3a8b" d="M 277.5,169.5 C 278.5,169.5 279.5,169.5 280.5,169.5C 280.326,171.861 279.993,174.194 279.5,176.5C 278.054,179.254 277.054,182.254 276.5,185.5C 275.833,185.5 275.5,185.833 275.5,186.5C 273.753,186.593 271.919,186.926 270,187.5C 269.13,186.892 268.63,186.059 268.5,185C 270.207,180.243 271.54,175.41 272.5,170.5C 274.415,170.784 276.081,170.451 277.5,169.5 Z"/></g>
<g><path style="opacity:1" fill="#fbfcfc" d="M 282.5,170.5 C 283.833,171.5 283.833,172.5 282.5,173.5C 282.5,172.5 282.5,171.5 282.5,170.5 Z"/></g>
<g><path style="opacity:1" fill="#fbfbfb" d="M 107.5,171.5 C 108.833,172.167 108.833,172.167 107.5,171.5 Z"/></g>
<g><path style="opacity:1" fill="#edecfc" d="M 271.5,167.5 C 271.829,170.228 271.163,172.562 269.5,174.5C 269.5,173.833 269.167,173.5 268.5,173.5C 268.5,172.833 268.5,172.167 268.5,171.5C 269.857,170.41 270.857,169.076 271.5,167.5 Z"/></g>
<g><path style="opacity:1" fill="#e9f9fc" d="M 240.5,133.5 C 242.813,143.289 243.146,153.289 241.5,163.5C 238.715,171.071 235.381,178.405 231.5,185.5C 231.5,185.167 231.5,184.833 231.5,184.5C 231.247,182.173 231.914,180.173 233.5,178.5C 230.656,177.803 230.989,176.636 234.5,175C 233.552,174.517 232.552,174.351 231.5,174.5C 231.148,171.927 231.648,169.594 233,167.5C 233.692,168.025 234.192,168.692 234.5,169.5C 233.487,174.569 234.154,174.569 236.5,169.5C 237.117,169.389 237.617,169.056 238,168.5C 238.039,164.419 238.872,160.585 240.5,157C 240.176,152.189 240.176,147.356 240.5,142.5C 240.5,139.5 240.5,136.5 240.5,133.5 Z"/></g>
<g><path style="opacity:1" fill="#fefefa" d="M 236.5,169.5 C 235.833,168.167 235.833,168.167 236.5,169.5 Z"/></g>
<g><path style="opacity:1" fill="#e6e8f8" d="M 283.5,163.5 C 284.014,164.625 284.347,165.791 284.5,167C 283.027,167.71 282.36,168.876 282.5,170.5C 281.167,171.5 281.167,172.5 282.5,173.5C 282.5,175.5 281.5,176.5 279.5,176.5C 279.993,174.194 280.326,171.861 280.5,169.5C 281.451,168.081 281.784,166.415 281.5,164.5C 281.833,164.5 282.167,164.5 282.5,164.5C 283.167,164.5 283.5,164.167 283.5,163.5 Z"/></g>
<g><path style="opacity:1" fill="#fefffa" d="M 112.5,175.5 C 113.833,176.167 113.833,176.167 112.5,175.5 Z"/></g>
<g><path style="opacity:1" fill="#fefdfe" d="M 116.5,175.5 C 117.833,176.167 117.833,176.167 116.5,175.5 Z"/></g>
<g><path style="opacity:1" fill="#f0fbfe" d="M 248.5,136.5 C 249.6,138.277 250.434,140.277 251,142.5C 251.249,141.376 251.749,140.376 252.5,139.5C 253.752,141.001 254.752,142.668 255.5,144.5C 254.74,146.404 254.74,148.404 255.5,150.5C 255.333,151.5 255.167,152.5 255,153.5C 254.667,153.167 254.333,152.833 254,152.5C 253.585,154.291 252.585,155.624 251,156.5C 249.447,161.687 247.947,166.854 246.5,172C 246.833,172.333 247.167,172.667 247.5,173C 245.372,174.743 244.539,176.909 245,179.5C 245.893,178.289 246.726,178.289 247.5,179.5C 244.791,181.542 242.458,183.876 240.5,186.5C 239.833,186.5 239.167,186.5 238.5,186.5C 242.558,178.6 245.224,170.267 246.5,161.5C 247.29,160.391 247.79,159.058 248,157.5C 248.5,150.508 248.666,143.508 248.5,136.5 Z"/></g>
<g><path style="opacity:1" fill="#fafdf9" d="M 263.5,181.5 C 264.525,181.897 264.692,182.563 264,183.5C 263.536,182.906 263.369,182.239 263.5,181.5 Z"/></g>
<g><path style="opacity:1" fill="#e7ecfa" d="M 268.5,173.5 C 269.167,173.5 269.5,173.833 269.5,174.5C 269.595,177.692 268.929,180.692 267.5,183.5C 266.508,185.456 265.508,187.456 264.5,189.5C 264.5,190.167 264.167,190.5 263.5,190.5C 265.51,184.847 267.177,179.18 268.5,173.5 Z"/></g>
<g><path style="opacity:1" fill="#ebfbfd" d="M 118.5,184.5 C 119.268,188.595 121.268,191.928 124.5,194.5C 126.656,196.841 129.156,198.841 132,200.5C 134.859,197.978 137.692,197.978 140.5,200.5C 139.372,201.262 138.205,201.929 137,202.5C 136.383,203.449 136.549,204.282 137.5,205C 139.488,205.18 141.488,205.014 143.5,204.5C 143.64,206.124 142.973,207.29 141.5,208C 142.737,208.232 143.737,208.732 144.5,209.5C 143.833,209.5 143.167,209.5 142.5,209.5C 139.151,208.831 136.484,207.164 134.5,204.5C 132.745,203.928 131.078,203.094 129.5,202C 125.935,198.604 122.602,195.104 119.5,191.5C 116.691,187.375 114.357,183.041 112.5,178.5C 114.479,178.542 116.479,178.542 118.5,178.5C 119.033,180.432 119.033,182.432 118.5,184.5 Z M 118.5,184.5 C 116.972,184.483 116.472,183.816 117,182.5C 117.717,183.044 118.217,183.711 118.5,184.5 Z"/></g>
<g><path style="opacity:1" fill="#5e67a2" d="M 267.5,183.5 C 267.975,186.313 266.975,188.313 264.5,189.5C 265.508,187.456 266.508,185.456 267.5,183.5 Z"/></g>
<g><path style="opacity:1" fill="#fefdfe" d="M 105.5,189.5 C 106.289,189.783 106.956,190.283 107.5,191C 106.184,191.528 105.517,191.028 105.5,189.5 Z"/></g>
<g><path style="opacity:1" fill="#f2fbfd" d="M 238.5,186.5 C 239.167,186.5 239.833,186.5 240.5,186.5C 239.699,188.042 239.366,189.708 239.5,191.5C 240.833,191.5 242.167,191.5 243.5,191.5C 243.129,194.892 241.463,197.558 238.5,199.5C 238.167,198.833 237.833,198.167 237.5,197.5C 235.444,199.019 233.11,199.853 230.5,200C 229.542,201.147 229.875,202.147 231.5,203C 230.244,203.417 229.577,204.25 229.5,205.5C 227.628,206.511 225.628,207.345 223.5,208C 224.76,209.113 225.927,209.28 227,208.5C 227.262,211.084 226.095,212.751 223.5,213.5C 222.833,210.833 222.167,210.833 221.5,213.5C 220.833,213.5 220.167,213.5 219.5,213.5C 219.53,214.497 219.03,215.164 218,215.5C 216.627,214.485 215.46,214.485 214.5,215.5C 211.941,215.39 209.608,216.056 207.5,217.5C 208.534,219.438 207.868,220.772 205.5,221.5C 202.937,221.263 202.937,220.763 205.5,220C 204.072,219.421 202.738,219.588 201.5,220.5C 201.5,219.833 201.5,219.167 201.5,218.5C 209.046,214.615 216.046,209.948 222.5,204.5C 227.236,200.767 231.236,196.434 234.5,191.5C 235.833,189.833 237.167,188.167 238.5,186.5 Z M 234.5,195.5 C 236.975,195.747 236.975,196.413 234.5,197.5C 233.537,197.03 233.537,196.363 234.5,195.5 Z M 219.5,213.5 C 218.448,213.649 217.448,213.483 216.5,213C 217.667,212.5 218.5,211.667 219,210.5C 219.483,211.448 219.649,212.448 219.5,213.5 Z M 223.5,213.5 C 222.833,213.5 222.167,213.5 221.5,213.5C 222.167,210.833 222.833,210.833 223.5,213.5 Z"/></g>
<g><path style="opacity:1" fill="#fefffa" d="M 103.5,190.5 C 104.833,191.167 104.833,191.167 103.5,190.5 Z"/></g>
<g><path style="opacity:1" fill="#6ab8d9" d="M 110.5,175.5 C 111.167,175.833 111.833,176.167 112.5,176.5C 112.5,177.167 112.5,177.833 112.5,178.5C 114.357,183.041 116.691,187.375 119.5,191.5C 115.514,193.473 115.68,195.473 120,197.5C 120.483,198.448 120.649,199.448 120.5,200.5C 112.549,193.894 107.549,185.561 105.5,175.5C 107.167,175.5 108.833,175.5 110.5,175.5 Z"/></g>
<g><path style="opacity:1" fill="#fefffb" d="M 124.5,191.5 C 125.833,192.167 125.833,192.167 124.5,191.5 Z"/></g>
<g><path style="opacity:1" fill="#edf0fb" d="M 263.5,190.5 C 262.921,193.331 261.588,195.664 259.5,197.5C 259.338,195.473 259.505,193.473 260,191.5C 260.333,192.167 260.667,192.833 261,193.5C 261.377,192.058 262.21,191.058 263.5,190.5 Z"/></g>
<g><path style="opacity:1" fill="#fefdfe" d="M 124.5,193.5 C 125.833,194.167 125.833,194.167 124.5,193.5 Z"/></g>
<g><path style="opacity:1" fill="#fefffb" d="M 126.5,193.5 C 127.833,194.167 127.833,194.167 126.5,193.5 Z"/></g>
<g><path style="opacity:1" fill="#61b5db" d="M 234.5,191.5 C 231.236,196.434 227.236,200.767 222.5,204.5C 219.309,204.762 216.642,206.095 214.5,208.5C 212.129,208.108 211.462,207.108 212.5,205.5C 214.316,203.863 216.316,202.363 218.5,201C 219.823,200.184 220.489,199.017 220.5,197.5C 223.485,194.923 226.485,192.256 229.5,189.5C 231.074,189.063 232.241,188.063 233,186.5C 233.608,188.154 234.108,189.821 234.5,191.5 Z"/></g>
<g><path style="opacity:1" fill="#f4f7fb" d="M 279.5,176.5 C 279.108,179.146 279.108,181.646 279.5,184C 278.594,186.447 277.761,188.947 277,191.5C 276.667,191.167 276.333,190.833 276,190.5C 275.535,191.931 274.701,193.097 273.5,194C 274.308,194.308 274.975,194.808 275.5,195.5C 274.389,196.611 273.722,197.945 273.5,199.5C 275.049,201.902 275.716,204.568 275.5,207.5C 273.127,206.797 271.127,205.464 269.5,203.5C 270.301,201.958 270.634,200.292 270.5,198.5C 272.175,194.466 273.842,190.466 275.5,186.5C 275.5,185.833 275.833,185.5 276.5,185.5C 277.054,182.254 278.054,179.254 279.5,176.5 Z"/></g>
<g><path style="opacity:1" fill="#fdfefc" d="M 213.5,201.5 C 212.287,200.503 212.454,199.503 214,198.5C 214.47,199.577 214.303,200.577 213.5,201.5 Z"/></g>
<g><path style="opacity:1" fill="#62b6d9" d="M 119.5,191.5 C 122.602,195.104 125.935,198.604 129.5,202C 131.078,203.094 132.745,203.928 134.5,204.5C 136.484,207.164 139.151,208.831 142.5,209.5C 145.561,211.02 148.561,212.687 151.5,214.5C 149.572,216.294 147.238,217.294 144.5,217.5C 134.762,214.066 126.762,208.4 120.5,200.5C 120.649,199.448 120.483,198.448 120,197.5C 115.68,195.473 115.514,193.473 119.5,191.5 Z"/></g>
<g><path style="opacity:1" fill="#fffdfd" d="M 206.5,200.5 C 207.708,199.218 209.042,199.218 210.5,200.5C 209.652,202.283 208.319,202.783 206.5,202C 209.097,201.221 209.097,200.721 206.5,200.5 Z"/></g>
<g><path style="opacity:1" fill="#fefdfe" d="M 247.5,200.5 C 248.833,201.167 248.833,201.167 247.5,200.5 Z"/></g>
<g><path style="opacity:1" fill="#fffefb" d="M 254.5,203.5 C 253.475,203.103 253.308,202.437 254,201.5C 254.464,202.094 254.631,202.761 254.5,203.5 Z"/></g>
<g><path style="opacity:1" fill="#f8f9f8" d="M 138.5,203.5 C 139.833,204.167 139.833,204.167 138.5,203.5 Z"/></g>
<g><path style="opacity:1" fill="#f9faf9" d="M 252.5,204.5 C 251.833,203.167 251.833,203.167 252.5,204.5 Z"/></g>
<g><path style="opacity:1" fill="#eefcfe" d="M 231.5,184.5 C 231.5,184.833 231.5,185.167 231.5,185.5C 230.326,186.514 229.66,187.847 229.5,189.5C 226.485,192.256 223.485,194.923 220.5,197.5C 220.489,199.017 219.823,200.184 218.5,201C 216.316,202.363 214.316,203.863 212.5,205.5C 207.302,207.93 202.302,210.597 197.5,213.5C 195.435,213.517 193.435,213.85 191.5,214.5C 191.5,213.833 191.5,213.167 191.5,212.5C 194.809,211.337 198.143,210.17 201.5,209C 200.833,208.667 200.167,208.333 199.5,208C 202.036,207.661 204.536,207.161 207,206.5C 209.266,204.15 211.433,202.483 213.5,201.5C 215.449,200.816 217.115,199.649 218.5,198C 217,194.167 218.167,193 222,194.5C 222.749,191.314 223.915,188.314 225.5,185.5C 224.833,184.833 224.167,184.167 223.5,183.5C 223.833,183.167 224.167,182.833 224.5,182.5C 225.833,183.833 227.167,183.833 228.5,182.5C 229.518,183.193 230.518,183.859 231.5,184.5 Z"/></g>
<g><path style="opacity:1" fill="#fefdfe" d="M 232.5,205.5 C 233.525,205.897 233.692,206.563 233,207.5C 232.536,206.906 232.369,206.239 232.5,205.5 Z"/></g>
<g><path style="opacity:1" fill="#f9fffe" d="M 229.5,205.5 C 231.337,205.639 231.67,206.306 230.5,207.5C 229.702,207.043 229.369,206.376 229.5,205.5 Z"/></g>
<g><path style="opacity:1" fill="#fefdfe" d="M 267.5,206.5 C 268.833,207.167 268.833,207.167 267.5,206.5 Z"/></g>
<g><path style="opacity:1" fill="#fdfdfe" d="M 121.5,207.5 C 120.833,208.167 120.833,208.167 121.5,207.5 Z"/></g>
<g><path style="opacity:1" fill="#fefdfe" d="M 155.5,208.5 C 156.251,207.427 157.251,207.26 158.5,208C 157.552,208.483 156.552,208.649 155.5,208.5 Z"/></g>
<g><path style="opacity:1" fill="#dbe1f4" d="M 270.5,198.5 C 270.634,200.292 270.301,201.958 269.5,203.5C 266.075,208.003 262.408,212.337 258.5,216.5C 258.167,216.5 257.833,216.5 257.5,216.5C 259.193,213.816 260.86,211.149 262.5,208.5C 265.547,205.455 268.213,202.122 270.5,198.5 Z"/></g>
<g><path style="opacity:1" fill="#edfbfd" d="M 110.5,175.5 C 108.833,175.5 107.167,175.5 105.5,175.5C 107.549,185.561 112.549,193.894 120.5,200.5C 126.762,208.4 134.762,214.066 144.5,217.5C 159.798,224.185 175.464,225.185 191.5,220.5C 194.903,220.149 198.237,219.482 201.5,218.5C 201.5,219.167 201.5,219.833 201.5,220.5C 187.187,224.382 172.521,225.549 157.5,224C 156.579,222.244 155.412,222.077 154,223.5C 150.793,222.264 147.626,220.931 144.5,219.5C 143.289,220.274 143.289,221.107 144.5,222C 142.306,224.827 139.639,225.16 136.5,223C 138.234,221.266 140.234,219.932 142.5,219C 141.24,217.887 140.073,217.72 139,218.5C 137.664,215.412 135.498,214.412 132.5,215.5C 129.89,211.317 126.223,208.651 121.5,207.5C 122.927,205.1 122.427,204.433 120,205.5C 119.152,201.983 117.152,199.316 114,197.5C 113.692,198.308 113.192,198.975 112.5,199.5C 111.788,195.071 109.788,191.404 106.5,188.5C 105.893,188.624 105.56,188.957 105.5,189.5C 103.957,188.264 102.957,186.598 102.5,184.5C 104.856,183.346 105.023,182.013 103,180.5C 102.333,178.833 102.333,177.167 103,175.5C 105.605,174.186 108.105,174.186 110.5,175.5 Z"/></g>
<g><path style="opacity:1" fill="#ebedf6" d="M 259.5,197.5 C 259.573,199.027 258.906,200.027 257.5,200.5C 257.385,202.947 256.385,204.947 254.5,206.5C 250.556,210.781 246.556,215.115 242.5,219.5C 241.833,219.5 241.167,219.5 240.5,219.5C 240.672,218.508 240.338,217.842 239.5,217.5C 240.071,216.027 240.071,214.36 239.5,212.5C 240.833,212.5 242.167,212.5 243.5,212.5C 243.345,215.853 244.012,216.186 245.5,213.5C 248.186,212.012 247.853,211.345 244.5,211.5C 244.5,209.833 244.5,208.167 244.5,206.5C 246.605,207.991 248.772,208.658 251,208.5C 251.921,207.292 252.421,205.958 252.5,204.5C 253.492,204.672 254.158,204.338 254.5,203.5C 256.673,202.834 257.007,201.667 255.5,200C 256.196,198.107 257.03,196.274 258,194.5C 258.232,195.737 258.732,196.737 259.5,197.5 Z"/></g>
<g><path style="opacity:1" fill="#fefdfe" d="M 127.5,211.5 C 128.525,211.897 128.692,212.563 128,213.5C 127.536,212.906 127.369,212.239 127.5,211.5 Z"/></g>
<g><path style="opacity:1" fill="#e7f7fc" d="M 191.5,212.5 C 191.5,213.167 191.5,213.833 191.5,214.5C 188.632,215.64 185.632,216.64 182.5,217.5C 171.991,218.071 161.657,217.071 151.5,214.5C 148.561,212.687 145.561,211.02 142.5,209.5C 143.167,209.5 143.833,209.5 144.5,209.5C 145.819,208.103 147.486,207.437 149.5,207.5C 153.572,208.682 157.572,209.848 161.5,211C 160.672,211.915 159.672,212.581 158.5,213C 162.727,214.239 167.06,215.072 171.5,215.5C 177.844,214.958 184.177,214.291 190.5,213.5C 189.37,211.568 189.704,211.234 191.5,212.5 Z"/></g>
<g><path style="opacity:1" fill="#69b8d8" d="M 222.5,204.5 C 216.046,209.948 209.046,214.615 201.5,218.5C 198.237,219.482 194.903,220.149 191.5,220.5C 192.681,218.933 194.347,218.099 196.5,218C 195.304,217.346 195.304,216.846 196.5,216.5C 199.8,217.24 202.8,216.407 205.5,214C 202.995,212.705 200.328,212.539 197.5,213.5C 202.302,210.597 207.302,207.93 212.5,205.5C 211.462,207.108 212.129,208.108 214.5,208.5C 216.642,206.095 219.309,204.762 222.5,204.5 Z"/></g>
<g><path style="opacity:1" fill="#fcfcfe" d="M 245.5,213.5 C 244.833,212.167 244.833,212.167 245.5,213.5 Z"/></g>
<g><path style="opacity:1" fill="#fdfdfe" d="M 221.5,213.5 C 222.167,213.5 222.833,213.5 223.5,213.5C 223.157,215.225 222.157,215.725 220.5,215C 221.056,214.617 221.389,214.117 221.5,213.5 Z"/></g>
<g><path style="opacity:1" fill="#fefffb" d="M 262.5,213.5 C 263.833,214.167 263.833,214.167 262.5,213.5 Z"/></g>
<g><path style="opacity:1" fill="#fdfdfe" d="M 214.5,215.5 C 215.833,216.167 215.833,216.167 214.5,215.5 Z"/></g>
<g><path style="opacity:1" fill="#2e3a8c" d="M 262.5,208.5 C 260.86,211.149 259.193,213.816 257.5,216.5C 252.795,221.207 247.795,225.54 242.5,229.5C 241.167,229.5 239.833,229.5 238.5,229.5C 238.186,225.468 239.519,222.135 242.5,219.5C 246.556,215.115 250.556,210.781 254.5,206.5C 256.865,205.992 259.199,205.325 261.5,204.5C 262.429,205.689 262.762,207.022 262.5,208.5 Z"/></g>
<g><path style="opacity:1" fill="#fefffb" d="M 135.5,216.5 C 136.833,217.167 136.833,217.167 135.5,216.5 Z"/></g>
<g><path style="opacity:1" fill="#6db9d8" d="M 151.5,214.5 C 161.657,217.071 171.991,218.071 182.5,217.5C 173.676,218.33 164.676,218.83 155.5,219C 158.936,220.087 162.436,220.921 166,221.5C 174.445,221.388 182.945,221.054 191.5,220.5C 175.464,225.185 159.798,224.185 144.5,217.5C 147.238,217.294 149.572,216.294 151.5,214.5 Z"/></g>
<g><path style="opacity:1" fill="#efeff5" d="M 239.5,217.5 C 239.328,218.492 239.662,219.158 240.5,219.5C 238.363,222.973 235.363,225.306 231.5,226.5C 232.574,225.115 233.907,223.949 235.5,223C 234.552,222.517 233.552,222.351 232.5,222.5C 232.5,221.5 232.5,220.5 232.5,219.5C 234.143,219.48 235.476,220.147 236.5,221.5C 236.833,221.167 237.167,220.833 237.5,220.5C 234.687,217.155 235.353,216.155 239.5,217.5 Z"/></g>
<g><path style="opacity:1" fill="#59b6dc" d="M 191.5,220.5 C 182.945,221.054 174.445,221.388 166,221.5C 162.436,220.921 158.936,220.087 155.5,219C 164.676,218.83 173.676,218.33 182.5,217.5C 185.632,216.64 188.632,215.64 191.5,214.5C 193.435,213.85 195.435,213.517 197.5,213.5C 200.328,212.539 202.995,212.705 205.5,214C 202.8,216.407 199.8,217.24 196.5,216.5C 195.304,216.846 195.304,217.346 196.5,218C 194.347,218.099 192.681,218.933 191.5,220.5 Z"/></g>
<g><path style="opacity:1" fill="#fcfcfe" d="M 147.5,223.5 C 147.897,222.475 148.563,222.308 149.5,223C 148.906,223.464 148.239,223.631 147.5,223.5 Z"/></g>
<g><path style="opacity:1" fill="#fbfffd" d="M 227.5,223.5 C 228.833,224.167 228.833,224.167 227.5,223.5 Z"/></g>
<g><path style="opacity:1" fill="#fafcfc" d="M 206.5,237.5 C 206.5,237.833 206.5,238.167 206.5,238.5C 206.167,238.5 205.833,238.5 205.5,238.5C 202.456,240.011 199.122,240.678 195.5,240.5C 196.263,239.732 197.263,239.232 198.5,239C 196.288,238.211 194.288,238.378 192.5,239.5C 192.167,239.5 191.833,239.5 191.5,239.5C 191.5,234.5 191.5,229.5 191.5,224.5C 192.833,224.5 194.167,224.5 195.5,224.5C 195.5,226.833 195.5,229.167 195.5,231.5C 200.087,230.885 204.087,232.052 207.5,235C 206.5,235.333 205.5,235.667 204.5,236C 205.416,236.278 206.082,236.778 206.5,237.5 Z M 205.5,238.5 C 202.12,238.821 201.287,237.821 203,235.5C 203.698,236.691 204.531,237.691 205.5,238.5 Z"/></g>
<g><path style="opacity:1" fill="#fefffa" d="M 249.5,227.5 C 250.458,227.047 251.292,226.381 252,225.5C 252.483,226.448 252.649,227.448 252.5,228.5C 251.209,228.737 250.209,228.404 249.5,227.5 Z"/></g>
<g><path style="opacity:1" fill="#fefdfe" d="M 254.5,225.5 C 255.833,226.167 255.833,226.167 254.5,225.5 Z"/></g>
<g><path style="opacity:1" fill="#f0f3fd" d="M 231.5,226.5 C 229.206,228.653 226.54,230.32 223.5,231.5C 222.829,230.153 222.829,228.986 223.5,228C 225.129,227.415 226.629,226.581 228,225.5C 229.138,225.989 230.305,226.322 231.5,226.5 Z"/></g>
<g><path style="opacity:1" fill="#343d89" d="M 240.5,219.5 C 241.167,219.5 241.833,219.5 242.5,219.5C 239.519,222.135 238.186,225.468 238.5,229.5C 239.833,229.5 241.167,229.5 242.5,229.5C 238.465,232.857 234.132,235.857 229.5,238.5C 229.703,236.956 230.37,235.622 231.5,234.5C 228.988,233.205 226.321,232.539 223.5,232.5C 223.5,232.167 223.5,231.833 223.5,231.5C 226.54,230.32 229.206,228.653 231.5,226.5C 235.363,225.306 238.363,222.973 240.5,219.5 Z"/></g>
<g><path style="opacity:1" fill="#fffcfe" d="M 247.5,229.5 C 248.766,230.09 250.099,230.59 251.5,231C 249.833,231.667 248.167,231.667 246.5,231C 247.056,230.617 247.389,230.117 247.5,229.5 Z"/></g>
<g><path style="opacity:1" fill="#f2f5fc" d="M 223.5,231.5 C 223.5,231.833 223.5,232.167 223.5,232.5C 219.828,233.835 216.162,235.168 212.5,236.5C 211.833,236.5 211.167,236.5 210.5,236.5C 211.347,235.034 212.68,234.2 214.5,234C 213.062,233.781 211.729,233.281 210.5,232.5C 214.95,231.836 219.283,231.502 223.5,231.5 Z"/></g>
<g><path style="opacity:1" fill="#eaebf6" d="M 257.5,216.5 C 257.833,216.5 258.167,216.5 258.5,216.5C 258.775,218.842 259.608,218.842 261,216.5C 261.891,219.853 260.725,222.187 257.5,223.5C 256.164,222.577 254.83,222.077 253.5,222C 253.833,222.333 254.167,222.667 254.5,223C 253.377,224.044 252.044,224.71 250.5,225C 249.748,225.671 249.414,226.504 249.5,227.5C 248.167,227.5 247.5,228.167 247.5,229.5C 246.883,229.389 246.383,229.056 246,228.5C 244.833,230.167 243.667,231.833 242.5,233.5C 241.914,233.291 241.414,232.957 241,232.5C 240.355,233.646 239.522,234.646 238.5,235.5C 239.002,236.716 239.335,237.883 239.5,239C 237.251,239.863 235.418,239.363 234,237.5C 233.085,238.328 232.419,239.328 232,240.5C 231.014,239.829 229.847,239.829 228.5,240.5C 228.833,239.833 229.167,239.167 229.5,238.5C 234.132,235.857 238.465,232.857 242.5,229.5C 247.795,225.54 252.795,221.207 257.5,216.5 Z"/></g>
<g><path style="opacity:1" fill="#fdfdfe" d="M 241.5,234.5 C 242.833,235.167 242.833,235.167 241.5,234.5 Z"/></g>
<g><path style="opacity:1" fill="#cacef0" d="M 210.5,236.5 C 211.167,236.5 211.833,236.5 212.5,236.5C 211.5,237.167 210.5,237.833 209.5,238.5C 208.5,238.5 207.5,238.5 206.5,238.5C 206.5,238.167 206.5,237.833 206.5,237.5C 207.708,236.766 209.041,236.433 210.5,236.5 Z"/></g>
<g><path style="opacity:1" fill="#303a89" d="M 223.5,232.5 C 226.321,232.539 228.988,233.205 231.5,234.5C 230.37,235.622 229.703,236.956 229.5,238.5C 227.973,238.427 226.973,239.094 226.5,240.5C 223.426,241.302 220.426,242.302 217.5,243.5C 218.768,242.213 218.435,241.213 216.5,240.5C 214.157,239.725 211.823,239.058 209.5,238.5C 210.5,237.833 211.5,237.167 212.5,236.5C 216.162,235.168 219.828,233.835 223.5,232.5 Z"/></g>
<g><path style="opacity:1" fill="#f9faf9" d="M 187.5,240.5 C 186.833,239.167 186.833,239.167 187.5,240.5 Z"/></g>
<g><path style="opacity:1" fill="#aeb4dc" d="M 229.5,238.5 C 229.167,239.167 228.833,239.833 228.5,240.5C 227.833,240.5 227.167,240.5 226.5,240.5C 226.973,239.094 227.973,238.427 229.5,238.5 Z"/></g>
<g><path style="opacity:1" fill="#d5d8ec" d="M 191.5,239.5 C 191.833,240.833 192.167,240.833 192.5,239.5C 193.609,239.557 194.609,239.89 195.5,240.5C 192.663,242.402 189.329,243.069 185.5,242.5C 185.5,242.167 185.5,241.833 185.5,241.5C 186.492,241.672 187.158,241.338 187.5,240.5C 188.833,240.167 190.167,239.833 191.5,239.5 Z"/></g>
<g><path style="opacity:1" fill="#fefefa" d="M 167.5,238.5 C 169.088,239.641 170.421,241.141 171.5,243C 170.969,247.276 169.969,251.443 168.5,255.5C 167.259,252.69 167.592,250.023 169.5,247.5C 167.87,244.724 167.203,241.724 167.5,238.5 Z"/></g>
<g><path style="opacity:1" fill="#2c368e" d="M 209.5,238.5 C 211.823,239.058 214.157,239.725 216.5,240.5C 218.435,241.213 218.768,242.213 217.5,243.5C 214.993,244.892 212.327,245.892 209.5,246.5C 204.935,246.152 200.601,246.819 196.5,248.5C 193.424,248.154 190.424,247.488 187.5,246.5C 191.821,245.411 195.987,244.077 200,242.5C 202.526,242.565 204.859,243.232 207,244.5C 208.852,242.77 208.686,241.604 206.5,241C 207.571,240.148 208.571,239.315 209.5,238.5 Z"/></g>
<g><path style="opacity:1" fill="#f6f8fd" d="M 185.5,241.5 C 185.5,241.833 185.5,242.167 185.5,242.5C 182.482,242.335 179.482,242.502 176.5,243C 175.944,243.383 175.611,243.883 175.5,244.5C 175.167,244.5 174.833,244.5 174.5,244.5C 173.962,242.883 173.629,241.216 173.5,239.5C 174.873,239.343 176.207,239.51 177.5,240C 175.405,240.556 175.238,241.056 177,241.5C 177.945,241.095 178.612,240.428 179,239.5C 180.789,241.229 182.956,241.896 185.5,241.5 Z"/></g>
<g><path style="opacity:1" fill="#7c82b6" d="M 185.5,242.5 C 182.316,243.323 178.983,243.99 175.5,244.5C 175.611,243.883 175.944,243.383 176.5,243C 179.482,242.502 182.482,242.335 185.5,242.5 Z"/></g>
<g><path style="opacity:1" fill="#dfe3f4" d="M 226.5,240.5 C 225.209,241.473 225.209,242.473 226.5,243.5C 224.604,244.466 222.604,244.799 220.5,244.5C 219.833,244.5 219.5,244.833 219.5,245.5C 218.508,245.328 217.842,245.662 217.5,246.5C 212.571,247.32 207.904,248.654 203.5,250.5C 202.167,250.5 200.833,250.5 199.5,250.5C 199.5,250.167 199.5,249.833 199.5,249.5C 203.041,248.92 206.374,247.92 209.5,246.5C 212.327,245.892 214.993,244.892 217.5,243.5C 220.426,242.302 223.426,241.302 226.5,240.5 Z"/></g>
<g><path style="opacity:1" fill="#343e8c" d="M 205.5,238.5 C 205.833,238.5 206.167,238.5 206.5,238.5C 207.5,238.5 208.5,238.5 209.5,238.5C 208.571,239.315 207.571,240.148 206.5,241C 208.686,241.604 208.852,242.77 207,244.5C 204.859,243.232 202.526,242.565 200,242.5C 195.987,244.077 191.821,245.411 187.5,246.5C 190.424,247.488 193.424,248.154 196.5,248.5C 200.601,246.819 204.935,246.152 209.5,246.5C 206.374,247.92 203.041,248.92 199.5,249.5C 195.316,249.851 191.316,250.518 187.5,251.5C 183.818,251.665 180.152,251.499 176.5,251C 174.771,249.211 174.104,247.044 174.5,244.5C 174.833,244.5 175.167,244.5 175.5,244.5C 178.983,243.99 182.316,243.323 185.5,242.5C 189.329,243.069 192.663,242.402 195.5,240.5C 199.122,240.678 202.456,240.011 205.5,238.5 Z"/></g>
<g><path style="opacity:1" fill="#fcfefa" d="M 226.5,240.5 C 227.167,240.5 227.833,240.5 228.5,240.5C 229.609,241.29 230.942,241.79 232.5,242C 231.29,243.039 230.29,244.206 229.5,245.5C 228.038,246.387 226.205,247.387 224,248.5C 223.333,247.833 222.667,247.167 222,246.5C 220.384,247.801 218.884,247.801 217.5,246.5C 218.492,246.672 219.158,246.338 219.5,245.5C 220.167,245.5 220.5,245.167 220.5,244.5C 222.604,244.799 224.604,244.466 226.5,243.5C 225.209,242.473 225.209,241.473 226.5,240.5 Z"/></g>
<g><path style="opacity:1" fill="#fcfefb" d="M 229.5,245.5 C 230.376,245.369 231.043,245.702 231.5,246.5C 229.192,247.873 228.525,247.54 229.5,245.5 Z"/></g>
<g><path style="opacity:1" fill="#b5b9e4" d="M 199.5,249.5 C 199.5,249.833 199.5,250.167 199.5,250.5C 195.548,251.272 191.548,251.605 187.5,251.5C 191.316,250.518 195.316,249.851 199.5,249.5 Z"/></g>
<g><path style="opacity:1" fill="#f9f8fc" d="M 174.5,244.5 C 174.104,247.044 174.771,249.211 176.5,251C 180.152,251.499 183.818,251.665 187.5,251.5C 191.548,251.605 195.548,251.272 199.5,250.5C 200.833,250.5 202.167,250.5 203.5,250.5C 203.918,251.222 204.584,251.722 205.5,252C 203.508,252.574 202.008,253.741 201,255.5C 200.417,253.998 199.584,252.665 198.5,251.5C 197.893,251.624 197.56,251.957 197.5,252.5C 194.15,252.335 190.817,252.502 187.5,253C 189.285,254.163 191.285,254.83 193.5,255C 189.967,255.903 186.633,255.57 183.5,254C 184.5,253.667 185.5,253.333 186.5,253C 183.369,253.089 180.369,252.922 177.5,252.5C 173.782,252.678 173.782,253.511 177.5,255C 175.741,255.798 174.074,255.631 172.5,254.5C 173.718,253.197 173.385,252.197 171.5,251.5C 172.661,249.115 173.661,246.781 174.5,244.5 Z"/></g>
<g><path style="opacity:1" fill="#fefefa" d="M 197.5,252.5 C 198.833,253.167 198.833,253.167 197.5,252.5 Z"/></g>
<g><path style="opacity:1" fill="#fefffa" d="M 197.5,253.5 C 196.833,254.167 196.833,254.167 197.5,253.5 Z"/></g>
<g><path style="opacity:1" fill="#fcfffc" d="M 204.5,254.5 C 205.833,255.167 205.833,255.167 204.5,254.5 Z"/></g>
</svg>
