<?xml version="1.0" encoding="UTF-8"?>
<!DOCTYPE svg PUBLIC "-//W3C//DTD SVG 1.1//EN" "http://www.w3.org/Graphics/SVG/1.1/DTD/svg11.dtd">
<svg xmlns="http://www.w3.org/2000/svg" version="1.1" width="240px" height="241px" style="shape-rendering:geometricPrecision; text-rendering:geometricPrecision; image-rendering:optimizeQuality; fill-rule:evenodd; clip-rule:evenodd" xmlns:xlink="http://www.w3.org/1999/xlink">
<g><path style="opacity:0.604" fill="#221f1f" d="M 108.5,-0.5 C 109.5,-0.5 110.5,-0.5 111.5,-0.5C 112.44,3.46308 112.607,7.46308 112,11.5C 108.619,15.4851 105.286,15.4851 102,11.5C 100.892,7.91367 100.392,4.247 100.5,0.5C 101.5,0.5 102.5,0.5 103.5,0.5C 103.552,4.1981 103.886,7.86477 104.5,11.5C 106.167,11.5 107.833,11.5 109.5,11.5C 109.495,7.46591 109.162,3.46591 108.5,-0.5 Z"/></g>
<g><path style="opacity:0.621" fill="#221f1f" d="M 116.5,-0.5 C 119.167,-0.5 121.833,-0.5 124.5,-0.5C 127.347,2.63516 127.014,5.4685 123.5,8C 125.406,9.85646 126.24,12.0231 126,14.5C 123.33,12.9952 121.164,10.9952 119.5,8.5C 119.193,9.88748 119.193,11.5542 119.5,13.5C 118.167,13.5 116.833,13.5 115.5,13.5C 116.127,8.85921 116.46,4.19254 116.5,-0.5 Z M 118.5,2.5 C 120.42,1.05952 122.087,1.39286 123.5,3.5C 122.307,5.38372 120.641,5.88372 118.5,5C 119.774,4.02278 119.774,3.18944 118.5,2.5 Z"/></g>
<g><path style="opacity:0.57" fill="#221f1f" d="M 130.5,-0.5 C 132.167,-0.5 133.833,-0.5 135.5,-0.5C 136.718,0.161445 138.051,0.828112 139.5,1.5C 139.192,2.30806 138.692,2.97473 138,3.5C 135.695,2.0612 133.862,2.5612 132.5,5C 138.943,6.68448 138.943,7.85115 132.5,8.5C 132.281,9.67504 132.614,10.675 133.5,11.5C 134.931,11.9766 136.264,12.6433 137.5,13.5C 137.192,14.3081 136.692,14.9747 136,15.5C 133.527,14.8803 131.027,14.2136 128.5,13.5C 129.493,8.88972 130.16,4.22306 130.5,-0.5 Z"/></g>
<g><path style="opacity:0.599" fill="#221f1f" d="M 143.5,1.5 C 144.675,1.28099 145.675,1.61432 146.5,2.5C 145.926,4.05887 145.26,5.55887 144.5,7C 146.351,7.83718 148.184,8.67051 150,9.5C 150.813,7.56429 151.313,5.56429 151.5,3.5C 152.5,3.5 153.5,3.5 154.5,3.5C 153.636,8.62254 152.303,13.6225 150.5,18.5C 149.28,18.1131 148.613,17.2798 148.5,16C 149.962,11.6822 148.296,9.84884 143.5,10.5C 143.5,12.1667 143.5,13.8333 143.5,15.5C 142.5,15.5 141.5,15.5 140.5,15.5C 140.874,10.6748 141.874,6.00816 143.5,1.5 Z"/></g>
<g><path style="opacity:0.594" fill="#221f1f" d="M 88.5,2.5 C 94.5158,1.85154 97.8491,4.5182 98.5,10.5C 97.153,15.5219 93.8196,18.1885 88.5,18.5C 86.0824,13.8324 84.7491,8.83244 84.5,3.5C 86.099,3.76781 87.4324,3.43448 88.5,2.5 Z M 87.5,5.5 C 92.0832,4.34297 94.7499,6.00963 95.5,10.5C 94.7972,13.3679 92.9639,15.0346 90,15.5C 89.1621,12.1484 88.3288,8.81507 87.5,5.5 Z"/></g>
<g><path style="opacity:0.598" fill="#221f1f" d="M 78.5,5.5 C 79.4778,5.81103 80.1445,6.4777 80.5,7.5C 78.9539,8.68401 77.2873,9.68401 75.5,10.5C 76,11.5 76.5,12.5 77,13.5C 79.0483,11.1642 80.8817,11.1642 82.5,13.5C 80.8872,14.4274 79.2205,15.2607 77.5,16C 77.9981,17.1581 78.8315,17.9915 80,18.5C 81.5777,17.4528 83.0777,17.4528 84.5,18.5C 82.5729,20.1019 80.4062,21.4353 78,22.5C 75.7716,18.5399 73.9382,14.3732 72.5,10C 74.1363,8.05741 76.1363,6.55741 78.5,5.5 Z"/></g>
<g><path style="opacity:0.613" fill="#221f1f" d="M 162.5,7.5 C 163.5,7.5 164.5,7.5 165.5,7.5C 165.828,12.8746 165.495,18.2079 164.5,23.5C 163.05,22.3446 162.05,20.8446 161.5,19C 160.234,18.6905 159.067,18.1905 158,17.5C 156.759,19.4206 155.259,19.754 153.5,18.5C 156.269,14.6189 159.269,10.9522 162.5,7.5 Z M 161.5,12.5 C 162.598,13.6009 162.765,14.9343 162,16.5C 161.25,15.8742 160.416,15.3742 159.5,15C 160.381,14.2917 161.047,13.4584 161.5,12.5 Z"/></g>
<g><path style="opacity:0.551" fill="#221f1f" d="M 63.5,18.5 C 64.7562,18.4614 65.7562,18.9614 66.5,20C 62.3017,23.03 57.9684,25.8633 53.5,28.5C 52.1667,27.5 52.1667,26.5 53.5,25.5C 56.8998,23.1444 60.2331,20.8111 63.5,18.5 Z"/></g>
<g><path style="opacity:0.592" fill="#221f1f" d="M 176.5,19.5 C 180.979,22.2435 185.312,25.2435 189.5,28.5C 188.635,29.5827 187.635,29.7494 186.5,29C 182.696,26.6955 179.03,24.1955 175.5,21.5C 175.863,20.8165 176.196,20.1499 176.5,19.5 Z"/></g>
<g><path style="opacity:0.557" fill="#221f1f" d="M 39.5,28.5 C 40.4972,28.4701 41.1639,28.9701 41.5,30C 40.0734,31.7002 39.24,33.5335 39,35.5C 39.414,35.9574 39.914,36.2907 40.5,36.5C 45.7148,32.6559 46.3814,33.3225 42.5,38.5C 42.7093,39.086 43.0426,39.586 43.5,40C 52.4981,36.7079 52.8314,38.2079 44.5,44.5C 40.8333,41.5 37.5,38.1667 34.5,34.5C 36.1897,32.4807 37.8564,30.4807 39.5,28.5 Z"/></g>
<g><path style="opacity:0.578" fill="#221f1f" d="M 200.5,31.5 C 201.995,31.4148 202.995,32.0815 203.5,33.5C 201.517,35.9837 199.35,38.3171 197,40.5C 196.167,43.6667 197.333,44.8333 200.5,44C 203.311,42.3563 205.644,40.1897 207.5,37.5C 208.5,37.8333 209.167,38.5 209.5,39.5C 206.41,44.4746 202.077,46.9746 196.5,47C 194.643,45.8176 193.643,44.151 193.5,42C 195.631,38.3681 197.965,34.8681 200.5,31.5 Z"/></g>
<g><path style="opacity:0.875" fill="#39b549" d="M 72.5,35.5 C 81.4238,35.3534 85.2571,39.6868 84,48.5C 81.3674,53.7315 77.2008,55.5649 71.5,54C 66.2685,51.3674 64.4351,47.2008 66,41.5C 67.4361,38.5581 69.6028,36.5581 72.5,35.5 Z"/></g>
<g><path style="opacity:0.6" fill="#221f1f" d="M 29.5,38.5 C 33.6424,40.1195 37.1424,42.7862 40,46.5C 40.6302,48.9034 39.7969,50.7367 37.5,52C 35.5355,52.624 33.8689,52.124 32.5,50.5C 34.1667,49.8333 35.8333,49.1667 37.5,48.5C 34.3579,45.3785 31.6913,42.0452 29.5,38.5 Z"/></g>
<g><path style="opacity:0.875" fill="#39b549" d="M 92.5,38.5 C 93.9088,45.0392 95.7422,51.7059 98,58.5C 103.512,60.5949 108.179,63.9282 112,68.5C 113.471,71.3791 114.138,74.3791 114,77.5C 110.294,74.3918 106.127,72.5584 101.5,72C 100.688,78.0851 100.188,84.2518 100,90.5C 95.8939,83.4608 90.7273,77.2942 84.5,72C 78.0852,69.5284 71.7519,66.8617 65.5,64C 63.4148,62.9586 61.7481,61.4586 60.5,59.5C 68.4246,59.3737 76.0912,57.2071 83.5,53C 87.9828,49.0317 90.9828,44.1984 92.5,38.5 Z"/></g>
<g><path style="opacity:0.867" fill="#eb008b" d="M 166.5,40.5 C 176.674,41.8622 179.841,47.1955 176,56.5C 171.827,60.6942 167.327,61.1942 162.5,58C 156.762,50.6214 158.095,44.7881 166.5,40.5 Z"/></g>
<g><path style="opacity:0.871" fill="#eb008b" d="M 151.5,43.5 C 153.035,48.0295 154.869,52.6962 157,57.5C 159.778,60.8071 163.278,62.9738 167.5,64C 172.926,64.2591 178.26,64.4258 183.5,64.5C 176.101,67.6133 169.268,71.6133 163,76.5C 158.434,84.3574 154.934,92.6907 152.5,101.5C 150.004,86.9869 141.67,79.3203 127.5,78.5C 142.574,71.7477 150.574,60.0811 151.5,43.5 Z"/></g>
<g><path style="opacity:0.605" fill="#221f1f" d="M 211.5,43.5 C 217.405,46.1867 218.905,50.52 216,56.5C 209.612,60.7474 204.779,59.2474 201.5,52C 205.005,49.3256 208.338,46.4923 211.5,43.5 Z M 211.5,47.5 C 213.722,47.5587 214.722,48.7253 214.5,51C 212.436,57.4602 209.103,58.1269 204.5,53C 207.02,51.3029 209.353,49.4695 211.5,47.5 Z"/></g>
<g><path style="opacity:0.562" fill="#221f1f" d="M 22.5,47.5 C 25.947,49.3967 29.2804,51.5633 32.5,54C 34.7843,55.3629 34.951,56.8629 33,58.5C 29.6421,55.6415 26.1421,52.9749 22.5,50.5C 21.4376,49.5754 21.4376,48.5754 22.5,47.5 Z"/></g>
<g><path style="opacity:0.689" fill="#39b549" d="M 100.5,50.5 C 109.627,51.113 115.794,55.7797 119,64.5C 120.492,69.4107 120.826,74.4107 120,79.5C 118.846,80.7433 117.512,81.7433 116,82.5C 118.028,72.1111 115.194,63.2778 107.5,56C 104.786,54.2064 101.786,53.0397 98.5,52.5C 99.2427,51.8182 99.9094,51.1515 100.5,50.5 Z"/></g>
<g><path style="opacity:0.611" fill="#221f1f" d="M 22.5,54.5 C 23.525,54.8966 23.6917,55.5632 23,56.5C 21.8289,57.8932 20.3289,58.7265 18.5,59C 15.8421,63.2032 17.0088,66.0365 22,67.5C 25.8645,66.4381 27.0312,64.1047 25.5,60.5C 25.8333,59.5 26.5,58.8333 27.5,58.5C 30.3967,64.3883 28.5633,68.3883 22,70.5C 14.8637,68.5598 12.8637,64.2265 16,57.5C 18.166,56.2685 20.3326,55.2685 22.5,54.5 Z"/></g>
<g><path style="opacity:0.614" fill="#221f1f" d="M 220.5,57.5 C 224.591,59.0134 226.091,62.0134 225,66.5C 223.135,68.6732 220.969,69.0066 218.5,67.5C 217.05,68.8498 216.383,70.5165 216.5,72.5C 215.5,72.5 214.5,72.5 213.5,72.5C 213.506,69.4824 214.506,66.8157 216.5,64.5C 214.887,64.0321 213.387,64.6987 212,66.5C 211.075,65.9535 210.242,65.2868 209.5,64.5C 213.062,61.8924 216.729,59.5591 220.5,57.5 Z M 220.5,60.5 C 222.121,60.7869 223.121,61.7869 223.5,63.5C 221.663,66.2472 219.996,66.0805 218.5,63C 219.381,62.2917 220.047,61.4584 220.5,60.5 Z"/></g>
<g><path style="opacity:0.586" fill="#221f1f" d="M 228.5,69.5 C 230.085,70.0024 230.585,71.0024 230,72.5C 227.239,73.7958 224.405,74.9625 221.5,76C 220.01,78.2003 220.343,80.0336 222.5,81.5C 225.739,80.2957 228.906,78.9624 232,77.5C 232.692,78.0253 233.192,78.6919 233.5,79.5C 230.249,81.6418 226.749,83.3084 223,84.5C 218.481,83.1323 216.815,80.1323 218,75.5C 221.351,73.0795 224.851,71.0795 228.5,69.5 Z"/></g>
<g><path style="opacity:0.679" fill="#39b549" d="M 70.5,70.5 C 80.3564,71.5054 86.8564,76.8388 90,86.5C 92.3797,91.732 91.8797,96.5653 88.5,101C 87.365,101.749 86.365,101.583 85.5,100.5C 87.7649,90.1866 84.7649,81.6866 76.5,75C 73.9556,73.908 71.2889,73.2414 68.5,73C 69.3805,72.2917 70.0472,71.4584 70.5,70.5 Z"/></g>
<g><path style="opacity:0.618" fill="#221f1f" d="M 7.5,73.5 C 12.8333,73.5 18.1667,73.5 23.5,73.5C 23.5,74.5 23.5,75.5 23.5,76.5C 19.926,75.9079 17.926,77.4079 17.5,81C 19.4206,82.2408 19.754,83.7408 18.5,85.5C 15.1472,82.3128 11.6472,79.3128 8,76.5C 7.51722,75.552 7.35055,74.552 7.5,73.5 Z M 12.5,77.5 C 13.7082,76.218 15.0416,76.218 16.5,77.5C 15.1916,78.6256 13.8583,78.6256 12.5,77.5 Z"/></g>
<g><path style="opacity:0.563" fill="#39b549" d="M 68.5,77.5 C 69.7498,77.5774 70.5831,78.244 71,79.5C 72.2823,88.4142 76.7823,95.0808 84.5,99.5C 80.6783,100.895 77.5117,99.8946 75,96.5C 70.9431,90.8295 68.7764,84.4962 68.5,77.5 Z"/></g>
<g><path style="opacity:0.575" fill="#221f1f" d="M 4.5,83.5 C 6.65163,84.0768 6.98496,85.2435 5.5,87C 9.11381,88.3204 12.7805,89.487 16.5,90.5C 17.3857,91.325 17.719,92.325 17.5,93.5C 13.1259,92.6564 8.79255,91.6564 4.5,90.5C 4.5,91.5 4.5,92.5 4.5,93.5C 3.32496,93.719 2.32496,93.3857 1.5,92.5C 2.65943,89.5186 3.65943,86.5186 4.5,83.5 Z"/></g>
<g><path style="opacity:0.582" fill="#221f1f" d="M 232.5,97.5 C 232.5,98.5 232.5,99.5 232.5,100.5C 224.853,100.687 221.686,97.02 223,89.5C 229.866,83.3078 234.699,84.6412 237.5,93.5C 237.357,97.3018 235.69,98.6351 232.5,97.5 Z M 232.5,97.5 C 231.801,95.444 230.801,93.444 229.5,91.5C 228.24,93.3529 228.24,95.1862 229.5,97C 226.807,97.1901 225.141,95.8568 224.5,93C 228.015,87.1374 231.348,87.1374 234.5,93C 233.586,94.4064 232.92,95.9064 232.5,97.5 Z"/></g>
<g><path style="opacity:0.552" fill="#221f1f" d="M 1.5,96.5 C 5.46767,97.3937 9.46767,98.227 13.5,99C 15.4054,99.8261 15.7388,100.993 14.5,102.5C 10.5357,101.561 6.53569,100.728 2.5,100C 0.27299,99.296 -0.0603434,98.1294 1.5,96.5 Z"/></g>
<g><path style="opacity:0.004" fill="#221f1f" d="M 224.5,103.5 C 223.833,102.167 223.833,102.167 224.5,103.5 Z"/></g>
<g><path style="opacity:0.564" fill="#221f1f" d="M -0.5,110.5 C -0.5,109.5 -0.5,108.5 -0.5,107.5C 3.5,107.833 7.5,108.167 11.5,108.5C 11.2308,106.571 11.7308,104.905 13,103.5C 14.7566,105.88 14.9233,108.38 13.5,111C 8.81593,111.461 4.14927,111.295 -0.5,110.5 Z"/></g>
<g><path style="opacity:0.61" fill="#221f1f" d="M 224.5,103.5 C 229.532,104.341 234.532,105.341 239.5,106.5C 239.5,107.833 239.5,109.167 239.5,110.5C 234.712,111.81 230.212,113.81 226,116.5C 225.51,115.207 225.343,113.873 225.5,112.5C 226.5,112.5 227.5,112.5 228.5,112.5C 228.167,110.5 227.833,108.5 227.5,106.5C 226.5,106.5 225.5,106.5 224.5,106.5C 224.5,105.5 224.5,104.5 224.5,103.5 Z M 230.5,107.5 C 234.88,108.099 235.214,109.099 231.5,110.5C 230.614,109.675 230.281,108.675 230.5,107.5 Z"/></g>
<g><path style="opacity:0.885" fill="#faab20" d="M 155.5,108.5 C 159.814,112.628 164.814,115.794 170.5,118C 179.57,119.433 188.57,119.933 197.5,119.5C 185.421,129.903 182.088,142.57 187.5,157.5C 187.167,157.833 186.833,158.167 186.5,158.5C 182.005,151.839 176.338,146.339 169.5,142C 160.818,139.886 152.318,140.386 144,143.5C 143.333,142.833 143.333,142.167 144,141.5C 159.615,134.445 163.448,123.445 155.5,108.5 Z"/></g>
<g><path style="opacity:0.865" fill="#ec1c23" d="M 82.5,109.5 C 83.0431,109.56 83.3764,109.893 83.5,110.5C 79.4384,118.887 79.6051,127.22 84,135.5C 86.0673,138.07 88.5673,140.07 91.5,141.5C 92.5827,142.365 92.7494,143.365 92,144.5C 76.6933,142.568 64.5266,147.901 55.5,160.5C 59.7908,144.091 53.7908,133.091 37.5,127.5C 56.5208,130.841 71.5208,124.841 82.5,109.5 Z"/></g>
<g><path style="opacity:0.599" fill="#221f1f" d="M -0.5,114.5 C 4.16667,114.5 8.83333,114.5 13.5,114.5C 13.5,115.5 13.5,116.5 13.5,117.5C 8.83333,117.5 4.16667,117.5 -0.5,117.5C -0.5,116.5 -0.5,115.5 -0.5,114.5 Z"/></g>
<g><path style="opacity:0.634" fill="#221f1f" d="M -0.5,131.5 C -0.5,128.5 -0.5,125.5 -0.5,122.5C 3.69448,122.651 7.69448,122.151 11.5,121C 13.0466,123.773 14.0466,126.773 14.5,130C 9.69122,131.442 4.69122,131.942 -0.5,131.5 Z M 8.5,123.5 C 11.0838,124.048 12.0838,125.715 11.5,128.5C 10.1667,128.5 8.83333,128.5 7.5,128.5C 7.36596,126.708 7.69929,125.042 8.5,123.5 Z M 1.5,124.5 C 2.5,124.5 3.5,124.5 4.5,124.5C 4.33003,125.822 4.66337,126.989 5.5,128C 4.20677,128.49 2.87344,128.657 1.5,128.5C 1.5,127.167 1.5,125.833 1.5,124.5 Z"/></g>
<g><path style="opacity:0.582" fill="#221f1f" d="M 239.5,125.5 C 239.5,127.833 239.5,130.167 239.5,132.5C 238.064,134.319 236.397,134.652 234.5,133.5C 236.415,131.929 237.415,129.929 237.5,127.5C 236.325,127.281 235.325,127.614 234.5,128.5C 231.656,135.95 228.322,136.283 224.5,129.5C 224.891,125.775 226.891,123.775 230.5,123.5C 229.199,125.672 228.199,128.005 227.5,130.5C 228.552,130.649 229.552,130.483 230.5,130C 231.689,124.801 234.689,123.301 239.5,125.5 Z"/></g>
<g><path style="opacity:0.884" fill="#faab20" d="M 194.5,131.5 C 204.039,130.869 208.206,135.203 207,144.5C 203.96,150.368 199.46,151.868 193.5,149C 186.78,142.765 187.114,136.931 194.5,131.5 Z"/></g>
<g><path style="opacity:0.605" fill="#221f1f" d="M 12.5,133.5 C 13.4972,133.47 14.1639,133.97 14.5,135C 13.7282,136.221 12.7282,137.221 11.5,138C 12.3802,139.356 12.7135,140.856 12.5,142.5C 15.6802,142.176 16.8469,143.51 16,146.5C 12.2405,145.51 8.40719,144.677 4.5,144C 2.71387,143.804 1.38054,142.971 0.5,141.5C 4.24582,138.415 8.24582,135.749 12.5,133.5 Z M 9.5,141.5 C 4.97858,141.674 4.64525,141.007 8.5,139.5C 9.29755,139.957 9.63088,140.624 9.5,141.5 Z"/></g>
<g><path style="opacity:0.879" fill="#ec1c23" d="M 40.5,136.5 C 49.4238,136.353 53.2571,140.687 52,149.5C 49.3674,154.732 45.2008,156.565 39.5,155C 34.2685,152.367 32.4351,148.201 34,142.5C 35.4936,139.686 37.6603,137.686 40.5,136.5 Z"/></g>
<g><path style="opacity:0.559" fill="#221f1f" d="M 236.5,137.5 C 237.693,137.97 238.36,138.97 238.5,140.5C 237.905,143.14 237.572,145.807 237.5,148.5C 236.5,148.5 235.5,148.5 234.5,148.5C 234.33,147.178 234.663,146.011 235.5,145C 231.654,143.464 227.654,142.631 223.5,142.5C 223.5,141.5 223.5,140.5 223.5,139.5C 227.448,139.686 231.281,140.352 235,141.5C 235.791,140.255 236.291,138.922 236.5,137.5 Z"/></g>
<g><path style="opacity:0.578" fill="#221f1f" d="M 15.5,147.5 C 16.4778,147.811 17.1445,148.478 17.5,149.5C 16.3446,150.95 14.8446,151.95 13,152.5C 13.0187,154.107 13.1854,155.774 13.5,157.5C 15.8056,157.007 18.139,156.674 20.5,156.5C 20.5,157.5 20.5,158.5 20.5,159.5C 15.7816,160.802 11.1149,161.968 6.5,163C 6.04265,162.586 5.70931,162.086 5.5,161.5C 7.4534,160.239 9.4534,159.073 11.5,158C 10.6198,156.644 10.2865,155.144 10.5,153.5C 8.19438,153.993 5.86105,154.326 3.5,154.5C 3.5,153.5 3.5,152.5 3.5,151.5C 7.91546,151.139 11.9155,149.806 15.5,147.5 Z"/></g>
<g><path style="opacity:0.884" fill="#0e75bc" d="M 137.5,147.5 C 132.625,164.004 136.292,178.671 148.5,191.5C 148.167,191.833 147.833,192.167 147.5,192.5C 136.115,184.115 124.448,183.615 112.5,191C 108.667,194.167 104.833,197.333 101,200.5C 105.194,191.274 109.028,181.774 112.5,172C 111.352,164.057 108.352,156.89 103.5,150.5C 103.833,150.167 104.167,149.833 104.5,149.5C 113.735,156.031 123.402,156.865 133.5,152C 135.041,150.629 136.375,149.129 137.5,147.5 Z"/></g>
<g><path style="opacity:0.586" fill="#221f1f" d="M 224.5,148.5 C 228.11,149.703 231.777,150.703 235.5,151.5C 235.5,152.5 235.5,153.5 235.5,154.5C 231.904,153.801 228.404,152.801 225,151.5C 222.739,152.772 222.239,154.438 223.5,156.5C 226.68,158.095 230.013,159.095 233.5,159.5C 233.5,160.5 233.5,161.5 233.5,162.5C 229.042,162.07 224.876,160.736 221,158.5C 219.018,154.121 220.184,150.788 224.5,148.5 Z"/></g>
<g><path style="opacity:0.564" fill="#221f1f" d="M 19.5,161.5 C 20.675,161.281 21.675,161.614 22.5,162.5C 23.1228,164.711 24.1228,166.711 25.5,168.5C 21.8422,170.329 18.1756,172.162 14.5,174C 13.365,174.749 12.365,174.583 11.5,173.5C 9.9802,171.338 8.9802,169.005 8.5,166.5C 11.3455,166.809 12.8455,168.475 13,171.5C 14.0674,170.809 15.2341,170.309 16.5,170C 14.7554,168.308 14.4221,166.475 15.5,164.5C 16.8333,165.833 18.1667,167.167 19.5,168.5C 20.5,168.167 21.1667,167.5 21.5,166.5C 20.0499,165.15 19.3832,163.484 19.5,161.5 Z"/></g>
<g><path style="opacity:0.604" fill="#221f1f" d="M 216.5,161.5 C 221.167,163.167 225.833,164.833 230.5,166.5C 228.362,176.828 223.195,178.828 215,172.5C 214.415,168.678 214.915,165.011 216.5,161.5 Z M 218.5,164.5 C 221.473,165.987 224.473,167.487 227.5,169C 225.376,173.823 222.209,174.656 218,171.5C 217.444,169.115 217.61,166.782 218.5,164.5 Z"/></g>
<g><path style="opacity:0.605" fill="#221f1f" d="M 25.5,171.5 C 26.5862,171.62 27.2528,172.287 27.5,173.5C 26.3516,175.761 25.8516,178.095 26,180.5C 27.1545,179.257 28.4878,178.257 30,177.5C 30.6924,178.025 31.1924,178.692 31.5,179.5C 27.795,182.526 23.795,185.192 19.5,187.5C 17.007,184.898 15.8403,181.898 16,178.5C 17.7981,176.163 19.9647,175.497 22.5,176.5C 23.7629,174.971 24.7629,173.305 25.5,171.5 Z M 19.5,178.5 C 23.9757,179.723 24.3091,181.389 20.5,183.5C 18.2957,182.218 17.9624,180.551 19.5,178.5 Z"/></g>
<g><path style="opacity:0.577" fill="#221f1f" d="M 210.5,174.5 C 214.43,176.581 218.264,178.914 222,181.5C 221.921,183.846 221.088,186.013 219.5,188C 218.365,188.749 217.365,188.583 216.5,187.5C 217.624,186.086 218.624,184.586 219.5,183C 216.841,181.378 214.841,182.211 213.5,185.5C 212.692,185.192 212.025,184.692 211.5,184C 214.758,181.57 214.758,179.736 211.5,178.5C 210.5,180.167 209.167,181.5 207.5,182.5C 206.417,181.635 206.251,180.635 207,179.5C 208.669,178.154 209.836,176.487 210.5,174.5 Z"/></g>
<g><path style="opacity:0.599" fill="#221f1f" d="M 204.5,183.5 C 209.232,186.232 212.898,189.898 215.5,194.5C 211.413,194.52 207.413,194.353 203.5,194C 205.833,195.833 208.167,197.667 210.5,199.5C 210.167,200.5 209.5,201.167 208.5,201.5C 203.647,198.833 200.314,195.333 198.5,191C 202.177,190.892 205.843,190.892 209.5,191C 205.74,189.486 204.073,186.986 204.5,183.5 Z"/></g>
<g><path style="opacity:0.59" fill="#221f1f" d="M 35.5,186.5 C 37.9639,188.135 39.9639,190.301 41.5,193C 38.3392,196.327 35.0059,199.494 31.5,202.5C 29.6588,200.489 27.9921,198.322 26.5,196C 26.8333,195.5 27.1667,195 27.5,194.5C 28.5,196.167 29.8333,197.5 31.5,198.5C 32.5,198.167 33.1667,197.5 33.5,196.5C 32.5,195.167 31.5,193.833 30.5,192.5C 32.8433,191.275 34.6766,191.941 36,194.5C 36.8333,193.667 37.6667,192.833 38.5,192C 36.393,190.736 35.393,188.903 35.5,186.5 Z"/></g>
<g><path style="opacity:0.909" fill="#0e75ba" d="M 134.5,203.5 C 129.637,203.181 124.97,203.514 120.5,204.5C 119.833,203.833 119.167,203.167 118.5,202.5C 118.5,202.167 118.5,201.833 118.5,201.5C 116.484,193.996 119.317,189.329 127,187.5C 135.741,189.98 138.241,195.313 134.5,203.5 Z"/></g>
<g><path style="opacity:0.564" fill="#221f1f" d="M 42.5,194.5 C 44.3841,194.712 45.7174,195.712 46.5,197.5C 45.4798,199.432 45.3131,201.432 46,203.5C 47.3234,200.941 49.1567,200.275 51.5,201.5C 48.1667,205.167 44.8333,208.833 41.5,212.5C 40.5,212.167 39.8333,211.5 39.5,210.5C 43.7885,206.685 43.1219,205.685 37.5,207.5C 35.7923,207.297 34.459,206.464 33.5,205C 36.914,204.703 40.2473,204.036 43.5,203C 42.5562,200.281 42.2229,197.448 42.5,194.5 Z"/></g>
<g><path style="opacity:0.589" fill="#221f1f" d="M 194.5,194.5 C 195.376,194.369 196.043,194.702 196.5,195.5C 198.274,198.715 199.774,202.048 201,205.5C 201.774,207.403 201.44,209.07 200,210.5C 195.217,208.196 190.717,205.53 186.5,202.5C 188.006,201.253 189.506,201.253 191,202.5C 192.214,200.951 193.714,199.785 195.5,199C 193.452,197.774 193.119,196.274 194.5,194.5 Z M 197.5,205.5 C 194.599,204.822 194.099,203.488 196,201.5C 196.791,202.745 197.291,204.078 197.5,205.5 Z"/></g>
<g><path style="opacity:0.758" fill="#231d1e" d="M 118.5,201.5 C 118.5,201.833 118.5,202.167 118.5,202.5C 118.343,203.873 118.51,205.207 119,206.5C 119.717,205.956 120.217,205.289 120.5,204.5C 124.97,203.514 129.637,203.181 134.5,203.5C 135.918,205.308 137.918,205.975 140.5,205.5C 140.5,206.5 140.5,207.5 140.5,208.5C 136.188,209.326 132.021,210.66 128,212.5C 123.545,211.094 119.045,209.76 114.5,208.5C 115.167,207.833 115.833,207.167 116.5,206.5C 115.691,204.929 115.357,203.262 115.5,201.5C 116.5,201.5 117.5,201.5 118.5,201.5 Z"/></g>
<g><path style="opacity:0.572" fill="#221f1f" d="M 51.5,205.5 C 57.1878,204.531 60.1878,206.864 60.5,212.5C 59.0222,212.762 57.6888,212.429 56.5,211.5C 57.4756,209.877 56.9756,208.543 55,207.5C 54.3076,208.025 53.8076,208.692 53.5,209.5C 54.5401,211.523 55.5401,213.523 56.5,215.5C 54.0014,220.426 50.8347,220.759 47,216.5C 46.51,215.207 46.3433,213.873 46.5,212.5C 47.5,212.5 48.5,212.5 49.5,212.5C 49.2479,215.932 50.5812,216.932 53.5,215.5C 50.6419,212.543 49.9752,209.21 51.5,205.5 Z"/></g>
<g><path style="opacity:0.571" fill="#221f1f" d="M 180.5,206.5 C 184.413,208.413 187.413,211.413 189.5,215.5C 190.5,214.833 191.5,214.167 192.5,213.5C 192.833,214 193.167,214.5 193.5,215C 191.288,217.71 188.621,219.877 185.5,221.5C 184.1,219.218 184.766,217.718 187.5,217C 184.261,213.999 181.928,210.499 180.5,206.5 Z"/></g>
<g><path style="opacity:0.6" fill="#221f1f" d="M 174.5,210.5 C 175.649,210.791 176.316,211.624 176.5,213C 177.074,216.689 177.741,220.356 178.5,224C 178.333,225.5 177.5,226.333 176,226.5C 172.005,223.337 168.172,220.004 164.5,216.5C 166.611,215.152 168.445,215.485 170,217.5C 172.509,215.816 174.009,213.482 174.5,210.5 Z M 174.5,221.5 C 171.19,220.129 171.023,218.796 174,217.5C 174.49,218.793 174.657,220.127 174.5,221.5 Z"/></g>
<g><path style="opacity:0.576" fill="#221f1f" d="M 63.5,212.5 C 69.2098,211.867 71.2098,214.201 69.5,219.5C 67.8888,218.68 67.2222,217.346 67.5,215.5C 66.325,215.281 65.325,215.614 64.5,216.5C 63.2939,219.079 61.9606,221.579 60.5,224C 59.365,224.749 58.365,224.583 57.5,223.5C 59.5283,219.816 61.5283,216.15 63.5,212.5 Z"/></g>
<g><path style="opacity:0.557" fill="#221f1f" d="M 73.5,216.5 C 74.5,216.5 75.5,216.5 76.5,216.5C 75.1307,220.912 73.464,225.246 71.5,229.5C 70.675,230.386 69.675,230.719 68.5,230.5C 70.1598,225.844 71.8264,221.177 73.5,216.5 Z"/></g>
<g><path style="opacity:0.552" fill="#221f1f" d="M 155.5,219.5 C 156.496,219.414 157.329,219.748 158,220.5C 159.205,224.616 160.705,228.616 162.5,232.5C 159.789,234.856 156.789,235.523 153.5,234.5C 154.936,233.066 156.602,231.9 158.5,231C 157.874,230.25 157.374,229.416 157,228.5C 151.216,229.331 151.05,228.331 156.5,225.5C 156,224.5 155.5,223.5 155,222.5C 153.416,223.861 151.582,224.528 149.5,224.5C 149.5,223.5 149.5,222.5 149.5,221.5C 151.786,221.405 153.786,220.738 155.5,219.5 Z"/></g>
<g><path style="opacity:0.572" fill="#221f1f" d="M 79.5,220.5 C 85.7658,219.117 89.4325,221.45 90.5,227.5C 90.0268,233.146 87.0268,235.646 81.5,235C 77.6026,233.655 75.9359,231.155 76.5,227.5C 78.4212,228.714 80.0879,230.214 81.5,232C 86.9919,232.486 88.8253,229.986 87,224.5C 85.6667,223.833 84.3333,223.167 83,222.5C 78.3837,225.539 77.217,224.872 79.5,220.5 Z"/></g>
<g><path style="opacity:0.609" fill="#221f1f" d="M 145.5,222.5 C 146.117,222.611 146.617,222.944 147,223.5C 148.475,228.063 149.308,232.73 149.5,237.5C 139.896,240.637 135.73,237.303 137,227.5C 139.398,224.892 142.231,223.225 145.5,222.5 Z M 141.5,226.5 C 142.822,226.33 143.989,226.663 145,227.5C 145.567,230.168 146.067,232.834 146.5,235.5C 144.208,235.756 142.041,235.423 140,234.5C 139.133,231.479 139.633,228.812 141.5,226.5 Z"/></g>
<g><path style="opacity:0.585" fill="#221f1f" d="M 93.5,223.5 C 96.5,223.167 97.8333,224.5 97.5,227.5C 100.29,227.778 102.79,227.111 105,225.5C 105.5,225.833 106,226.167 106.5,226.5C 104.167,230.5 101.833,234.5 99.5,238.5C 98.6086,239.59 97.6086,239.59 96.5,238.5C 95.3905,233.507 94.3905,228.507 93.5,223.5 Z M 97.5,229.5 C 100.686,229.974 101.186,231.307 99,233.5C 98.2086,232.255 97.7086,230.922 97.5,229.5 Z"/></g>
<g><path style="opacity:0.59" fill="#221f1f" d="M 117.5,240.5 C 116.5,240.5 115.5,240.5 114.5,240.5C 114.358,235.805 113.025,235.805 110.5,240.5C 109.5,240.5 108.5,240.5 107.5,240.5C 108.882,237.606 110.882,235.106 113.5,233C 111.316,230.984 109.316,228.817 107.5,226.5C 108.365,225.417 109.365,225.251 110.5,226C 112.359,227.558 113.859,229.391 115,231.5C 115.494,229.866 115.66,228.199 115.5,226.5C 116.5,226.5 117.5,226.5 118.5,226.5C 118.563,231.203 118.229,235.87 117.5,240.5 Z"/></g>
<g><path style="opacity:0.605" fill="#221f1f" d="M 133.5,240.5 C 132.5,240.5 131.5,240.5 130.5,240.5C 130.665,237.15 130.498,233.817 130,230.5C 126.474,227.455 124.64,228.289 124.5,233C 124.917,235.498 125.251,237.998 125.5,240.5C 124.5,240.5 123.5,240.5 122.5,240.5C 120.841,235.803 121.175,231.303 123.5,227C 127.773,224.878 130.94,226.045 133,230.5C 133.498,233.817 133.665,237.15 133.5,240.5 Z"/></g>
</svg>
