<?xml version="1.0" encoding="UTF-8"?>
<!DOCTYPE svg PUBLIC "-//W3C//DTD SVG 1.1//EN" "http://www.w3.org/Graphics/SVG/1.1/DTD/svg11.dtd">
<svg xmlns="http://www.w3.org/2000/svg" version="1.1" width="365px" height="223px" style="shape-rendering:geometricPrecision; text-rendering:geometricPrecision; image-rendering:optimizeQuality; fill-rule:evenodd; clip-rule:evenodd" xmlns:xlink="http://www.w3.org/1999/xlink">
<g><path style="opacity:1" fill="#244792" d="M 262.5,-0.5 C 292.167,-0.5 321.833,-0.5 351.5,-0.5C 364.695,7.44809 366.695,17.6148 357.5,30C 354.874,32.1457 351.874,33.479 348.5,34C 320.5,34.6667 292.5,34.6667 264.5,34C 249.914,27.9071 246.747,18.0737 255,4.5C 257.479,2.68589 259.979,1.01922 262.5,-0.5 Z"/></g>
<g><path style="opacity:0.996" fill="#214692" d="M 237.5,25.5 C 238.513,31.6939 239.846,37.6939 241.5,43.5C 241.124,69.1494 228.458,84.3161 203.5,89C 182.5,89.6667 161.5,89.6667 140.5,89C 127.146,83.6064 123.646,74.4397 130,61.5C 132.177,58.4769 135.011,56.4769 138.5,55.5C 139.822,55.33 140.989,55.6634 142,56.5C 161.427,55.6731 180.927,55.1731 200.5,55C 201.416,54.7216 202.082,54.2216 202.5,53.5C 207.397,49.868 208.564,45.2013 206,39.5C 204.681,37.5125 202.848,36.3459 200.5,36C 138.167,35.6667 75.8333,35.3333 13.5,35C 2.82448,30.4827 -1.00886,22.6494 2,11.5C 4.25629,6.24251 8.08963,2.74251 13.5,1C 76.1667,0.333333 138.833,0.333333 201.5,1C 218.601,2.0252 230.601,10.1919 237.5,25.5 Z"/></g>
<g><path style="opacity:0.982" fill="#5069a7" d="M 237.5,25.5 C 240.218,31.0776 241.551,37.0776 241.5,43.5C 239.846,37.6939 238.513,31.6939 237.5,25.5 Z"/></g>
<g><path style="opacity:0.706" fill="#4766a5" d="M 202.5,53.5 C 202.082,54.2216 201.416,54.7216 200.5,55C 180.927,55.1731 161.427,55.6731 142,56.5C 140.989,55.6634 139.822,55.33 138.5,55.5C 159.693,54.8008 181.026,54.1341 202.5,53.5 Z"/></g>
<g><path style="opacity:0.098" fill="#3b5da0" d="M 97.5,56.5 C 68.8123,56.2081 40.1456,56.5414 11.5,57.5C 12.6085,56.71 13.9419,56.21 15.5,56C 43.0031,55.1697 70.3364,55.3364 97.5,56.5 Z"/></g>
<g><path style="opacity:1" fill="#1f4691" d="M 364.5,66.5 C 364.5,70.1667 364.5,73.8333 364.5,77.5C 361.603,82.8937 357.27,86.727 351.5,89C 329.833,89.3333 308.167,89.6667 286.5,90C 285.874,90.7504 285.374,91.5838 285,92.5C 284.667,106.167 284.333,119.833 284,133.5C 279.902,143.767 272.402,147.6 261.5,145C 255.364,142.377 251.697,137.877 250.5,131.5C 249.993,115.754 250.66,100.087 252.5,84.5C 257.654,68.2377 268.654,58.4044 285.5,55C 307.833,54.3333 330.167,54.3333 352.5,55C 358.35,57.0188 362.35,60.8522 364.5,66.5 Z"/></g>
<g><path style="opacity:1" fill="#204692" d="M 97.5,56.5 C 104.877,57.3732 109.71,61.3732 112,68.5C 114.218,78.5331 110.718,85.6997 101.5,90C 73.2016,91.6156 44.8683,91.9489 16.5,91C 7.84697,89.5038 2.18031,84.6704 -0.5,76.5C -0.5,74.1667 -0.5,71.8333 -0.5,69.5C 1.72969,63.6886 5.72969,59.6886 11.5,57.5C 40.1456,56.5414 68.8123,56.2081 97.5,56.5 Z"/></g>
<g><path style="opacity:1" fill="#56ae49" d="M 231.5,169.5 C 231.5,170.167 231.167,170.5 230.5,170.5C 229.347,168.193 228.18,165.86 227,163.5C 227.133,167.434 228.633,170.767 231.5,173.5C 231.995,175.482 232.495,177.482 233,179.5C 235.681,181.527 237.347,184.193 238,187.5C 239.362,193.81 240.529,200.143 241.5,206.5C 241.737,207.791 241.404,208.791 240.5,209.5C 239.969,206.233 238.969,205.9 237.5,208.5C 236.623,205.742 235.456,203.076 234,200.5C 233.517,201.448 233.351,202.448 233.5,203.5C 232.5,204.5 231.5,205.5 230.5,206.5C 229.926,202.643 228.926,198.976 227.5,195.5C 227.5,194.833 227.5,194.167 227.5,193.5C 227.045,190.243 225.379,187.909 222.5,186.5C 222.167,186.5 221.833,186.5 221.5,186.5C 221.672,185.508 221.338,184.842 220.5,184.5C 220.672,183.508 220.338,182.842 219.5,182.5C 219.672,181.508 219.338,180.842 218.5,180.5C 218.5,179.833 218.5,179.167 218.5,178.5C 219.305,176.039 218.972,173.706 217.5,171.5C 217.167,171.5 216.833,171.5 216.5,171.5C 216.672,170.508 216.338,169.842 215.5,169.5C 215.5,168.833 215.167,168.5 214.5,168.5C 214.672,167.508 214.338,166.842 213.5,166.5C 213.573,164.973 212.906,163.973 211.5,163.5C 211.573,161.973 210.906,160.973 209.5,160.5C 209.5,159.833 209.167,159.5 208.5,159.5C 208.5,159.167 208.5,158.833 208.5,158.5C 207.791,157.596 206.791,157.263 205.5,157.5C 204.356,156.817 204.356,157.151 205.5,158.5C 205.5,158.833 205.5,159.167 205.5,159.5C 206.823,161.471 208.156,163.471 209.5,165.5C 210.183,165.137 210.85,164.804 211.5,164.5C 211.833,165.167 212.167,165.833 212.5,166.5C 211.454,168.785 211.454,171.118 212.5,173.5C 212.167,173.5 211.833,173.5 211.5,173.5C 211.5,172.833 211.167,172.5 210.5,172.5C 210.672,171.508 210.338,170.842 209.5,170.5C 209.5,169.833 209.167,169.5 208.5,169.5C 208.672,168.508 208.338,167.842 207.5,167.5C 207.5,166.833 207.167,166.5 206.5,166.5C 206.672,165.508 206.338,164.842 205.5,164.5C 205.5,164.167 205.5,163.833 205.5,163.5C 203.998,160.978 202.665,160.978 201.5,163.5C 190.438,144.614 174.771,130.78 154.5,122C 148.809,119.621 142.975,117.787 137,116.5C 136.342,112.975 137.509,110.141 140.5,108C 147.82,104.09 155.32,100.59 163,97.5C 166.455,96.4496 169.955,96.2829 173.5,97C 201.209,114.535 220.543,138.701 231.5,169.5 Z M 209.5,160.5 C 210.906,160.973 211.573,161.973 211.5,163.5C 210.094,163.027 209.427,162.027 209.5,160.5 Z M 211.5,163.5 C 212.906,163.973 213.573,164.973 213.5,166.5C 213.167,166.5 212.833,166.5 212.5,166.5C 212.167,165.833 211.833,165.167 211.5,164.5C 211.5,164.167 211.5,163.833 211.5,163.5 Z"/></g>
<g><path style="opacity:0.27" fill="#5571ab" d="M 252.5,84.5 C 250.66,100.087 249.993,115.754 250.5,131.5C 249.34,118.673 249.173,105.673 250,92.5C 250.279,89.5432 251.113,86.8766 252.5,84.5 Z"/></g>
<g><path style="opacity:0.976" fill="#214692" d="M -0.5,134.5 C -0.5,129.833 -0.5,125.167 -0.5,120.5C 2.96223,114.881 7.96223,111.381 14.5,110C 41.8333,109.333 69.1667,109.333 96.5,110C 106.371,111.705 112.038,117.538 113.5,127.5C 112.158,137.008 106.824,142.841 97.5,145C 69.8333,145.667 42.1667,145.667 14.5,145C 7.96223,143.619 2.96223,140.119 -0.5,134.5 Z"/></g>
<g><path style="opacity:0.345" fill="#95cc8d" d="M 205.5,158.5 C 205.5,158.167 205.5,157.833 205.5,157.5C 206.791,157.263 207.791,157.596 208.5,158.5C 207.167,158.833 207.167,159.167 208.5,159.5C 209.167,159.5 209.5,159.833 209.5,160.5C 209.427,162.027 210.094,163.027 211.5,163.5C 211.5,163.833 211.5,164.167 211.5,164.5C 210.85,164.804 210.183,165.137 209.5,165.5C 208.156,163.471 206.823,161.471 205.5,159.5C 206.833,159.167 206.833,158.833 205.5,158.5 Z"/></g>
<g><path style="opacity:0.231" fill="#abd7a3" d="M 231.5,169.5 C 233.175,171.179 234.008,173.179 234,175.5C 233.292,174.619 232.458,173.953 231.5,173.5C 231.443,172.391 231.11,171.391 230.5,170.5C 231.167,170.5 231.5,170.167 231.5,169.5 Z"/></g>
<g><path style="opacity:1" fill="#67b559" d="M 205.5,163.5 C 204.167,163.833 204.167,164.167 205.5,164.5C 205.328,165.492 205.662,166.158 206.5,166.5C 207.167,166.5 207.5,166.833 207.5,167.5C 207.328,168.492 207.662,169.158 208.5,169.5C 209.167,169.5 209.5,169.833 209.5,170.5C 209.328,171.492 209.662,172.158 210.5,172.5C 211.167,172.5 211.5,172.833 211.5,173.5C 211.833,176.167 212.167,176.167 212.5,173.5C 211.454,171.118 211.454,168.785 212.5,166.5C 212.833,166.5 213.167,166.5 213.5,166.5C 213.328,167.492 213.662,168.158 214.5,168.5C 215.167,168.5 215.5,168.833 215.5,169.5C 215.328,170.492 215.662,171.158 216.5,171.5C 216.833,172.833 217.167,172.833 217.5,171.5C 218.972,173.706 219.305,176.039 218.5,178.5C 217.167,179.167 217.167,179.833 218.5,180.5C 218.328,181.492 218.662,182.158 219.5,182.5C 219.328,183.492 219.662,184.158 220.5,184.5C 220.328,185.492 220.662,186.158 221.5,186.5C 221.833,189.167 222.167,189.167 222.5,186.5C 225.379,187.909 227.045,190.243 227.5,193.5C 226.167,194.167 226.167,194.833 227.5,195.5C 227.304,197.646 226.304,197.812 224.5,196C 222.658,193.457 220.491,191.29 218,189.5C 216.154,186.431 215.154,183.098 215,179.5C 214.309,181.891 213.309,181.891 212,179.5C 208.671,174.014 205.171,168.68 201.5,163.5C 202.665,160.978 203.998,160.978 205.5,163.5 Z"/></g>
<g><path style="opacity:0.624" fill="#83c478" d="M 233.5,203.5 C 234.833,205.833 236.167,208.167 237.5,210.5C 237.631,211.239 237.464,211.906 237,212.5C 235.171,210.844 233.837,208.844 233,206.5C 231.929,209.113 231.095,209.113 230.5,206.5C 231.5,205.5 232.5,204.5 233.5,203.5 Z"/></g>
<g><path style="opacity:0.753" fill="#7fc274" d="M 240.5,209.5 C 241.404,208.791 241.737,207.791 241.5,206.5C 243.452,211.564 244.785,216.897 245.5,222.5C 245.167,222.5 244.833,222.5 244.5,222.5C 243.042,218.959 241.876,215.292 241,211.5C 240.667,212.5 240.333,213.5 240,214.5C 239.066,213.142 238.232,211.808 237.5,210.5C 237.5,209.833 237.5,209.167 237.5,208.5C 238.969,205.9 239.969,206.233 240.5,209.5 Z"/></g>
</svg>
