<?xml version="1.0" encoding="UTF-8"?>
<svg version="1.1" xmlns="http://www.w3.org/2000/svg" width="179" height="148">
<path d="M0 0 C0.495 0.495 0.495 0.495 1 1 C5.73582436 1.33777053 9.43034952 0.38533547 13.9375 -1 C20.92111341 -2.92873579 27.64412917 -3.41415767 34.875 -3.4375 C35.8249585 -3.44716797 36.77491699 -3.45683594 37.75366211 -3.46679688 C46.57540405 -3.36222467 54.26178285 -1.27638316 62 3 C62 3.66 62 4.32 62 5 C62.59296875 5.26425781 63.1859375 5.52851563 63.796875 5.80078125 C74.17305023 11.44880571 79.7649152 26.53238742 84 37 C87.6545075 53.94362567 82.7281771 66.35240852 75 81 C74.34 81 73.68 81 73 81 C72.91621094 81.56332031 72.83242187 82.12664062 72.74609375 82.70703125 C70.09697437 90.84856567 59.66404696 98.94729428 53 104 C50.70703125 104.74609375 50.70703125 104.74609375 49 105 C49 105.66 49 106.32 49 107 C47.25588699 108.23662862 45.45293515 109.39102135 43.625 110.5 C37.87613252 113.85692368 37.87613252 113.85692368 34.6875 119.5 C33 123 33 123 30.375 124.1875 C29.199375 124.5896875 29.199375 124.5896875 28 125 C27.11306697 127.04105639 27.11306697 127.04105639 27 129 C25.02 129.33 23.04 129.66 21 130 C21 130.928125 21 131.85625 21 132.8125 C20 136 20 136 18.1875 137.03125 C16.74303595 137.54713002 15.28378614 138.0235273 13.8125 138.45703125 C11.99719532 138.84465534 11.99719532 138.84465534 11 140 C9.33382885 140.04063832 7.66611905 140.042721 6 140 C5.34 138.68 4.68 137.36 4 136 C3.21625 136.04125 2.4325 136.0825 1.625 136.125 C-1 136 -1 136 -3 134 C-3.99 133.67 -4.98 133.34 -6 133 C-9 132 -9 132 -11 130 C-12.155 129.67 -13.31 129.34 -14.5 129 C-18 128 -18 128 -20 126 C-20.226875 124.88625 -20.45375 123.7725 -20.6875 122.625 C-22.06363857 118.82423632 -22.34024857 118.40645503 -25.625 116.5625 C-26.73875 116.046875 -27.8525 115.53125 -29 115 C-29 114.34 -29 113.68 -29 113 C-29.58700684 112.88390381 -30.17401367 112.76780762 -30.77880859 112.64819336 C-33.14078058 111.95891708 -34.57033467 111.08717301 -36.5390625 109.62890625 C-37.19737061 109.14188232 -37.85567871 108.6548584 -38.53393555 108.15307617 C-39.22398682 107.62818604 -39.91403809 107.1032959 -40.625 106.5625 C-41.6919812 105.75486206 -41.6919812 105.75486206 -42.78051758 104.9309082 C-50.94421667 98.64636879 -58.49839953 91.80256076 -64 83 C-64 82.34 -64 81.68 -64 81 C-64.66 81 -65.32 81 -66 81 C-73.53776766 66.71330083 -78.6834659 54.40915248 -74.9453125 37.9296875 C-70.39606114 23.830768 -63.0634537 9.80382347 -50 2 C-34.5919092 -5.80442384 -16.41434493 -4.38169927 0 0 Z M-41.9375 23.8125 C-46.4064122 30.71900067 -46.95527482 38.0113426 -45.4375 45.9375 C-41.54379562 54.23278325 -36.0506505 60.30524382 -29 66 C-27.53671505 67.24762174 -26.07362418 68.49547714 -24.61352539 69.74682617 C-21.75927758 72.18474853 -18.87954453 74.59206005 -16 77 C-15.31147949 77.5775 -14.62295898 78.155 -13.91357422 78.75 C-11.76140981 80.54969234 -9.60071802 82.33861653 -7.4375 84.125 C-6.41946289 84.97795654 -6.41946289 84.97795654 -5.38085938 85.84814453 C-4.41696289 86.63874268 -4.41696289 86.63874268 -3.43359375 87.4453125 C-2.86697021 87.91469238 -2.30034668 88.38407227 -1.71655273 88.86767578 C0.23645402 90.15597692 1.68104571 90.69601405 4 91 C11.65555721 88.21616101 17.32231005 82.69497266 23.36279297 77.41503906 C25.82475926 75.28716005 28.34843686 73.23794326 30.875 71.1875 C32.58340806 69.79175813 34.29174781 68.39593263 36 67 C36.73863281 66.39929688 37.47726563 65.79859375 38.23828125 65.1796875 C39.86367458 63.83116478 41.43883956 62.42239062 43 61 C43 60.34 43 59.68 43 59 C43.99 58.67 44.98 58.34 46 58 C47.8676719 55.75283364 47.8676719 55.75283364 49.625 53.0625 C50.23601562 52.16660156 50.84703125 51.27070312 51.4765625 50.34765625 C55.29451316 44.46409638 54.61156264 37.78216099 54 31 C52.47855428 26.33465398 50.39923185 23.11220993 46.5625 20.0625 C41.13054744 17.81022699 36.73744454 16.74264535 30.8125 16.8125 C29.60207031 16.81894531 28.39164062 16.82539063 27.14453125 16.83203125 C23.97160688 16.86214508 23.97160688 16.86214508 21 18 C21.01160156 18.92683594 21.02320312 19.85367187 21.03515625 20.80859375 C21.04417969 22.00613281 21.05320312 23.20367187 21.0625 24.4375 C21.07410156 25.63246094 21.08570312 26.82742187 21.09765625 28.05859375 C21 31 21 31 20 32 C13.43920968 32.82009879 9.46731843 30.47131329 4 27 C3.50371094 27.3609375 3.00742188 27.721875 2.49609375 28.09375 C-2.14648744 31.26515271 -5.1905784 32.71135775 -11 32 C-11.495 31.505 -11.495 31.505 -12 31 C-11.9909385 27.92361996 -11.86674942 24.85890469 -11.7421875 21.78515625 C-11.82726562 20.86605469 -11.91234375 19.94695313 -12 19 C-20.56257406 13.29161729 -35.11582954 16.47969573 -41.9375 23.8125 Z " fill="#FDDD5A" transform="translate(89,5)"/>
<path d="M0 0 C0.99 0 1.98 0 3 0 C2.7834375 0.61746094 2.566875 1.23492188 2.34375 1.87109375 C-0.24697566 9.75121763 -1.64329454 17.21659804 2 25 C3.52142562 27.14860905 5.10063736 29.21992554 6.7578125 31.265625 C8 33 8 33 8 35 C8.55558594 35.23589844 9.11117187 35.47179687 9.68359375 35.71484375 C12.56375591 37.3127752 14.66369076 39.305005 17.0625 41.5625 C23.46865555 47.5099938 30.20693427 53.00420286 37.06640625 58.421875 C38.05511719 59.21078125 39.04382813 59.9996875 40.0625 60.8125 C40.96097656 61.52019531 41.85945313 62.22789063 42.78515625 62.95703125 C44.90203503 64.90963725 45.94675321 66.35200667 47 69 C46.38511719 69.38671875 45.77023438 69.7734375 45.13671875 70.171875 C43.92435547 70.95304687 43.92435547 70.95304687 42.6875 71.75 C41.88699219 72.26046875 41.08648437 72.7709375 40.26171875 73.296875 C37.99631139 75.00277761 36.57315833 76.65808145 35 79 C36.01320312 78.79503906 37.02640625 78.59007813 38.0703125 78.37890625 C39.4218645 78.10671869 40.77342759 77.83458621 42.125 77.5625 C43.12273437 77.36043945 43.12273437 77.36043945 44.140625 77.15429688 C46.0922625 76.762056 48.04611903 76.38090811 50 76 C50.99386719 75.65195313 51.98773438 75.30390625 53.01171875 74.9453125 C56.63102776 75.01154822 57.18246512 75.69864011 59.76171875 78.11328125 C61.08847521 79.49581726 62.39657894 80.89644515 63.6875 82.3125 C65.00201263 83.70621553 66.31834705 85.09821562 67.63671875 86.48828125 C68.49849731 87.42474487 68.49849731 87.42474487 69.37768555 88.38012695 C72.37348396 91.37141702 74.91814872 92.33807817 79 93 C78.8125 95.875 78.8125 95.875 78 99 C75.5 100.125 75.5 100.125 73 101 C72.11306697 103.04105639 72.11306697 103.04105639 72 105 C70.02 105.33 68.04 105.66 66 106 C66 106.928125 66 107.85625 66 108.8125 C65 112 65 112 63.1875 113.03125 C61.74303595 113.54713002 60.28378614 114.0235273 58.8125 114.45703125 C56.99719532 114.84465534 56.99719532 114.84465534 56 116 C54.33382885 116.04063832 52.66611905 116.042721 51 116 C50.34 114.68 49.68 113.36 49 112 C48.21625 112.04125 47.4325 112.0825 46.625 112.125 C44 112 44 112 42 110 C41.01 109.67 40.02 109.34 39 109 C36 108 36 108 34 106 C32.845 105.67 31.69 105.34 30.5 105 C27 104 27 104 25 102 C24.773125 100.88625 24.54625 99.7725 24.3125 98.625 C22.93636143 94.82423632 22.65975143 94.40645503 19.375 92.5625 C18.26125 92.046875 17.1475 91.53125 16 91 C16 90.34 16 89.68 16 89 C15.41299316 88.88390381 14.82598633 88.76780762 14.22119141 88.64819336 C11.85921942 87.95891708 10.42966533 87.08717301 8.4609375 85.62890625 C7.8023877 85.14164062 7.14383789 84.654375 6.46533203 84.15234375 C5.77552246 83.62769531 5.08571289 83.10304688 4.375 82.5625 C3.66585449 82.02625 2.95670898 81.49 2.22607422 80.9375 C-12.82073712 69.36250351 -12.82073712 69.36250351 -16 62 C-15.34 62 -14.68 62 -14 62 C-14.47730838 60.5410574 -14.95691042 59.08286504 -15.4375 57.625 C-15.70433594 56.81289062 -15.97117187 56.00078125 -16.24609375 55.1640625 C-16.95179729 52.98968201 -16.95179729 52.98968201 -18 51 C-18.084915 49.1136088 -18.107193 47.22421485 -18.09765625 45.3359375 C-18.09443359 44.21445313 -18.09121094 43.09296875 -18.08789062 41.9375 C-18.07951172 40.761875 -18.07113281 39.58625 -18.0625 38.375 C-18.05798828 37.19164062 -18.05347656 36.00828125 -18.04882812 34.7890625 C-18.03701467 31.85932493 -18.02054258 28.92968728 -18 26 C-17.34 26 -16.68 26 -16 26 C-16.144375 24.88625 -16.28875 23.7725 -16.4375 22.625 C-16.42671107 16.52925457 -12.84856436 12.43954241 -9 8 C-6.44580948 5.50898734 -3.78778829 3.22343115 -1 1 C-0.67 0.67 -0.34 0.34 0 0 Z " fill="#5472FA" transform="translate(44,29)"/>
<path d="M0 0 C2.62483129 1.35393636 4.88483803 2.77548269 7.203125 4.59765625 C8.95885698 6.06965326 8.95885698 6.06965326 11.0625 6.99609375 C14.26906043 8.65755752 15.84664923 11.12886564 18 14 C18 14.66 18 15.32 18 16 C18.99 16 19.98 16 21 16 C21.96328543 19.25205159 22.16468233 22.23885752 22.1875 25.625 C22.20167969 26.58664063 22.21585937 27.54828125 22.23046875 28.5390625 C22 31 22 31 20 33 C13.43866408 33.9373337 9.3458114 31.39416597 4 28 C3.25556641 28.54140625 3.25556641 28.54140625 2.49609375 29.09375 C-2.12193399 32.24837996 -5.21926054 33.80930352 -11 33 C-13 31 -13 31 -13.1953125 28.1796875 C-13.17210937 27.08914062 -13.14890625 25.99859375 -13.125 24.875 C-13.10695312 23.77929688 -13.08890625 22.68359375 -13.0703125 21.5546875 C-13.04710937 20.71164063 -13.02390625 19.86859375 -13 19 C-18.26829537 16.36585231 -27.36107213 17.25559655 -32.921875 18.82421875 C-36.13764099 20.23768452 -38.50723312 21.50723312 -41 24 C-42.051875 24.3403125 -42.051875 24.3403125 -43.125 24.6875 C-50.58145492 28.09153377 -56.42487274 34.70026281 -60 42 C-60.69456394 44.76905624 -60.89549277 47.12605106 -61 50 C-61.66 50 -62.32 50 -63 50 C-62.91862324 54.02163064 -62.80582154 58.0418001 -62.6875 62.0625 C-62.66494141 63.19623047 -62.64238281 64.32996094 -62.61914062 65.49804688 C-62.41660575 71.81345249 -61.79743768 76.35262581 -59 82 C-59 83.32 -59 84.64 -59 86 C-60.9375 85.1875 -60.9375 85.1875 -63 84 C-63.33 83.01 -63.66 82.02 -64 81 C-64.66 81 -65.32 81 -66 81 C-73.53776766 66.71330083 -78.6834659 54.40915248 -74.9453125 37.9296875 C-70.39606114 23.830768 -63.0634537 9.80382347 -50 2 C-35.02594027 -5.58458074 -15.92024585 -4.99928925 0 0 Z " fill="#DF4352" transform="translate(89,5)"/>
<path d="M0 0 C1.39520874 -0.00870117 1.39520874 -0.00870117 2.81860352 -0.01757812 C11.50939184 0.13818473 19.1931021 2.28928011 26.8125 6.5 C26.8125 7.16 26.8125 7.82 26.8125 8.5 C27.40546875 8.76425781 27.9984375 9.02851563 28.609375 9.30078125 C38.98555023 14.94880571 44.5774152 30.03238742 48.8125 40.5 C52.4670075 57.44362567 47.5406771 69.85240852 39.8125 84.5 C39.1525 84.5 38.4925 84.5 37.8125 84.5 C37.73 85.11875 37.6475 85.7375 37.5625 86.375 C36.8125 88.5 36.8125 88.5 34.75 89.75 C34.110625 89.9975 33.47125 90.245 32.8125 90.5 C33.28559575 86.24213827 33.87937551 82.16608828 34.875 78 C37.6806489 64.05742418 36.41164931 50.08130233 28.5 38 C25.39349675 33.86694168 22.14485913 31.27270985 17.8125 28.5 C17.3175 27.51 17.3175 27.51 16.8125 26.5 C14.83265519 25.77566653 12.82666562 25.12256028 10.8125 24.5 C9.719375 23.96375 8.62625 23.4275 7.5 22.875 C0.78727026 20.25057324 -7.11285894 21.28293715 -14.1875 21.5 C-14.1875 20.84 -14.1875 20.18 -14.1875 19.5 C-15.1775 19.5 -16.1675 19.5 -17.1875 19.5 C-18.44140625 17.92578125 -18.44140625 17.92578125 -19.75 15.8125 C-23.26210638 10.80663698 -27.63756142 8.78139768 -33.1875 6.5 C-33.1875 6.17 -33.1875 5.84 -33.1875 5.5 C-22.12499143 2.3034031 -11.56298013 0.0075966 0 0 Z " fill="#97D349" transform="translate(124.1875,1.5)"/>
<path d="M0 0 C3.11373372 1.49920512 6.12228205 3.08152136 9 5 C9 5.66 9 6.32 9 7 C10.3921875 7.433125 10.3921875 7.433125 11.8125 7.875 C15 9 15 9 18 11 C19.65549531 11.38499891 21.3222433 11.72793135 23 12 C22.360625 12.2475 21.72125 12.495 21.0625 12.75 C18.81258459 13.81562433 18.81258459 13.81562433 18.25 16.125 C18.1675 16.74375 18.085 17.3625 18 18 C15.03 18.495 15.03 18.495 12 19 C12 19.928125 12 20.85625 12 21.8125 C11 25 11 25 9.1875 26.03125 C7.74303595 26.54713002 6.28378614 27.0235273 4.8125 27.45703125 C2.99719532 27.84465534 2.99719532 27.84465534 2 29 C0.33382885 29.04063832 -1.33388095 29.042721 -3 29 C-3.66 27.68 -4.32 26.36 -5 25 C-5.78375 25.04125 -6.5675 25.0825 -7.375 25.125 C-10 25 -10 25 -12 23 C-12.99 22.67 -13.98 22.34 -15 22 C-18 21 -18 21 -20 19 C-22.32548007 18.30643577 -24.65880445 17.63850788 -27 17 C-28 16 -28 16 -28.09765625 14.15234375 C-28.06510417 12.1015625 -28.03255208 10.05078125 -28 8 C-27.34 8 -26.68 8 -26 8 C-26 7.34 -26 6.68 -26 6 C-23.69 6 -21.38 6 -19 6 C-19 8.64 -19 11.28 -19 14 C-18.67 13.34 -18.34 12.68 -18 12 C-17.34 12 -16.68 12 -16 12 C-15.34 10.68 -14.68 9.36 -14 8 C-12.02 8 -10.04 8 -8 8 C-8 8.99 -8 9.98 -8 11 C-6.68 11 -5.36 11 -4 11 C-4 10.01 -4 9.02 -4 8 C-4.66 8 -5.32 8 -6 8 C-6 7.01 -6 6.02 -6 5 C-3.03 5.495 -3.03 5.495 0 6 C0 4.02 0 2.04 0 0 Z " fill="#6378D9" transform="translate(98,116)"/>
<path d="M0 0 C2.31 0 4.62 0 7 0 C7 2.64 7 5.28 7 8 C7.33 7.34 7.66 6.68 8 6 C8.66 6 9.32 6 10 6 C10.66 4.68 11.32 3.36 12 2 C13.65 2 15.3 2 17 2 C17 3.98 17 5.96 17 8 C18.98 7.67 20.96 7.34 23 7 C23.33 8.65 23.66 10.3 24 12 C25.32 12 26.64 12 28 12 C29.28571429 19.42857143 29.28571429 19.42857143 28 23 C26.35 23 24.7 23 23 23 C22.34 21.68 21.68 20.36 21 19 C20.21625 19.04125 19.4325 19.0825 18.625 19.125 C16 19 16 19 14 17 C13.01 16.67 12.02 16.34 11 16 C8 15 8 15 6 13 C3.67451993 12.30643577 1.34119555 11.63850788 -1 11 C-2 10 -2 10 -2.09765625 8.15234375 C-2.06510417 6.1015625 -2.03255208 4.05078125 -2 2 C-1.34 2 -0.68 2 0 2 C0 1.34 0 0.68 0 0 Z " fill="#9A4684" transform="translate(72,122)"/>
<path d="M0 0 C0.66 0.33 1.32 0.66 2 1 C1.50628906 1.40992187 1.01257813 1.81984375 0.50390625 2.2421875 C-0.13675781 2.78101562 -0.77742188 3.31984375 -1.4375 3.875 C-2.07558594 4.40867187 -2.71367188 4.94234375 -3.37109375 5.4921875 C-5.10805004 6.9222757 -5.10805004 6.9222757 -6 9 C-4.98679687 8.79503906 -3.97359375 8.59007813 -2.9296875 8.37890625 C-1.5781355 8.10671869 -0.22657241 7.83458621 1.125 7.5625 C1.79015625 7.42779297 2.4553125 7.29308594 3.140625 7.15429688 C5.0922625 6.762056 7.04611903 6.38090811 9 6 C9.99386719 5.65195313 10.98773438 5.30390625 12.01171875 4.9453125 C15.63102776 5.01154822 16.18246512 5.69864011 18.76171875 8.11328125 C20.08847521 9.49581726 21.39657894 10.89644515 22.6875 12.3125 C24.00201263 13.70621553 25.31834705 15.09821562 26.63671875 16.48828125 C27.21123779 17.11259033 27.78575684 17.73689941 28.37768555 18.38012695 C31.37348396 21.37141702 33.91814872 22.33807817 38 23 C37.67 24.98 37.34 26.96 37 29 C31.02703797 29.76576436 26.78062702 27.32127772 22 24 C21.67 23.34 21.34 22.68 21 22 C19.35666496 20.96210419 17.68756133 19.96432076 16 19 C15.01 18.34 14.02 17.68 13 17 C13 18.98 13 20.96 13 23 C11.02 22.67 9.04 22.34 7 22 C7.33 21.236875 7.66 20.47375 8 19.6875 C9.17436686 17.00930865 9.17436686 17.00930865 9 14 C11.31 14.33 13.62 14.66 16 15 C16.38218767 13.34385343 16.71395102 11.67542976 17 10 C15.03177114 8.03177114 11.65191291 8.33751619 9 8 C9 8.66 9 9.32 9 10 C3.72 10 -1.56 10 -7 10 C-7 8.35 -7 6.7 -7 5 C-6.34 5 -5.68 5 -5 5 C-5 4.34 -5 3.68 -5 3 C-2.625 1.3125 -2.625 1.3125 0 0 Z " fill="#5472F0" transform="translate(85,99)"/>
<path d="M0 0 C0.99 0 1.98 0 3 0 C2.7834375 0.61746094 2.566875 1.23492188 2.34375 1.87109375 C-0.90961796 11.76675463 -0.93918884 18.89553087 3.625 28.375 C4.305625 29.674375 4.305625 29.674375 5 31 C4.01 31 3.02 31 2 31 C2 30.34 2 29.68 2 29 C1.34 29 0.68 29 0 29 C-3.1446214 26.04949103 -3.40938162 23.15611767 -3.61914062 18.9609375 C-3.64169922 18.23132813 -3.66425781 17.50171875 -3.6875 16.75 C-3.73874023 15.63238281 -3.73874023 15.63238281 -3.79101562 14.4921875 C-3.87314054 12.66197508 -3.93825653 10.83101331 -4 9 C-8.07385534 12.97745986 -8.07385534 12.97745986 -11.75 17.3125 C-12.15734375 17.82425781 -12.5646875 18.33601563 -12.984375 18.86328125 C-15.76818464 24.71998846 -15.18241749 32.19411463 -15.1875 38.5625 C-15.19974609 39.37396484 -15.21199219 40.18542969 -15.22460938 41.02148438 C-15.23690104 46.09794261 -14.55372105 50.17432522 -13 55 C-12.875 57.9375 -12.875 57.9375 -13 60 C-12.34 60 -11.68 60 -11 60 C-10.9175 61.27875 -10.835 62.5575 -10.75 63.875 C-10.54130069 66.05333418 -10.54130069 66.05333418 -10 68 C-8.07935207 69.5899433 -8.07935207 69.5899433 -6 70 C-6 70.99 -6 71.98 -6 73 C-10.13937592 69.69984002 -13.58662205 66.82675589 -16 62 C-15.34 62 -14.68 62 -14 62 C-14.47730838 60.5410574 -14.95691042 59.08286504 -15.4375 57.625 C-15.70433594 56.81289062 -15.97117187 56.00078125 -16.24609375 55.1640625 C-16.95179729 52.98968201 -16.95179729 52.98968201 -18 51 C-18.084915 49.1136088 -18.107193 47.22421485 -18.09765625 45.3359375 C-18.09443359 44.21445313 -18.09121094 43.09296875 -18.08789062 41.9375 C-18.07951172 40.761875 -18.07113281 39.58625 -18.0625 38.375 C-18.05798828 37.19164062 -18.05347656 36.00828125 -18.04882812 34.7890625 C-18.03701467 31.85932493 -18.02054258 28.92968728 -18 26 C-17.34 26 -16.68 26 -16 26 C-16.144375 24.88625 -16.28875 23.7725 -16.4375 22.625 C-16.42671107 16.52925457 -12.84856436 12.43954241 -9 8 C-6.44580948 5.50898734 -3.78778829 3.22343115 -1 1 C-0.67 0.67 -0.34 0.34 0 0 Z " fill="#6B5FCC" transform="translate(44,29)"/>
<path d="M0 0 C5.02306088 1.10677613 8.62426639 2.26516649 13 5 C15.09549284 5.7718132 17.19870859 6.48380271 19.328125 7.15625 C21 8 21 8 22 11 C25.3 11.33 28.6 11.66 32 12 C32.33 10.35 32.66 8.7 33 7 C34.125 8.75 34.125 8.75 35 11 C34.125 13.25 34.125 13.25 33 15 C26.40770855 15.7013076 22.50623443 13.49602186 17 10 C16.25556641 10.54140625 16.25556641 10.54140625 15.49609375 11.09375 C10.87806601 14.24837996 7.78073946 15.80930352 2 15 C0 13 0 13 -0.1953125 9.9609375 C-0.17210938 8.77757812 -0.14890625 7.59421875 -0.125 6.375 C-0.10695313 5.18648437 -0.08890625 3.99796875 -0.0703125 2.7734375 C-0.04710938 1.85820312 -0.02390625 0.94296875 0 0 Z " fill="#BAD98E" transform="translate(76,23)"/>
<path d="M0 0 C0 3 0 3 -1.9375 5.6875 C-4.4552391 9.73114158 -4.67627111 12.30593111 -5 17 C-5.66 17 -6.32 17 -7 17 C-6.91862324 21.02163064 -6.80582154 25.0418001 -6.6875 29.0625 C-6.66494141 30.19623047 -6.64238281 31.32996094 -6.61914062 32.49804688 C-6.41660575 38.81345249 -5.79743768 43.35262581 -3 49 C-3 50.32 -3 51.64 -3 53 C-4.8125 52.4375 -4.8125 52.4375 -7 51 C-9.06938056 47.00905178 -10 44.52370909 -10 40 C-10.99 40 -11.98 40 -13 40 C-13 38.68 -13 37.36 -13 36 C-13.66 36 -14.32 36 -15 36 C-15 35.34 -15 34.68 -15 34 C-14.34 34 -13.68 34 -13 34 C-13.02320312 33.25234375 -13.04640625 32.5046875 -13.0703125 31.734375 C-13.08835937 30.74953125 -13.10640625 29.7646875 -13.125 28.75 C-13.15980469 27.28820312 -13.15980469 27.28820312 -13.1953125 25.796875 C-12.99862781 22.9803502 -12.44568916 21.39050964 -11 19 C-10.34 19 -9.68 19 -9 19 C-8.9175 18.21625 -8.835 17.4325 -8.75 16.625 C-7.61864336 11.15677626 -6.260374 4.90499527 -1.86328125 1.19921875 C-1.24839844 0.80347656 -0.63351563 0.40773437 0 0 Z " fill="#B4253B" transform="translate(33,38)"/>
<path d="M0 0 C0.495 1.485 0.495 1.485 1 3 C-3.52830189 7.90566038 -3.52830189 7.90566038 -6.1875 8.4375 C-7.0846875 8.7159375 -7.0846875 8.7159375 -8 9 C-8.22042969 9.96292969 -8.44085938 10.92585938 -8.66796875 11.91796875 C-9.10753906 12.93503906 -9.54710938 13.95210937 -10 15 C-13.2578125 16.2421875 -13.2578125 16.2421875 -17.125 16.875 C-18.40632813 17.09929687 -19.68765625 17.32359375 -21.0078125 17.5546875 C-22.48894531 17.77511719 -22.48894531 17.77511719 -24 18 C-24.33 19.98 -24.66 21.96 -25 24 C-21.04 24 -17.08 24 -13 24 C-12.67 25.65 -12.34 27.3 -12 29 C-12.53625 28.484375 -13.0725 27.96875 -13.625 27.4375 C-15.93139394 25.73064864 -15.93139394 25.73064864 -18.75 26.1875 C-20.476158 26.6190395 -22.20146164 27.05498139 -23.91796875 27.5234375 C-28.44786911 28.73257918 -32.3056251 29.19559895 -37 29 C-34.68317017 22.74455946 -28.29286904 19.52857936 -23 16 C-21.88625 15.525625 -20.7725 15.05125 -19.625 14.5625 C-13.95457003 11.8119183 -9.45878106 7.48522636 -4.7578125 3.36328125 C-2 1 -2 1 0 0 Z " fill="#F6DB6A" transform="translate(116,79)"/>
<path d="M0 0 C0.99 0.33 1.98 0.66 3 1 C3 1.66 3 2.32 3 3 C3.680625 3.226875 4.36125 3.45375 5.0625 3.6875 C7.59018195 4.81688981 9.32347517 5.91462781 11.5 7.5625 C14.29393788 9.64114087 16.45946313 10.67813301 20 11 C18.68 11.33 17.36 11.66 16 12 C15.67 13.98 15.34 15.96 15 18 C10.545 19.485 10.545 19.485 6 21 C6 17.7 6 14.4 6 11 C4.68 11 3.36 11 2 11 C1.67 9.35 1.34 7.7 1 6 C-0.98 6.33 -2.96 6.66 -5 7 C-5 5.02 -5 3.04 -5 1 C-4.67 1.99 -4.34 2.98 -4 4 C-2.68 4 -1.36 4 0 4 C0 2.68 0 1.36 0 0 Z " fill="#6E68CE" transform="translate(94,123)"/>
<path d="M0 0 C0.95221436 0.00725098 1.90442871 0.01450195 2.88549805 0.02197266 C11.19495617 0.18223893 19.44917307 0.96634817 27.4375 3.375 C27.9325 4.365 27.9325 4.365 28.4375 5.375 C20.93929697 5.66777149 12.29803481 5.80526741 5.4375 2.375 C1.76852001 2.04145636 -0.23427176 2.21088588 -3.5625 3.875 C-6.93188898 5.55969449 -8.8601114 5.375 -12.5625 5.375 C-14.59394641 6.30946535 -16.59783587 7.30724776 -18.5625 8.375 C-20.5 8.9375 -20.5 8.9375 -22.5625 9.375 C-24.8972961 10.03652556 -27.23086622 10.70241333 -29.5625 11.375 C-21.12168554 2.45185329 -12.04621431 -0.18124227 0 0 Z " fill="#DE5768" transform="translate(61.5625,1.625)"/>
<path d="M0 0 C-0.66 0.33 -1.32 0.66 -2 1 C-2 1.66 -2 2.32 -2 3 C-3.74411301 4.23662862 -5.54706485 5.39102135 -7.375 6.5 C-11.91563348 9.26896512 -14.73162306 11.13919228 -17 16 C-17 15.01 -17 14.02 -17 13 C-18.07701172 13.13341797 -18.07701172 13.13341797 -19.17578125 13.26953125 C-23.02573878 12.90210792 -24.41057073 11.32159176 -27.1875 8.6875 C-28.04730469 7.88699219 -28.90710938 7.08648437 -29.79296875 6.26171875 C-32 4 -32 4 -34 1 C-32.02 1 -30.04 1 -28 1 C-27.34 2.32 -26.68 3.64 -26 5 C-22.7 5 -19.4 5 -16 5 C-17 8 -17 8 -19 9 C-17.68 9.33 -16.36 9.66 -15 10 C-15 9.34 -15 8.68 -15 8 C-14.01 8 -13.02 8 -12 8 C-11.814375 6.88625 -11.62875 5.7725 -11.4375 4.625 C-10 1 -10 1 -6.5625 -0.5 C-3 -1 -3 -1 0 0 Z " fill="#E7D581" transform="translate(140,109)"/>
<path d="M0 0 C3.28375747 2.91889553 4.79049372 5.34889562 6.1875 9.5 C6.51105469 10.4384375 6.83460938 11.376875 7.16796875 12.34375 C7.57982422 13.65859375 7.57982422 13.65859375 8 15 C8.19722656 15.62003906 8.39445313 16.24007812 8.59765625 16.87890625 C9.20000112 20.05437486 9.23431971 23.21653899 9.25 26.4375 C9.25592163 27.49396729 9.25592163 27.49396729 9.26196289 28.57177734 C9.19883264 34.34721858 8.18169449 39.57820106 6.55859375 45.1328125 C5.80354927 48.04371178 5.80354927 48.04371178 6.62109375 51.125 C7 54 7 54 5.6015625 56.1171875 C4.94929687 56.69726562 4.29703125 57.27734375 3.625 57.875 C2.97789062 58.47054687 2.33078125 59.06609375 1.6640625 59.6796875 C0 61 0 61 -1 61 C-1 59.02 -1 57.04 -1 55 C-0.01 55.33 0.98 55.66 2 56 C2.12375 54.783125 2.2475 53.56625 2.375 52.3125 C2.79404909 48.90622955 3.66530731 46.16989515 5 43 C7.86633955 29.62374878 7.3422412 16.1230381 1 4 C0.33984375 1.69140625 0.33984375 1.69140625 0 0 Z " fill="#DCDF60" transform="translate(152,39)"/>
<path d="M0 0 C1.15507777 3.93421227 0.83585767 6.97268577 0 11 C-0.99 11.495 -0.99 11.495 -2 12 C-1.67 13.98 -1.34 15.96 -1 18 C-1.66 18 -2.32 18 -3 18 C-3 19.65 -3 21.3 -3 23 C-3.99 23.33 -4.98 23.66 -6 24 C-6.33 30.27 -6.66 36.54 -7 43 C-7.33 43 -7.66 43 -8 43 C-10.8921892 26.73143576 -7.18587562 14.41017837 0 0 Z " fill="#C85869" transform="translate(22,25)"/>
<path d="M0 0 C-0.32484375 0.92619141 -0.32484375 0.92619141 -0.65625 1.87109375 C-3.90961796 11.76675463 -3.93918884 18.89553087 0.625 28.375 C1.07875 29.24125 1.5325 30.1075 2 31 C1.01 31 0.02 31 -1 31 C-1 30.34 -1 29.68 -1 29 C-1.66 29 -2.32 29 -3 29 C-6.1446214 26.04949103 -6.40938162 23.15611767 -6.61914062 18.9609375 C-6.64169922 18.23132813 -6.66425781 17.50171875 -6.6875 16.75 C-6.72166016 16.00492188 -6.75582031 15.25984375 -6.79101562 14.4921875 C-6.87314054 12.66197508 -6.93825653 10.83101331 -7 9 C-9.475 10.485 -9.475 10.485 -12 12 C-10.51657119 6.56076104 -5.97265869 0 0 0 Z " fill="#5A6DE9" transform="translate(47,29)"/>
<path d="M0 0 C0.66 0 1.32 0 2 0 C2 1.32 2 2.64 2 4 C2.66 4 3.32 4 4 4 C5.69503622 8.28744455 6.00683353 10.56993249 5 15 C4.95870053 17.5688269 5.00004942 20.12703229 5.0625 22.6953125 C5 25 5 25 4 28 C4.38932856 30.14255793 4.38932856 30.14255793 5 32 C4.01 32.495 4.01 32.495 3 33 C2.67 33.99 2.34 34.98 2 36 C1.34 36 0.68 36 0 36 C0 37.65 0 39.3 0 41 C-0.99 41.495 -0.99 41.495 -2 42 C-1.52690425 37.74213827 -0.93312449 33.66608828 0.0625 29.5 C2.02924639 20.01852112 1.58594651 9.51567909 0 0 Z " fill="#7AAD31" transform="translate(159,50)"/>
<path d="M0 0 C0 3 0 3 -1.9375 5.6875 C-4.4552391 9.73114158 -4.67627111 12.30593111 -5 17 C-5.66 17 -6.32 17 -7 17 C-6.91862324 21.02163064 -6.80582154 25.0418001 -6.6875 29.0625 C-6.66494141 30.19623047 -6.64238281 31.32996094 -6.61914062 32.49804688 C-6.41660575 38.81345249 -5.79743768 43.35262581 -3 49 C-3 50.32 -3 51.64 -3 53 C-5.39489543 52.25675659 -6.70777616 51.52942646 -7.93359375 49.30859375 C-8.67219923 47.55926499 -9.34049685 45.78065851 -10 44 C-9.34 44 -8.68 44 -8 44 C-8.02094727 43.11328613 -8.04189453 42.22657227 -8.06347656 41.31298828 C-8.13224643 37.97677921 -8.18208383 34.64133905 -8.21972656 31.3046875 C-8.23966189 29.86934413 -8.26682074 28.43408003 -8.30175781 26.99902344 C-8.70106795 10.15753119 -8.70106795 10.15753119 -4 3 C-1.86035156 1.23876953 -1.86035156 1.23876953 0 0 Z " fill="#90305B" transform="translate(33,38)"/>
<path d="M0 0 C1.59134766 0.0009668 1.59134766 0.0009668 3.21484375 0.00195312 C4.86806641 0.02612305 4.86806641 0.02612305 6.5546875 0.05078125 C7.66457031 0.04755859 8.77445313 0.04433594 9.91796875 0.04101562 C18.16265424 0.09624799 18.16265424 0.09624799 20.4296875 2.36328125 C16.24817761 3.40865872 12.47341026 3.33922543 8.1796875 3.17578125 C1.74077163 3.1191339 -3.14010738 3.81226406 -8.5703125 7.36328125 C-9.2303125 8.02328125 -9.8903125 8.68328125 -10.5703125 9.36328125 C-11.2921875 9.61078125 -12.0140625 9.85828125 -12.7578125 10.11328125 C-16.6449754 11.84090921 -19.45553111 14.508813 -22.5703125 17.36328125 C-20.72904609 13.48737343 -18.55132842 10.48294908 -15.5703125 7.36328125 C-12.7578125 6.48828125 -12.7578125 6.48828125 -10.5703125 6.36328125 C-10.2403125 5.37328125 -9.9103125 4.38328125 -9.5703125 3.36328125 C-6.48326669 0.36547929 -4.23220047 -0.01298221 0 0 Z " fill="#C06080" transform="translate(58.5703125,19.63671875)"/>
<path d="M0 0 C0.02705729 1.77074917 0.04642195 3.54161711 0.0625 5.3125 C0.07410156 6.29863281 0.08570313 7.28476563 0.09765625 8.30078125 C0 11 0 11 -1 14 C-1.66 14 -2.32 14 -3 14 C-3 14.66 -3 15.32 -3 16 C-2.34 16 -1.68 16 -1 16 C-1 17.32 -1 18.64 -1 20 C-0.01 20 0.98 20 2 20 C2.33 22.64 2.66 25.28 3 28 C-2.76661676 21.80622645 -6.32344792 14.29713734 -6.3125 5.8125 C-6.23390309 4.20687741 -6.13939469 2.60149009 -6 1 C-3 0 -3 0 0 0 Z " fill="#B52E40" transform="translate(21,58)"/>
<path d="M0 0 C0.66 0.33 1.32 0.66 2 1 C1.50628906 1.40992187 1.01257813 1.81984375 0.50390625 2.2421875 C-0.13675781 2.78101562 -0.77742188 3.31984375 -1.4375 3.875 C-2.07558594 4.40867187 -2.71367188 4.94234375 -3.37109375 5.4921875 C-5.10805004 6.9222757 -5.10805004 6.9222757 -6 9 C-4.98679687 8.79503906 -3.97359375 8.59007813 -2.9296875 8.37890625 C-1.5781355 8.10671869 -0.22657241 7.83458621 1.125 7.5625 C1.79015625 7.42779297 2.4553125 7.29308594 3.140625 7.15429688 C5.0922625 6.762056 7.04611903 6.38090811 9 6 C10.0209375 5.6803125 11.041875 5.360625 12.09375 5.03125 C15.44093039 4.99525881 15.83630543 5.36185949 18.2109375 7.52734375 C19.2839799 8.64675218 20.33831075 9.78434319 21.375 10.9375 C22.19291016 11.8027832 22.19291016 11.8027832 23.02734375 12.68554688 C24.36793165 14.10845158 25.68622784 15.55229961 27 17 C25.68 17.33 24.36 17.66 23 18 C22.401875 17.071875 21.80375 16.14375 21.1875 15.1875 C17.90159569 10.07955006 17.90159569 10.07955006 12.3125 8.3125 C11.219375 8.209375 10.12625 8.10625 9 8 C9 8.66 9 9.32 9 10 C3.72 10 -1.56 10 -7 10 C-7 8.35 -7 6.7 -7 5 C-6.34 5 -5.68 5 -5 5 C-5 4.34 -5 3.68 -5 3 C-2.625 1.3125 -2.625 1.3125 0 0 Z " fill="#6B7DCB" transform="translate(85,99)"/>
<path d="M0 0 C0 0.33 0 0.66 0 1 C-0.83402344 1.04898437 -1.66804688 1.09796875 -2.52734375 1.1484375 C-9.20397602 1.59201673 -15.55028813 2.17258164 -22 4 C-22.33 4.66 -22.66 5.32 -23 6 C-23.66 6 -24.32 6 -25 6 C-25 5.34 -25 4.68 -25 4 C-28.96 4.66 -32.92 5.32 -37 6 C-36.67 7.32 -36.34 8.64 -36 10 C-38.64 8.68 -41.28 7.36 -44 6 C-44 5.67 -44 5.34 -44 5 C-29.08911822 0.69138607 -15.50022968 -0.6916895 0 0 Z " fill="#CBEA8D" transform="translate(135,2)"/>
<path d="M0 0 C0.33 0.99 0.66 1.98 1 3 C-3.52830189 7.90566038 -3.52830189 7.90566038 -6.1875 8.4375 C-7.0846875 8.7159375 -7.0846875 8.7159375 -8 9 C-8.33451172 10.45212891 -8.33451172 10.45212891 -8.67578125 11.93359375 C-9.11277344 12.94550781 -9.54976562 13.95742187 -10 15 C-13.1875 16.1015625 -13.1875 16.1015625 -17 16.625 C-20.73556114 17.07815969 -20.73556114 17.07815969 -24 18 C-25.50713056 19.95463811 -25.50713056 19.95463811 -26 22 C-27.32 21.67 -28.64 21.34 -30 21 C-26.64374839 18.45387809 -23.52584886 16.22397266 -19.625 14.5625 C-13.95457003 11.8119183 -9.45878106 7.48522636 -4.7578125 3.36328125 C-2 1 -2 1 0 0 Z " fill="#EEE197" transform="translate(116,79)"/>
<path d="M0 0 C2.31 0 4.62 0 7 0 C7.02688151 1.64574566 7.04634123 3.29161413 7.0625 4.9375 C7.07410156 5.85402344 7.08570312 6.77054688 7.09765625 7.71484375 C7 10 7 10 6 11 C2.5 11.125 2.5 11.125 -1 11 C-2 10 -2 10 -2.09765625 8.15234375 C-2.06510417 6.1015625 -2.03255208 4.05078125 -2 2 C-1.34 2 -0.68 2 0 2 C0 1.34 0 0.68 0 0 Z " fill="#903779" transform="translate(72,122)"/>
<path d="M0 0 C2.66666667 0 5.33333333 0 8 0 C9.42944945 2.35438733 10.08661261 3.48032433 9.625 6.25 C9.41875 6.8275 9.2125 7.405 9 8 C8.34 8 7.68 8 7 8 C7 8.66 7 9.32 7 10 C5.35 10 3.7 10 2 10 C2 9.34 2 8.68 2 8 C1.01 7.67 0.02 7.34 -1 7 C-1.04254356 5.00045254 -1.04080783 2.99958364 -1 1 C-0.67 0.67 -0.34 0.34 0 0 Z " fill="#90CB47" transform="translate(77,27)"/>
<path d="M0 0 C1.32 0.33 2.64 0.66 4 1 C4 1.66 4 2.32 4 3 C4.8353125 3.37125 4.8353125 3.37125 5.6875 3.75 C9.62640804 5.87913948 12.55694029 7.67082087 14 12 C13.01 12.66 12.02 13.32 11 14 C10.5978125 12.824375 10.5978125 12.824375 10.1875 11.625 C9.15185568 8.71885077 9.15185568 8.71885077 6 7 C6.33 7.99 6.66 8.98 7 10 C7.09511161 12.35261357 7.12986976 14.70796967 7.125 17.0625 C7.12757813 18.31160156 7.13015625 19.56070313 7.1328125 20.84765625 C7 24 7 24 6 26 C5.34 26 4.68 26 4 26 C4.04640625 24.87722656 4.0928125 23.75445312 4.140625 22.59765625 C4.38434686 14.06643919 4.41360242 7.58587916 0 0 Z " fill="#EEE387" transform="translate(138,27)"/>
<path d="M0 0 C1.468927 0.00410889 1.468927 0.00410889 2.9675293 0.00830078 C11.39772699 0.12793657 19.70526291 0.86799421 27.8125 3.3125 C28.3075 4.3025 28.3075 4.3025 28.8125 5.3125 C21.31429697 5.60527149 12.67303481 5.74276741 5.8125 2.3125 C4.36401418 2.22907841 2.91179131 2.20517139 1.4609375 2.21484375 C0.18476562 2.21967773 0.18476562 2.21967773 -1.1171875 2.22460938 C-2.00664063 2.23298828 -2.89609375 2.24136719 -3.8125 2.25 C-5.15828125 2.25676758 -5.15828125 2.25676758 -6.53125 2.26367188 C-8.75006648 2.27547409 -10.96875018 2.29193845 -13.1875 2.3125 C-8.87595605 -0.56186264 -5.0757009 -0.02809664 0 0 Z " fill="#EEAEB5" transform="translate(61.1875,1.6875)"/>
<path d="M0 0 C0.66 0 1.32 0 2 0 C3.28571429 7.42857143 3.28571429 7.42857143 2 11 C0.35 11 -1.3 11 -3 11 C-3.66 9.68 -4.32 8.36 -5 7 C-5.78375 7.04125 -6.5675 7.0825 -7.375 7.125 C-10 7 -10 7 -12 5 C-13.010625 4.67 -14.02125 4.34 -15.0625 4 C-18 3 -18 3 -19 1 C-17.35 1 -15.7 1 -14 1 C-14 1.66 -14 2.32 -14 3 C-12.35 2.34 -10.7 1.68 -9 1 C-8.34 1.99 -7.68 2.98 -7 4 C-4.94074861 4.72382467 -4.94074861 4.72382467 -3 5 C-3 5.99 -3 6.98 -3 8 C-1.68 8 -0.36 8 1 8 C0.67 5.36 0.34 2.72 0 0 Z " fill="#A5668D" transform="translate(98,134)"/>
<path d="M0 0 C3.11373372 1.49920512 6.12228205 3.08152136 9 5 C9 5.66 9 6.32 9 7 C9.928125 7.28875 10.85625 7.5775 11.8125 7.875 C15 9 15 9 18 11 C19.65549531 11.38499891 21.3222433 11.72793135 23 12 C21 13 19 14 17 15 C9.67126829 12.35435826 4.61789181 7.09008076 0 1 C0 0.67 0 0.34 0 0 Z " fill="#D7D0AF" transform="translate(98,116)"/>
<path d="M0 0 C0.33 1.32 0.66 2.64 1 4 C0.34 4 -0.32 4 -1 4 C-1 4.66 -1 5.32 -1 6 C-1.66 6 -2.32 6 -3 6 C-3.33 7.65 -3.66 9.3 -4 11 C-4.99 11.33 -5.98 11.66 -7 12 C-8.33827304 13.66270287 -9.67189785 15.32916181 -11 17 C-11.66 17 -12.32 17 -13 17 C-13 17.66 -13 18.32 -13 19 C-13.66 19 -14.32 19 -15 19 C-15.33 18.01 -15.66 17.02 -16 16 C-14.71451591 14.66070495 -13.42141845 13.32871357 -12.125 12 C-11.40570313 11.2575 -10.68640625 10.515 -9.9453125 9.75 C-8 8 -8 8 -6 8 C-6 7.34 -6 6.68 -6 6 C-4.37550757 4.29220027 -2.70779973 2.62449243 -1 1 C-0.67 0.67 -0.34 0.34 0 0 Z " fill="#F6E38B" transform="translate(138,58)"/>
<path d="M0 0 C6.27 0.33 12.54 0.66 19 1 C19 2.32 19 3.64 19 5 C19.66 5.33 20.32 5.66 21 6 C20.67 6.66 20.34 7.32 20 8 C19.34 8 18.68 8 18 8 C17.67 8.99 17.34 9.98 17 11 C16.67 11 16.34 11 16 11 C16.33 8.03 16.66 5.06 17 2 C14.69 2 12.38 2 10 2 C10 2.66 10 3.32 10 4 C9.34 4 8.68 4 8 4 C8 6.31 8 8.62 8 11 C7.67 11 7.34 11 7 11 C6.773125 9.9275 6.54625 8.855 6.3125 7.75 C5.16452649 3.40638412 5.16452649 3.40638412 0 0 Z " fill="#7555BD" transform="translate(62,120)"/>
<path d="M0 0 C0.33 0 0.66 0 1 0 C2.00589546 5.05381346 2.21632395 9.93111253 2.25 15.0625 C2.270625 15.85205078 2.29125 16.64160156 2.3125 17.45507812 C2.34410676 22.16843585 1.97144734 25.11365966 -1 29 C-2.20628008 26.66785852 -3.1654738 24.50357861 -4 22 C-3.34 22 -2.68 22 -2 22 C-0.11699484 18.12322467 -0.04457238 16.14018633 -1 12 C-0.5625 9.8125 -0.5625 9.8125 0 8 C0 7.34 0 6.68 0 6 C-0.66 5.67 -1.32 5.34 -2 5 C-1.34 5 -0.68 5 0 5 C0 3.35 0 1.7 0 0 Z " fill="#91BA64" transform="translate(171,44)"/>
<path d="M0 0 C0.33 1.32 0.66 2.64 1 4 C1.66 4 2.32 4 3 4 C3 4.66 3 5.32 3 6 C4.32 5.67 5.64 5.34 7 5 C7 7.31 7 9.62 7 12 C5.68 12 4.36 12 3 12 C3 11.01 3 10.02 3 9 C2.21625 8.9175 1.4325 8.835 0.625 8.75 C-2 8 -2 8 -3.3125 5.9375 C-3.539375 5.298125 -3.76625 4.65875 -4 4 C-3.01 3.67 -2.02 3.34 -1 3 C-0.67 2.01 -0.34 1.02 0 0 Z " fill="#952A6D" transform="translate(92,130)"/>
<path d="M0 0 C5.54050113 0.56825653 10.03715966 2.62886517 15 5 C15 5.66 15 6.32 15 7 C15.556875 7.20625 16.11375 7.4125 16.6875 7.625 C19.92501302 9.55000774 21.68231141 12.03850902 24 15 C23.01 15.495 23.01 15.495 22 16 C22 15.34 22 14.68 22 14 C20.824375 13.9071875 20.824375 13.9071875 19.625 13.8125 C18.75875 13.544375 17.8925 13.27625 17 13 C16.5359375 11.7934375 16.5359375 11.7934375 16.0625 10.5625 C15.711875 9.716875 15.36125 8.87125 15 8 C13.02111039 7.27306096 11.02045442 6.60183749 9 6 C8.67 5.01 8.34 4.02 8 3 C6.35 3.33 4.7 3.66 3 4 C3 3.01 3 2.02 3 1 C2.01 0.67 1.02 0.34 0 0 Z " fill="#D1E9A1" transform="translate(136,3)"/>
<path d="M0 0 C4.29 0 8.58 0 13 0 C13 0.66 13 1.32 13 2 C14.134375 2.12375 15.26875 2.2475 16.4375 2.375 C17.613125 2.58125 18.78875 2.7875 20 3 C20.33 3.66 20.66 4.32 21 5 C14.73 5 8.46 5 2 5 C2 4.34 2 3.68 2 3 C1.01 3 0.02 3 -1 3 C-0.67 2.01 -0.34 1.02 0 0 Z " fill="#B7DA77" transform="translate(108,18)"/>
<path d="M0 0 C0.99 0.33 1.98 0.66 3 1 C3 1.66 3 2.32 3 3 C3.680625 3.226875 4.36125 3.45375 5.0625 3.6875 C7.59018195 4.81688981 9.32347517 5.91462781 11.5 7.5625 C14.29393788 9.64114087 16.45946313 10.67813301 20 11 C18.68 11.33 17.36 11.66 16 12 C15.67 13.32 15.34 14.64 15 16 C15 15.01 15 14.02 15 13 C14.29875 12.938125 13.5975 12.87625 12.875 12.8125 C7.22404061 11.21548974 3.29695286 6.69181753 0 2 C0 1.34 0 0.68 0 0 Z " fill="#DAD6B4" transform="translate(94,123)"/>
<path d="M0 0 C5.59190143 0.89470423 10.30086785 3.8994814 13.9375 8.125 C16 11 16 11 16 13 C16.99 13 17.98 13 19 13 C19.33 15.31 19.66 17.62 20 20 C18.125 19.8125 18.125 19.8125 16 19 C15 16.8125 15 16.8125 14 14 C11.11476135 8.46995925 7.23419296 5.81371302 2.046875 2.41796875 C1.37140625 1.95003906 0.6959375 1.48210938 0 1 C0 0.67 0 0.34 0 0 Z " fill="#C67459" transform="translate(91,8)"/>
<path d="M0 0 C1.125 1.75 1.125 1.75 2 4 C1.125 6.25 1.125 6.25 0 8 C-5.71695055 8.59551568 -8.69983599 7.40162446 -13.49609375 4.2890625 C-13.99238281 3.86367188 -14.48867187 3.43828125 -15 3 C-15 2.34 -15 1.68 -15 1 C-13.68 1.33 -12.36 1.66 -11 2 C-11 2.66 -11 3.32 -11 4 C-7.7 4.33 -4.4 4.66 -1 5 C-0.67 3.35 -0.34 1.7 0 0 Z " fill="#C8707C" transform="translate(109,30)"/>
<path d="M0 0 C3.87255275 3.35735727 5.72748777 6.99134211 7.8125 11.5625 C8.13669922 12.23474609 8.46089844 12.90699219 8.79492188 13.59960938 C11.12519466 18.62441601 11.12519466 18.62441601 10 22 C9.731875 21.4225 9.46375 20.845 9.1875 20.25 C8.06691791 17.94925609 8.06691791 17.94925609 6.375 16 C5 14 5 14 5 10 C4.01 10 3.02 10 2 10 C0.68373308 6.38026598 0 3.90432869 0 0 Z " fill="#ABD075" transform="translate(160,19)"/>
<path d="M0 0 C-0.99 0.495 -0.99 0.495 -2 1 C-2 1.66 -2 2.32 -2 3 C-4.3359375 4.69140625 -4.3359375 4.69140625 -7.375 6.5625 C-8.37273437 7.18253906 -9.37046875 7.80257812 -10.3984375 8.44140625 C-11.90395068 9.34335784 -13.43026458 10.21513229 -15 11 C-15 10.01 -15 9.02 -15 8 C-14.01 8 -13.02 8 -12 8 C-11.814375 6.88625 -11.62875 5.7725 -11.4375 4.625 C-10 1 -10 1 -6.5625 -0.5 C-3 -1 -3 -1 0 0 Z " fill="#F5E494" transform="translate(140,109)"/>
<path d="M0 0 C0.99 0.33 1.98 0.66 3 1 C4.1194613 3.8914086 4.10768197 6.67762612 4.0625 9.75 C4.05347656 10.54921875 4.04445313 11.3484375 4.03515625 12.171875 C4.01775391 13.07679687 4.01775391 13.07679687 4 14 C3.34 13.67 2.68 13.34 2 13 C2 12.01 2 11.02 2 10 C1.01 10 0.02 10 -1 10 C-1 8.68 -1 7.36 -1 6 C-1.66 6 -2.32 6 -3 6 C-3 5.34 -3 4.68 -3 4 C-2.34 4 -1.68 4 -1 4 C-0.67 2.68 -0.34 1.36 0 0 Z " fill="#AC1C2C" transform="translate(21,68)"/>
<path d="M0 0 C1.15507777 3.93421227 0.83585767 6.97268577 0 11 C-0.99 11.495 -0.99 11.495 -2 12 C-2 12.99 -2 13.98 -2 15 C-2.66 15 -3.32 15 -4 15 C-4.28875 15.61875 -4.5775 16.2375 -4.875 16.875 C-6 19 -6 19 -8 21 C-7.42460686 15.79714932 -5.70581107 11.76043964 -3.4375 7.125 C-3.10814453 6.43664062 -2.77878906 5.74828125 -2.43945312 5.0390625 C-1.63304639 3.3561267 -0.81745506 1.67759707 0 0 Z " fill="#D66C7B" transform="translate(22,25)"/>
<path d="M0 0 C0 1.32 0 2.64 0 4 C0.66 4 1.32 4 2 4 C6 8.47058824 6 8.47058824 6 11 C6.66 11 7.32 11 8 11 C8.12375 12.134375 8.2475 13.26875 8.375 14.4375 C8.58125 15.613125 8.7875 16.78875 9 18 C9.66 18.33 10.32 18.66 11 19 C9.125 18.734375 9.125 18.734375 7 18 C5.875 16.328125 5.875 16.328125 5 14.25 C2.79820761 9.43196017 0.46692191 5.97794794 -4 3 C-4 2.34 -4 1.68 -4 1 C-2 0 -2 0 0 0 Z " fill="#A0C840" transform="translate(150,30)"/>
<path d="M0 0 C2.625 -0.1875 2.625 -0.1875 5 0 C5 1.98 5 3.96 5 6 C6.98 5.67 8.96 5.34 11 5 C11.12375 5.804375 11.2475 6.60875 11.375 7.4375 C11.58125 8.283125 11.7875 9.12875 12 10 C12.66 10.33 13.32 10.66 14 11 C13.01 11.33 12.02 11.66 11 12 C11 11.34 11 10.68 11 10 C10.34 10 9.68 10 9 10 C8.67 9.01 8.34 8.02 8 7 C6.35 8.65 4.7 10.3 3 12 C3.33 8.37 3.66 4.74 4 1 C2.02 1.66 0.04 2.32 -2 3 C-1.34 2.01 -0.68 1.02 0 0 Z " fill="#833B94" transform="translate(84,124)"/>
<path d="M0 0 C0.33 0 0.66 0 1 0 C1.09796875 0.85722656 1.1959375 1.71445312 1.296875 2.59765625 C2.17641379 9.32309509 3.09910991 14.4087242 7 20 C6.01 20 5.02 20 4 20 C4 19.34 4 18.68 4 18 C3.34 18 2.68 18 2 18 C-0.79321882 15.42164417 -1.00161667 13.9749416 -1.25 10.125 C-1.12142196 6.69196635 -0.67429878 3.37149392 0 0 Z " fill="#8193E3" transform="translate(42,40)"/>
<path d="M0 0 C4.98831556 1.09912038 8.68450494 2.20075996 13 5 C14.65369357 5.69822617 16.31727014 6.37498605 18 7 C18 7.66 18 8.32 18 9 C17.01 9 16.02 9 15 9 C15 8.34 15 7.68 15 7 C14.195625 6.855625 13.39125 6.71125 12.5625 6.5625 C10 6 10 6 9 5 C7.33391013 4.95615553 5.66619446 4.9603287 4 5 C3.01 5 2.02 5 1 5 C0 1.125 0 1.125 0 0 Z " fill="#B6D075" transform="translate(76,23)"/>
<path d="M0 0 C-1.63412443 1.70840281 -2.86906094 2.93453047 -5 4 C-2.525 7.465 -2.525 7.465 0 11 C-0.33 11.66 -0.66 12.32 -1 13 C-2.11375 11.63875 -2.11375 11.63875 -3.25 10.25 C-5.37674584 7.6930577 -7.60229816 5.30889807 -10 3 C-9 1 -9 1 -7.25 0.375 C-4.79549443 -0.03408426 -2.4840589 -0.06900164 0 0 Z " fill="#AFE351" transform="translate(107,6)"/>
<path d="M0 0 C0.66 0 1.32 0 2 0 C2 1.65 2 3.3 2 5 C2.99 5.33 3.98 5.66 5 6 C3.25 8 3.25 8 1 10 C-0.32 10 -1.64 10 -3 10 C-2.69201674 8.51988629 -2.378482 7.04092675 -2.0625 5.5625 C-1.88847656 4.73878906 -1.71445312 3.91507813 -1.53515625 3.06640625 C-1 1 -1 1 0 0 Z " fill="#D53D50" transform="translate(24,24)"/>
<path d="M0 0 C2.0362449 1.01812245 4.06360955 2.03469612 6.0625 3.125 C8.10136548 4.20579336 8.10136548 4.20579336 11 4 C11.66 3.01 12.32 2.02 13 1 C14.32 2.32 15.64 3.64 17 5 C15.68 5.33 14.36 5.66 13 6 C13 6.99 13 7.98 13 9 C10.97954558 8.39816251 8.97888961 7.72693904 7 7 C6.67 6.34 6.34 5.68 6 5 C5.175 4.505 4.35 4.01 3.5 3.5 C1 2 1 2 0 0 Z " fill="#6377D0" transform="translate(100,116)"/>
<path d="M0 0 C0.66 0 1.32 0 2 0 C1.67 2.31 1.34 4.62 1 7 C-2.3 6.67 -5.6 6.34 -9 6 C-7.71567636 3.43135272 -6.63365249 3.053461 -4 2 C-2.68 2 -1.36 2 0 2 C0 1.34 0 0.68 0 0 Z " fill="#D73A4C" transform="translate(107,28)"/>
<path d="M0 0 C2.64 1.32 5.28 2.64 8 4 C8 4.99 8 5.98 8 7 C1.47692308 7.36923077 1.47692308 7.36923077 -0.9375 5.5 C-1.4634375 4.7575 -1.4634375 4.7575 -2 4 C-1.01 4 -0.02 4 1 4 C0.67 2.68 0.34 1.36 0 0 Z " fill="#6A79CA" transform="translate(108,127)"/>
<path d="M0 0 C3.71891574 0.04496098 5.05528619 1.04782517 7.89453125 3.50390625 C8.87761752 4.5133841 9.85009858 5.53328299 10.8125 6.5625 C11.31458984 7.08263672 11.81667969 7.60277344 12.33398438 8.13867188 C13.56529127 9.4168857 14.7839407 10.70727147 16 12 C14.68 12.33 13.36 12.66 12 13 C11.4225 12.0925 10.845 11.185 10.25 10.25 C6.58432696 4.75409783 6.58432696 4.75409783 0.75 2.25 C-0.1575 2.1675 -1.065 2.085 -2 2 C-1.34 1.34 -0.68 0.68 0 0 Z " fill="#757FC2" transform="translate(96,104)"/>
<path d="M0 0 C1.4800841 0.11362262 2.95910074 0.24122908 4.4375 0.375 C5.26121094 0.44460937 6.08492187 0.51421875 6.93359375 0.5859375 C7.95646484 0.79089844 7.95646484 0.79089844 9 1 C9.33 1.66 9.66 2.32 10 3 C11.32 3 12.64 3 14 3 C13.67 3.66 13.34 4.32 13 5 C10.4375 5.625 10.4375 5.625 8 6 C7.67 5.01 7.34 4.02 7 3 C5.02 3 3.04 3 1 3 C0.67 2.01 0.34 1.02 0 0 Z " fill="#AFE454" transform="translate(130,3)"/>
<path d="M0 0 C0.66 0.33 1.32 0.66 2 1 C1.67 1.99 1.34 2.98 1 4 C1.66 3.67 2.32 3.34 3 3 C5.6723621 2.86584528 8.32250488 2.95681459 11 3 C11 3.33 11 3.66 11 4 C5.77487721 5.46670113 1.4185766 6.22577402 -4 6 C-2.84826645 3.53199953 -1.95216435 1.95216435 0 0 Z " fill="#DAD09A" transform="translate(83,102)"/>
<path d="M0 0 C0.99 0.33 1.98 0.66 3 1 C1.125 5.75 1.125 5.75 0 8 C-0.66 8 -1.32 8 -2 8 C-2.12375 8.639375 -2.2475 9.27875 -2.375 9.9375 C-2.58125 10.618125 -2.7875 11.29875 -3 12 C-3.99 12.495 -3.99 12.495 -5 13 C-5 11.35 -5 9.7 -5 8 C-4.34 8 -3.68 8 -3 8 C-2.67 6.68 -2.34 5.36 -2 4 C-1.34 4 -0.68 4 0 4 C0 2.68 0 1.36 0 0 Z " fill="#92B77B" transform="translate(164,78)"/>
<path d="M0 0 C0 4.03630395 -1.76015153 5.67222513 -4 9 C-5.1052067 11.30289931 -6.05041063 13.62602658 -7 16 C-8.20460211 12.38619367 -7.69608056 11.45637968 -6.3125 8 C-5.97863281 7.13375 -5.64476562 6.2675 -5.30078125 5.375 C-3.87236685 2.7669641 -2.48163136 1.58824407 0 0 Z " fill="#B1385F" transform="translate(33,38)"/>
<path d="M0 0 C1.32 0.33 2.64 0.66 4 1 C4 3.31 4 5.62 4 8 C3.34 8 2.68 8 2 8 C2 7.34 2 6.68 2 6 C0.35 6 -1.3 6 -3 6 C-2.67 4.68 -2.34 3.36 -2 2 C-1.34 2 -0.68 2 0 2 C0 1.34 0 0.68 0 0 Z " fill="#932969" transform="translate(82,129)"/>
<path d="M0 0 C3.2601206 2.9100866 4.85085989 5.39160619 6.3125 9.5 C6.65925781 10.4384375 7.00601563 11.376875 7.36328125 12.34375 C8.01541747 15.06431829 7.94708704 16.40925868 7 19 C6.61908203 17.89591797 6.61908203 17.89591797 6.23046875 16.76953125 C5.88628906 15.79371094 5.54210937 14.81789063 5.1875 13.8125 C4.85105469 12.84957031 4.51460937 11.88664062 4.16796875 10.89453125 C3.0758296 7.95898052 3.0758296 7.95898052 1.36328125 5.32421875 C0 3 0 3 0 0 Z " fill="#E0E15D" transform="translate(152,39)"/>
<path d="M0 0 C3.3 0.33 6.6 0.66 10 1 C10 1.99 10 2.98 10 4 C9.34 4 8.68 4 8 4 C8 6.31 8 8.62 8 11 C7.67 11 7.34 11 7 11 C6.773125 9.9275 6.54625 8.855 6.3125 7.75 C4.86973455 3.62781299 3.58089925 2.35585477 0 0 Z " fill="#908ED4" transform="translate(62,120)"/>
<path d="M0 0 C0.33 0.66 0.66 1.32 1 2 C-0.77479455 7.22578394 -2.81188075 10.2646504 -7 14 C-6.44010697 10.00987629 -5.24330232 7.4744948 -2.9375 4.1875 C-2.38964844 3.39730469 -1.84179688 2.60710938 -1.27734375 1.79296875 C-0.64505859 0.90544922 -0.64505859 0.90544922 0 0 Z " fill="#765FC0" transform="translate(35,37)"/>
<path d="M0 0 C3.11373372 1.49920512 6.12228205 3.08152136 9 5 C9 5.66 9 6.32 9 7 C9.66 7.33 10.32 7.66 11 8 C9.68 8.33 8.36 8.66 7 9 C5.83037314 7.69013727 4.66437056 6.3770374 3.5 5.0625 C2.8503125 4.33160156 2.200625 3.60070312 1.53125 2.84765625 C0 1 0 1 0 0 Z " fill="#B7BBBC" transform="translate(98,116)"/>
<path d="M0 0 C0.33 0.99 0.66 1.98 1 3 C1.66 3 2.32 3 3 3 C3 3.99 3 4.98 3 6 C1.68 6 0.36 6 -1 6 C-1 5.01 -1 4.02 -1 3 C-5.455 3.495 -5.455 3.495 -10 4 C-9.67 3.01 -9.34 2.02 -9 1 C-7.700625 1.020625 -6.40125 1.04125 -5.0625 1.0625 C-3.70834367 1.08399454 -2.35243917 1.07148199 -1 1 C-0.67 0.67 -0.34 0.34 0 0 Z " fill="#5C6EE9" transform="translate(91,121)"/>
<path d="M0 0 C1.65 0 3.3 0 5 0 C3.4169423 4.2742558 0.49431596 6.26531794 -3 9 C-3 7.02 -3 5.04 -3 3 C-2.01 3.33 -1.02 3.66 0 4 C0 2.68 0 1.36 0 0 Z " fill="#DFD993" transform="translate(154,91)"/>
<path d="M0 0 C0.33 1.32 0.66 2.64 1 4 C0.01 4.495 0.01 4.495 -1 5 C-1.33 5.99 -1.66 6.98 -2 8 C-2.66 8 -3.32 8 -4 8 C-4 9.65 -4 11.3 -4 13 C-4.99 13.495 -4.99 13.495 -6 14 C-5.125 6.25 -5.125 6.25 -4 4 C-3.34 4 -2.68 4 -2 4 C-1.34 2.68 -0.68 1.36 0 0 Z " fill="#61982E" transform="translate(163,78)"/>
<path d="M0 0 C0.33 0 0.66 0 1 0 C1.86087926 13.96537462 1.86087926 13.96537462 -1.375 17.875 C-4 20 -4 20 -6 20 C-5.34 18.35 -4.68 16.7 -4 15 C-3.01 15 -2.02 15 -1 15 C-0.67 10.05 -0.34 5.1 0 0 Z " fill="#F7E283" transform="translate(145,38)"/>
<path d="M0 0 C0.66 0 1.32 0 2 0 C2 1.65 2 3.3 2 5 C-2.455 6.485 -2.455 6.485 -7 8 C-6.67 5.69 -6.34 3.38 -6 1 C-5.67 1.99 -5.34 2.98 -5 4 C-3.35 4 -1.7 4 0 4 C0 2.68 0 1.36 0 0 Z " fill="#958FBE" transform="translate(107,136)"/>
<path d="M0 0 C0.66 0 1.32 0 2 0 C3.28571429 7.42857143 3.28571429 7.42857143 2 11 C0.35 11 -1.3 11 -3 11 C-3.33 10.34 -3.66 9.68 -4 9 C-2.35 8.67 -0.7 8.34 1 8 C0.67 5.36 0.34 2.72 0 0 Z " fill="#9D5B8D" transform="translate(98,134)"/>
<path d="M0 0 C1.32 0 2.64 0 4 0 C4 1.32 4 2.64 4 4 C4.66 4 5.32 4 6 4 C6 4.66 6 5.32 6 6 C7.32 6.66 8.64 7.32 10 8 C10 8.99 10 9.98 10 11 C5.86062408 7.69984002 2.41337795 4.82675589 0 0 Z " fill="#9496D3" transform="translate(28,91)"/>
<path d="M0 0 C0.99 0.33 1.98 0.66 3 1 C3 2.32 3 3.64 3 5 C3.99 5 4.98 5 6 5 C6.33 7.64 6.66 10.28 7 13 C0 4.79310345 0 4.79310345 0 0 Z " fill="#C07581" transform="translate(17,73)"/>
<path d="M0 0 C0.66 0.66 1.32 1.32 2 2 C-2.09725269 3.04167441 -5.61495224 2.94409525 -9.8125 2.5625 C-10.97394531 2.46066406 -12.13539062 2.35882812 -13.33203125 2.25390625 C-14.21246094 2.17011719 -15.09289063 2.08632813 -16 2 C-16 1.67 -16 1.34 -16 1 C-10.66272119 0.32225031 -5.38819418 -0.32988944 0 0 Z " fill="#E298A0" transform="translate(77,20)"/>
<path d="M0 0 C4.41889613 1.35021826 6.34345343 3.26115668 9 7 C8.01 7.495 8.01 7.495 7 8 C7 7.34 7 6.68 7 6 C6.21625 5.938125 5.4325 5.87625 4.625 5.8125 C3.75875 5.544375 2.8925 5.27625 2 5 C0.6875 2.4375 0.6875 2.4375 0 0 Z " fill="#BDDE81" transform="translate(151,11)"/>
<path d="M0 0 C2.64 0.33 5.28 0.66 8 1 C8.33 2.65 8.66 4.3 9 6 C4.75177626 5.52797514 2.80010291 3.03344482 0 0 Z " fill="#8A98E8" transform="translate(44,107)"/>
<path d="M0 0 C0.33 0.99 0.66 1.98 1 3 C-0.65 4.65 -2.3 6.3 -4 8 C-4.99 7.67 -5.98 7.34 -7 7 C-2.25 1.125 -2.25 1.125 0 0 Z " fill="#F8E792" transform="translate(116,79)"/>
<path d="M0 0 C5.46875 4.39453125 5.46875 4.39453125 7 6 C7 6.99 7 7.98 7 9 C5.68 9 4.36 9 3 9 C2.01 6.03 1.02 3.06 0 0 Z " fill="#899AE6" transform="translate(53,64)"/>
<path d="M0 0 C0.99 0 1.98 0 3 0 C2.01 3.3 1.02 6.6 0 10 C-0.66 10 -1.32 10 -2 10 C-2.1953125 3.9453125 -2.1953125 3.9453125 -2 2 C-1.34 1.34 -0.68 0.68 0 0 Z " fill="#8B8FD5" transform="translate(44,29)"/>
<path d="M0 0 C0.66 0.33 1.32 0.66 2 1 C-1.82180842 5.4008703 -4.47371099 6.80805531 -10 8 C-6.91367389 4.7373124 -4.06516496 1.97764782 0 0 Z " fill="#E39AA1" transform="translate(42,5)"/>
<path d="M0 0 C2.475 0.495 2.475 0.495 5 1 C5 2.32 5 3.64 5 5 C3.35 5 1.7 5 0 5 C0 3.35 0 1.7 0 0 Z " fill="#5D71DD" transform="translate(102,135)"/>
<path d="M0 0 C0.66 0.33 1.32 0.66 2 1 C1.67 2.32 1.34 3.64 1 5 C-4.53846154 5.36923077 -4.53846154 5.36923077 -6.875 3.5 C-7.24625 3.005 -7.6175 2.51 -8 2 C-5.69 2 -3.38 2 -1 2 C-0.67 1.34 -0.34 0.68 0 0 Z " fill="#6C7BCE" transform="translate(121,123)"/>
<path d="M0 0 C1.65 0 3.3 0 5 0 C2.19195732 2.96404505 -0.18315774 5.44499019 -4 7 C-3.67 5.68 -3.34 4.36 -3 3 C-2.01 3 -1.02 3 0 3 C0 2.01 0 1.02 0 0 Z " fill="#F4E9AC" transform="translate(144,102)"/>
<path d="M0 0 C0.66 0 1.32 0 2 0 C1.50769231 6.4 1.50769231 6.4 -1.0625 9.4375 C-1.701875 9.953125 -2.34125 10.46875 -3 11 C-2.44894091 7.0507432 -1.61064629 3.65079826 0 0 Z " fill="#D37787" transform="translate(17,35)"/>
<path d="M0 0 C3.96 0 7.92 0 12 0 C12 0.66 12 1.32 12 2 C7.28400182 2.92470553 4.32734391 3.22923777 0 1 C0 0.67 0 0.34 0 0 Z " fill="#DD747F" transform="translate(67,3)"/>
<path d="M0 0 C0.66 0 1.32 0 2 0 C2 1.98 2 3.96 2 6 C2.66 6.33 3.32 6.66 4 7 C2.35 7 0.7 7 -1 7 C-1.33 6.34 -1.66 5.68 -2 5 C-1.0625 2.375 -1.0625 2.375 0 0 Z " fill="#8D2A5E" transform="translate(74,126)"/>
<path d="M0 0 C0.33 0 0.66 0 1 0 C1 1.98 1 3.96 1 6 C0.67 6 0.34 6 0 6 C-0.33 7.98 -0.66 9.96 -1 12 C-2.20628008 9.66785852 -3.1654738 7.50357861 -4 5 C-3.34 5 -2.68 5 -2 5 C-1.34 3.35 -0.68 1.7 0 0 Z " fill="#6DA638" transform="translate(171,61)"/>
<path d="M0 0 C4.03520597 1.58962659 8.01811282 3.28232318 12 5 C12 5.66 12 6.32 12 7 C11.01 7 10.02 7 9 7 C9 6.34 9 5.68 9 5 C8.2575 4.87625 7.515 4.7525 6.75 4.625 C4.19858515 4.04513299 2.2732427 3.26291261 0 2 C0 1.34 0 0.68 0 0 Z " fill="#B49853" transform="translate(82,25)"/>
<path d="M0 0 C0.66 0.33 1.32 0.66 2 1 C2.33 2.65 2.66 4.3 3 6 C-0.3 5.01 -3.6 4.02 -7 3 C-7 2.67 -7 2.34 -7 2 C-4.69 2 -2.38 2 0 2 C0 1.34 0 0.68 0 0 Z " fill="#C45748" transform="translate(83,20)"/>
<path d="M0 0 C-0.495 0.433125 -0.99 0.86625 -1.5 1.3125 C-3.33218192 2.99740483 -3.33218192 2.99740483 -3 6 C-6.465 4.02 -6.465 4.02 -10 2 C-10 1.67 -10 1.34 -10 1 C-3.375 -1.125 -3.375 -1.125 0 0 Z " fill="#DDD8A4" transform="translate(101,6)"/>
<path d="M0 0 C1.9375 0.375 1.9375 0.375 4 1 C5.35439668 3.70879335 5.06501451 6.00933268 5 9 C2.67527795 6.14693203 1.2491742 3.45925163 0 0 Z " fill="#E6E7A2" transform="translate(138,27)"/>
<path d="M0 0 C0.33 0.66 0.66 1.32 1 2 C1.66 2 2.32 2 3 2 C3.185625 3.7015625 3.185625 3.7015625 3.375 5.4375 C3.684375 7.2009375 3.684375 7.2009375 4 9 C4.66 9.33 5.32 9.66 6 10 C4.125 9.8125 4.125 9.8125 2 9 C0.21715186 5.70173093 0 3.8225249 0 0 Z " fill="#90C039" transform="translate(155,39)"/>
<path d="M0 0 C5.53846154 -0.36923077 5.53846154 -0.36923077 7.875 1.5 C8.24625 1.995 8.6175 2.49 9 3 C8.67 3.66 8.34 4.32 8 5 C5.36 3.68 2.72 2.36 0 1 C0 0.67 0 0.34 0 0 Z " fill="#C44E44" transform="translate(86,26)"/>
<path d="M0 0 C1.75 0.125 1.75 0.125 4 1 C6.25 4.0625 6.25 4.0625 8 7 C7.67 7.66 7.34 8.32 7 9 C5.14453125 6.70507812 5.14453125 6.70507812 3.2890625 4.41015625 C2.0333609 2.86733563 2.0333609 2.86733563 0 2 C0 1.34 0 0.68 0 0 Z " fill="#BBCC5C" transform="translate(99,10)"/>
<path d="M0 0 C4.875 2.75 4.875 2.75 6 5 C5.34 5 4.68 5 4 5 C3.67 5.66 3.34 6.32 3 7 C2.67 6.01 2.34 5.02 2 4 C1.34 3.67 0.68 3.34 0 3 C0 2.01 0 1.02 0 0 Z " fill="#7067B4" transform="translate(98,130)"/>
<path d="M0 0 C0.99 0.33 1.98 0.66 3 1 C3 1.66 3 2.32 3 3 C5.475 3.99 5.475 3.99 8 5 C7.01 5.495 7.01 5.495 6 6 C5.67 6.66 5.34 7.32 5 8 C0 2.25 0 2.25 0 0 Z " fill="#C4C2BD" transform="translate(94,123)"/>
<path d="M0 0 C2.64 0 5.28 0 8 0 C8.33 1.65 8.66 3.3 9 5 C8.46375 4.505 7.9275 4.01 7.375 3.5 C4.40641555 1.62510456 2.44687573 1.76498575 -1 2 C-0.67 1.34 -0.34 0.68 0 0 Z " fill="#DFD591" transform="translate(95,103)"/>
<path d="M0 0 C3.36591866 1.44253657 5.51047079 3.33264727 8 6 C7.01 6.33 6.02 6.66 5 7 C3.29115995 5.37660195 1.62553283 3.70680947 0 2 C0 1.34 0 0.68 0 0 Z " fill="#8B9CE7" transform="translate(74,83)"/>
<path d="M0 0 C0.33 1.32 0.66 2.64 1 4 C0.34 4 -0.32 4 -1 4 C-1 4.66 -1 5.32 -1 6 C-2.65 6.66 -4.3 7.32 -6 8 C-6 6 -6 6 -3.5625 3.4375 C-2.716875 2.633125 -1.87125 1.82875 -1 1 C-0.67 0.67 -0.34 0.34 0 0 Z " fill="#F6EBB1" transform="translate(138,58)"/>
<path d="M0 0 C3 6 3 6 2.0625 9.125 C1.711875 10.07375 1.36125 11.0225 1 12 C0.67 12 0.34 12 0 12 C0 8.04 0 4.08 0 0 Z " fill="#6EB234" transform="translate(162,54)"/>
<path d="M0 0 C0.99 0.33 1.98 0.66 3 1 C2.67 2.98 2.34 4.96 2 7 C1.01 6.67 0.02 6.34 -1 6 C-0.67 4.02 -0.34 2.04 0 0 Z " fill="#E03D49" transform="translate(27,23)"/>
<path d="M0 0 C2.79872437 2.52788007 4.45773019 4.20411134 5 8 C3.0625 7.375 3.0625 7.375 1 6 C0.25 2.875 0.25 2.875 0 0 Z " fill="#C0DC91" transform="translate(160,19)"/>
<path d="M0 0 C2 1.3125 2 1.3125 4 3 C4 3.99 4 4.98 4 6 C2.68 6.33 1.36 6.66 0 7 C0 4.69 0 2.38 0 0 Z " fill="#7F91E7" transform="translate(62,72)"/>
<path d="M0 0 C0.66 1.32 1.32 2.64 2 4 C1.01 4.66 0.02 5.32 -1 6 C-1.99 5.67 -2.98 5.34 -4 5 C-2.68 3.35 -1.36 1.7 0 0 Z " fill="#E07C89" transform="translate(31,13)"/>
<path d="M0 0 C2.97 0.33 5.94 0.66 9 1 C9 1.33 9 1.66 9 2 C6.36 2.33 3.72 2.66 1 3 C0.67 2.01 0.34 1.02 0 0 Z " fill="#B4DD60" transform="translate(130,3)"/>
<path d="M0 0 C2.31 0 4.62 0 7 0 C6.67 0.66 6.34 1.32 6 2 C3.03 1.505 3.03 1.505 0 1 C0 0.67 0 0.34 0 0 Z " fill="#B3BFD8" transform="translate(136,0)"/>
<path d="M0 0 C3 1 3 1 3 1 Z " fill="#B7BCDD" transform="translate(47,0)"/>
</svg>
